<svg xmlns="http://www.w3.org/2000/svg" width="32.7" height="29.7" viewBox="0 0 23.492 21.326" preserveAspectRatio="xMidYMid meet" role="img"><defs><clipPath id="c1"><path d="M-231.478 -185.297H236.522V102.703H-231.478Z"/></clipPath><clipPath id="c2"><path d="M-231.478 -185.297H236.522V102.703H-231.478Z"/></clipPath><clipPath id="c3"><path d="M-231.478 -185.297H236.522V102.703H-231.478Z"/></clipPath><clipPath id="c4"><path d="M-231.478 -185.297H236.522V102.703H-231.478Z"/></clipPath><clipPath id="c5"><path d="M-231.478 -185.297H236.522V102.703H-231.478Z"/></clipPath><clipPath id="c6"><path d="M-231.478 -185.297H236.522V102.703H-231.478Z"/></clipPath><clipPath id="c7"><path d="M-231.478 -185.297H236.522V102.703H-231.478Z"/></clipPath><clipPath id="c8"><path d="M-231.478 -185.297H236.522V102.703H-231.478Z"/></clipPath><clipPath id="c9"><path d="M-231.478 -185.297H236.522V102.703H-231.478Z"/></clipPath><clipPath id="c10"><path d="M-231.478 -185.297H236.522V102.703H-231.478Z"/></clipPath><clipPath id="c11"><path d="M-231.478 -185.297H236.522V102.703H-231.478Z"/></clipPath><clipPath id="c12"><path d="M-231.478 -185.297H236.522V102.703H-231.478Z"/></clipPath><clipPath id="c13"><path d="M-2.726 88.304H7.77V98.6H-2.726Z"/></clipPath></defs><g clip-path="url(#c1)"></g><g clip-path="url(#c2)"></g><g clip-path="url(#c3)"></g><g clip-path="url(#c4)"></g><g clip-path="url(#c5)"></g><g clip-path="url(#c6)"></g><g clip-path="url(#c7)"></g><g clip-path="url(#c8)"></g><g clip-path="url(#c9)"></g><g clip-path="url(#c10)"><path d="M21.402 10.659L11.716 10.659L16.562 2.272C16.855 2.439 17.109 2.692 17.289 3.006L21.136 9.659C21.316 9.972 21.402 10.319 21.402 10.659" fill="#ffffff"/><path d="M11.715 10.659L21.401 10.659C21.401 11.006 21.316 11.346 21.135 11.659L17.288 18.326C17.109 18.633 16.855 18.886 16.555 19.053L11.715 10.666L11.715 10.659" fill="#cf312d"/><path d="M16.562 2.272L11.715 10.659L11.708 10.659L6.869 2.272C7.168 2.099 7.508 2.006 7.869 2.006L15.562 2.006C15.922 2.006 16.262 2.099 16.562 2.272" fill="#cf312d"/><path d="M11.715 10.666L16.555 19.053C16.255 19.232 15.915 19.326 15.562 19.326L7.868 19.326C7.508 19.326 7.168 19.226 6.868 19.053L11.715 10.666" fill="#cf312d"/></g><path d="M11.708 10.66L11.715 10.666L11.715 10.66L11.708 10.66" fill="#5b9ad3"/><g clip-path="url(#c11)"><path d="M11.715 10.666L6.868 19.053C6.569 18.879 6.314 18.633 6.135 18.326L2.288 11.659C2.108 11.346 2.022 11.006 2.022 10.659L11.708 10.659L11.715 10.666" fill="#ffffff"/><path d="M6.869 2.272L11.709 10.659L2.022 10.659C2.022 10.319 2.109 9.972 2.289 9.659L6.136 3.005C6.315 2.692 6.569 2.439 6.869 2.272" fill="#cf312d"/><path d="M16.642 19.001C16.613 19.019 16.584 19.036 16.555 19.053C16.535 19.065 16.515 19.076 16.495 19.087C16.545 19.061 16.594 19.032 16.642 19.001M6.716 18.956C6.717 18.956 6.717 18.956 6.718 18.957C6.717 18.956 6.717 18.956 6.716 18.956M7.202 18.475L6.869 19.053C6.817 19.023 6.767 18.991 6.719 18.957C6.789 19.007 6.863 19.052 6.939 19.092C6.916 19.079 6.892 19.066 6.869 19.053L7.202 18.475M2.091 10.136C2.01 10.437 2 10.752 2.061 11.057C2.035 10.926 2.022 10.793 2.022 10.659L2.689 10.659L2.022 10.659C2.022 10.485 2.045 10.309 2.091 10.136M2.093 10.13C2.093 10.13 2.093 10.131 2.092 10.132C2.093 10.131 2.093 10.13 2.093 10.13M7.866 1.999C7.152 2 6.493 2.382 6.136 2.998L3.456 7.64L6.135 3.006C6.315 2.692 6.569 2.44 6.869 2.272C7.168 2.099 7.508 2.006 7.868 2.006L15.562 2.006C15.922 2.006 16.262 2.099 16.562 2.272L16.229 2.849L16.562 2.272C16.855 2.44 17.109 2.692 17.288 3.006L21.135 9.659C21.316 9.973 21.402 10.319 21.402 10.659C21.402 11.006 21.316 11.346 21.135 11.659L20.025 13.583L21.136 11.659C21.492 11.04 21.491 10.278 21.137 9.66L17.289 3C16.933 2.382 16.276 2 15.56 2L15.557 2L7.866 1.999" fill="#767071"/><path d="M16.562 2.272L16.229 2.848C16.427 2.963 16.595 3.129 16.712 3.333L20.559 9.992C20.677 10.198 20.736 10.428 20.736 10.659L21.402 10.659C21.402 10.319 21.316 9.972 21.135 9.659L17.288 3.005C17.109 2.692 16.855 2.439 16.562 2.272" fill="#767071"/><path d="M21.402 10.659L21.402 10.659L20.737 10.659C20.737 10.89 20.678 11.12 20.559 11.326L16.713 17.987C16.594 18.194 16.423 18.361 16.222 18.476L16.555 19.053C16.585 19.036 16.614 19.019 16.642 19.001C16.905 18.832 17.128 18.6 17.29 18.32L20.025 13.583L21.136 11.659C21.316 11.346 21.402 11.006 21.402 10.659" fill="#70201e"/><path d="M15.562 2.006L7.868 2.006C7.508 2.006 7.168 2.099 6.869 2.272L7.2 2.847C7.4 2.731 7.63 2.666 7.867 2.666L15.56 2.667C15.798 2.667 16.029 2.732 16.229 2.849L16.562 2.272C16.262 2.099 15.922 2.006 15.562 2.006" fill="#70201e"/><path d="M7.202 18.475L6.868 19.053C6.892 19.066 6.915 19.079 6.939 19.092C7.22 19.239 7.537 19.32 7.866 19.32L15.558 19.32C15.89 19.32 16.211 19.238 16.494 19.087C16.515 19.076 16.535 19.064 16.555 19.053L16.222 18.476C16.023 18.59 15.794 18.654 15.558 18.654L7.866 18.654C7.63 18.654 7.401 18.59 7.202 18.475" fill="#70201e"/><path d="M2.689 10.659L2.022 10.659C2.022 10.793 2.035 10.926 2.061 11.057C2.104 11.266 2.18 11.469 2.29 11.66L6.137 18.32C6.284 18.576 6.483 18.791 6.717 18.956L6.718 18.956C6.718 18.957 6.719 18.957 6.719 18.957C6.768 18.991 6.818 19.023 6.869 19.053L7.203 18.475C7.003 18.36 6.833 18.193 6.715 17.987L2.868 11.327C2.748 11.121 2.689 10.89 2.689 10.659" fill="#767071"/><path d="M6.869 2.272C6.569 2.439 6.315 2.692 6.136 3.005L3.457 7.639L2.29 9.66C2.203 9.809 2.138 9.967 2.093 10.129C2.093 10.13 2.093 10.131 2.093 10.131C2.092 10.133 2.092 10.134 2.092 10.136C2.045 10.308 2.022 10.484 2.022 10.659L2.689 10.659C2.689 10.429 2.749 10.198 2.868 9.993L6.714 3.332C6.832 3.128 7.002 2.961 7.2 2.846L6.869 2.272" fill="#70201e"/><path d="M6.348 9.899C6.407 9.591 6.493 9.288 6.606 8.995L5.984 8.755C5.857 9.086 5.759 9.427 5.693 9.774L6.348 9.899" fill="#ffffff"/><path d="M8.495 6.554C8.633 6.456 8.777 6.363 8.927 6.276C9.332 6.043 9.754 5.868 10.183 5.749L10.006 5.107C9.522 5.24 9.048 5.437 8.594 5.699C8.426 5.796 8.264 5.9 8.108 6.011L8.495 6.554M6.864 8.424C7.15 7.876 7.534 7.374 8.007 6.946L7.56 6.452C7.027 6.933 6.595 7.498 6.273 8.115L6.864 8.424" fill="#ffffff"/><path d="M10.804 5.618C11.071 5.578 11.338 5.558 11.606 5.558L11.743 5.56L11.759 4.893L11.606 4.891C11.306 4.891 11.004 4.913 10.704 4.959L10.804 5.618" fill="#ffffff"/></g><path d="M11.248 6.395L13.402 5.516L11.564 4.089L11.248 6.395" fill="#ffffff"/><g clip-path="url(#c12)"><path d="M17.073 11.418C17.013 11.727 16.927 12.03 16.814 12.323L17.437 12.561C17.563 12.232 17.66 11.891 17.727 11.545L17.073 11.418" fill="#ffffff"/><path d="M14.925 14.765C14.787 14.863 14.643 14.956 14.493 15.043C14.088 15.276 13.666 15.451 13.237 15.569L13.414 16.212C13.897 16.078 14.372 15.882 14.826 15.62C14.994 15.523 15.156 15.419 15.312 15.308L14.925 14.765M16.557 12.895C16.269 13.443 15.886 13.945 15.413 14.373L15.86 14.867C16.392 14.385 16.824 13.82 17.147 13.204L16.557 12.895" fill="#ffffff"/><path d="M12.617 15.701C12.35 15.741 12.081 15.761 11.814 15.761L11.678 15.759L11.661 16.426L11.814 16.428C12.113 16.428 12.415 16.406 12.717 16.36L12.617 15.701" fill="#ffffff"/></g><path d="M12.172 14.924L10.017 15.802L11.855 17.23L12.172 14.924" fill="#ffffff"/><g clip-path="url(#c13)"></g></svg>