<svg xmlns="http://www.w3.org/2000/svg" width="172.0" height="87.1" viewBox="0 0 123.589 62.597" preserveAspectRatio="xMidYMid meet" role="img"><defs><clipPath id="c1"><path d="M-72.984 -196.701H395.016V91.299H-72.984Z"/></clipPath><clipPath id="c2"><path d="M-72.984 -196.701H395.016V91.299H-72.984Z"/></clipPath><clipPath id="c3"><path d="M-72.984 -196.701H395.016V91.299H-72.984Z"/></clipPath><clipPath id="c4"><path d="M-72.984 -196.701H395.016V91.299H-72.984Z"/></clipPath><clipPath id="c5"><path d="M155.768 76.899H166.264V87.195H155.768Z"/></clipPath></defs><g clip-path="url(#c1)"><path d="M64.479 50.682L59.987 50.682C58.911 50.682 58.031 49.802 58.031 48.726C58.031 47.651 58.911 46.771 59.987 46.771L64.479 46.771C65.554 46.771 66.434 47.651 66.434 48.726C66.434 49.802 65.554 50.682 64.479 50.682" fill="#fff567"/><path d="M53.479 47.165C54.338 47.165 55.041 47.867 55.041 48.725C55.041 49.585 54.338 50.287 53.479 50.287L53.479 47.165" fill="#fff567"/><path d="M53.479 47.165L53.479 47.415C54.199 47.416 54.789 48.006 54.791 48.725C54.789 49.446 54.199 50.036 53.479 50.037L53.479 50.287L53.729 50.287L53.729 47.165L53.479 47.165L53.479 47.415L53.479 47.165L53.229 47.165L53.229 50.537L53.479 50.537C54.477 50.536 55.29 49.724 55.291 48.725C55.29 47.728 54.477 46.916 53.479 46.915L53.229 46.915L53.229 47.165L53.479 47.165" fill="#fff567"/><path d="M70.952 50.287C70.094 50.287 69.391 49.585 69.391 48.725C69.391 47.867 70.094 47.165 70.952 47.165L70.952 50.287" fill="#fff567"/><path d="M70.952 50.287L70.952 50.037C70.234 50.036 69.643 49.445 69.641 48.725C69.643 48.006 70.234 47.416 70.952 47.415L70.952 47.165L70.702 47.165L70.702 50.287L70.952 50.287L70.952 50.037L70.952 50.287L71.202 50.287L71.202 46.915L70.952 46.915C69.956 46.916 69.143 47.728 69.141 48.725C69.141 49.724 69.956 50.536 70.952 50.537L71.202 50.537L71.202 50.287L70.952 50.287" fill="#fff567"/><path d="M68.6 45.447C69.948 45.447 71.044 46.543 71.044 47.89L71.044 49.562C71.044 50.909 69.948 52.005 68.6 52.005L55.865 52.005C54.518 52.005 53.421 50.909 53.421 49.562L53.421 47.89C53.421 46.543 54.518 45.447 55.865 45.447L68.6 45.447M68.6 44.781L55.865 44.781C54.155 44.781 52.755 46.18 52.755 47.89L52.755 49.562C52.755 51.272 54.155 52.671 55.865 52.671L68.6 52.671C70.311 52.671 71.709 51.272 71.709 49.562L71.709 47.89C71.709 46.18 70.311 44.781 68.6 44.781" fill="#fff567"/><path d="M55.833 45.447C54.864 45.459 54.028 46.039 53.645 46.869C54.028 46.039 54.864 45.459 55.833 45.447" fill="#767071"/><path d="M53.479 47.362C53.441 47.532 53.422 47.708 53.422 47.889L53.422 49.561C53.422 49.743 53.441 49.919 53.479 50.089L53.479 50.085C53.442 49.917 53.423 49.741 53.423 49.561L53.423 47.889C53.423 47.71 53.442 47.535 53.479 47.366L53.479 47.362" fill="#786e44"/><path d="M53.646 50.583L53.645 50.583C54.033 51.422 54.882 52.005 55.865 52.005L68.6 52.005C69.583 52.005 70.431 51.423 70.819 50.586C70.431 51.423 69.583 52.005 68.6 52.005L55.865 52.005C54.882 52.005 54.033 51.422 53.646 50.583" fill="#767071"/><path d="M55.833 45.447C55.843 45.447 55.854 45.447 55.865 45.447L68.6 45.447C69.582 45.447 70.431 46.029 70.819 46.867C70.863 46.863 70.907 46.862 70.952 46.862L70.952 47.228C71.012 47.439 71.043 47.66 71.043 47.889L71.043 49.561C71.043 49.79 71.012 50.012 70.952 50.222L70.952 50.59C70.907 50.59 70.863 50.588 70.818 50.585C70.431 51.422 69.582 52.005 68.6 52.005L55.865 52.005C54.882 52.005 54.032 51.421 53.645 50.582C53.59 50.587 53.535 50.59 53.479 50.59L53.479 50.089C53.441 49.919 53.421 49.742 53.421 49.561L53.421 47.889C53.421 47.708 53.441 47.532 53.479 47.362L53.479 46.862C53.534 46.862 53.59 46.864 53.645 46.869C54.028 46.039 54.864 45.459 55.833 45.447M68.6 44.781L55.865 44.781C54.155 44.781 52.755 46.179 52.755 47.889L52.755 49.561C52.755 51.272 54.155 52.671 55.865 52.671L68.6 52.671C70.311 52.671 71.709 51.272 71.709 49.561L71.709 47.889C71.709 46.179 70.311 44.781 68.6 44.781" fill="#786e44"/><path d="M59.987 49.923C59.327 49.923 58.79 49.386 58.79 48.726C58.79 48.067 59.327 47.529 59.987 47.529L64.479 47.529C65.139 47.529 65.675 48.067 65.675 48.726C65.675 49.386 65.139 49.923 64.479 49.923L59.987 49.923M64.479 46.771L59.987 46.771C58.911 46.771 58.031 47.651 58.031 48.726C58.031 49.802 58.911 50.682 59.987 50.682L64.479 50.682C65.554 50.682 66.434 49.802 66.434 48.726C66.434 47.651 65.554 46.771 64.479 46.771" fill="#786e44"/><path d="M53.646 46.87C53.638 46.887 53.63 46.904 53.623 46.921C54.554 46.996 55.29 47.777 55.291 48.726C55.29 49.676 54.554 50.457 53.623 50.531C53.631 50.549 53.638 50.566 53.646 50.583C54.595 50.497 55.343 49.698 55.344 48.726C55.343 47.755 54.595 46.955 53.646 46.87" fill="#767071"/><path d="M53.729 47.44L53.729 47.494C54.301 47.612 54.737 48.122 54.738 48.726C54.737 49.331 54.301 49.841 53.729 49.959L53.729 50.013C54.331 49.894 54.79 49.36 54.791 48.726C54.79 48.092 54.331 47.559 53.729 47.44" fill="#786e44"/><path d="M53.623 46.921C53.561 47.063 53.513 47.212 53.479 47.366L53.479 47.468C53.565 47.468 53.648 47.477 53.729 47.494L53.729 47.44C54.331 47.558 54.79 48.092 54.791 48.726C54.79 49.36 54.331 49.894 53.729 50.013L53.729 49.959C53.648 49.975 53.565 49.984 53.479 49.984L53.479 50.086C53.513 50.24 53.561 50.389 53.623 50.531C54.554 50.457 55.29 49.676 55.291 48.726C55.29 47.776 54.553 46.995 53.623 46.921" fill="#786e44"/><path d="M53.645 46.87C53.637 46.887 53.63 46.904 53.622 46.921L53.623 46.921C53.63 46.904 53.638 46.887 53.646 46.87L53.645 46.87" fill="#494443"/><path d="M53.622 46.921C53.561 47.062 53.513 47.209 53.479 47.362L53.479 47.366C53.513 47.212 53.561 47.063 53.623 46.921L53.622 46.921" fill="#4a4330"/><path d="M53.623 50.531L53.622 50.531C53.63 50.548 53.637 50.565 53.645 50.582L53.646 50.582C53.638 50.565 53.63 50.548 53.623 50.531" fill="#494443"/><path d="M53.479 50.086L53.479 50.09C53.513 50.243 53.561 50.391 53.622 50.532L53.623 50.532C53.561 50.389 53.513 50.24 53.479 50.086" fill="#4a4330"/><path d="M53.479 50.089L53.479 50.59C53.535 50.589 53.59 50.587 53.645 50.582C53.637 50.565 53.63 50.548 53.622 50.531C53.561 50.39 53.513 50.242 53.479 50.089M53.479 46.862L53.479 47.362C53.513 47.209 53.561 47.061 53.622 46.92C53.63 46.903 53.637 46.886 53.645 46.869C53.59 46.864 53.535 46.862 53.479 46.862" fill="#4a4330"/><path d="M70.819 46.867C69.854 46.937 69.089 47.743 69.088 48.726C69.089 49.709 69.854 50.515 70.819 50.585C70.827 50.568 70.835 50.551 70.842 50.534C69.896 50.475 69.142 49.687 69.141 48.726C69.142 47.765 69.896 46.977 70.842 46.919C70.835 46.901 70.827 46.884 70.819 46.867" fill="#767071"/><path d="M70.702 47.44C70.1 47.559 69.641 48.092 69.641 48.726C69.641 49.36 70.1 49.894 70.702 50.013L70.702 49.959C70.13 49.841 69.695 49.331 69.693 48.726C69.695 48.122 70.13 47.612 70.702 47.494L70.702 47.44" fill="#786e44"/><path d="M70.842 46.918C69.896 46.976 69.142 47.764 69.141 48.725C69.142 49.686 69.896 50.475 70.842 50.533C70.886 50.433 70.923 50.329 70.953 50.222L70.953 50.037L70.953 50.222L70.953 49.984C70.867 49.984 70.784 49.975 70.703 49.958L70.703 50.012C70.101 49.893 69.642 49.36 69.641 48.725C69.642 48.091 70.101 47.558 70.703 47.439L70.703 47.493C70.784 47.476 70.867 47.468 70.953 47.467L70.953 47.228C70.923 47.122 70.886 47.018 70.842 46.918" fill="#786e44"/><path d="M70.952 50.223L70.952 50.223C70.923 50.33 70.885 50.433 70.842 50.534C70.835 50.551 70.826 50.568 70.818 50.585C70.863 50.589 70.908 50.59 70.952 50.59L70.952 50.223M70.952 46.862C70.908 46.862 70.863 46.864 70.818 46.867C70.872 46.983 70.917 47.104 70.952 47.229L70.952 46.862" fill="#4a4330"/><path d="M64.479 58.608L59.987 58.608C58.911 58.608 58.031 57.728 58.031 56.652C58.031 55.577 58.911 54.697 59.987 54.697L64.479 54.697C65.554 54.697 66.434 55.577 66.434 56.652C66.434 57.728 65.554 58.608 64.479 58.608" fill="#fff567"/><path d="M53.479 55.091C54.338 55.091 55.041 55.794 55.041 56.653C55.041 57.512 54.338 58.214 53.479 58.214L53.479 55.091" fill="#fff567"/><path d="M53.479 55.091L53.479 55.341C54.198 55.342 54.789 55.934 54.791 56.653C54.789 57.373 54.199 57.963 53.479 57.964L53.479 58.214L53.729 58.214L53.729 55.091L53.479 55.091L53.479 55.341L53.479 55.091L53.229 55.091L53.229 58.464L53.479 58.464C54.477 58.463 55.29 57.651 55.291 56.653C55.29 55.655 54.477 54.842 53.479 54.841L53.229 54.841L53.229 55.091L53.479 55.091" fill="#fff567"/><path d="M70.952 58.214C70.094 58.214 69.391 57.512 69.391 56.653C69.391 55.794 70.094 55.091 70.952 55.091L70.952 58.214" fill="#fff567"/><path d="M70.952 58.214L70.952 57.964C70.234 57.963 69.643 57.373 69.641 56.653C69.643 55.933 70.234 55.342 70.952 55.341L70.952 55.091L70.702 55.091L70.702 58.214L70.952 58.214L70.952 57.964L70.952 58.214L71.202 58.214L71.202 54.841L70.952 54.841C69.954 54.842 69.143 55.655 69.141 56.653C69.141 57.651 69.956 58.463 70.952 58.464L71.202 58.464L71.202 58.214L70.952 58.214" fill="#fff567"/><path d="M68.6 53.373C69.948 53.373 71.044 54.47 71.044 55.816L71.044 57.488C71.044 58.836 69.948 59.931 68.6 59.931L55.865 59.931C54.518 59.931 53.421 58.836 53.421 57.488L53.421 55.816C53.421 54.47 54.518 53.373 55.865 53.373L68.6 53.373M68.6 52.707L55.865 52.707C54.155 52.707 52.755 54.106 52.755 55.816L52.755 57.488C52.755 59.198 54.155 60.597 55.865 60.597L68.6 60.597C70.311 60.597 71.709 59.198 71.709 57.488L71.709 55.816C71.709 54.106 70.311 52.707 68.6 52.707" fill="#fff567"/><path d="M68.6 53.373L55.865 53.373C54.882 53.373 54.033 53.957 53.645 54.795L53.646 54.795C54.033 53.957 54.882 53.374 55.865 53.374L68.6 53.374C69.582 53.374 70.431 53.956 70.819 54.793C70.431 53.956 69.582 53.373 68.6 53.373" fill="#767071"/><path d="M53.479 55.289C53.441 55.459 53.422 55.636 53.422 55.817L53.422 57.489C53.422 57.67 53.441 57.846 53.479 58.016L53.479 58.012C53.442 57.843 53.423 57.668 53.423 57.489L53.423 55.817C53.423 55.637 53.442 55.462 53.479 55.293L53.479 55.289" fill="#786e44"/><path d="M53.646 58.509L53.645 58.509C54.033 59.348 54.882 59.932 55.865 59.932L68.6 59.932C69.582 59.932 70.431 59.349 70.819 58.512C70.431 59.349 69.582 59.932 68.6 59.932L55.865 59.932C54.882 59.932 54.033 59.348 53.646 58.509" fill="#767071"/><path d="M71.044 57.488C71.044 57.717 71.012 57.939 70.952 58.149C71.012 57.939 71.044 57.717 71.044 57.488M70.952 55.155L70.952 55.155C71.01 55.356 71.04 55.567 71.044 55.785C71.04 55.567 71.01 55.356 70.952 55.155" fill="#786e44"/><path d="M53.645 54.795C54.033 53.956 54.882 53.373 55.865 53.373L68.6 53.373C69.582 53.373 70.43 53.955 70.818 54.793C70.863 54.789 70.907 54.788 70.952 54.788L70.952 55.155C71.009 55.356 71.04 55.567 71.043 55.784C71.043 55.795 71.043 55.805 71.043 55.816L71.043 57.488C71.043 57.717 71.012 57.939 70.952 58.149L70.952 58.516C70.907 58.516 70.863 58.515 70.818 58.511C70.431 59.349 69.582 59.931 68.6 59.931L55.865 59.931C54.882 59.931 54.032 59.348 53.645 58.509C53.59 58.514 53.534 58.516 53.479 58.516L53.479 58.016C53.441 57.846 53.421 57.669 53.421 57.488L53.421 55.816C53.421 55.635 53.441 55.458 53.479 55.288L53.479 54.787C53.535 54.787 53.59 54.79 53.645 54.795M68.6 52.707L55.865 52.707C54.155 52.707 52.755 54.106 52.755 55.816L52.755 57.488C52.755 59.198 54.155 60.597 55.865 60.597L68.6 60.597C70.311 60.597 71.709 59.198 71.709 57.488L71.709 55.816C71.709 54.106 70.311 52.707 68.6 52.707" fill="#786e44"/><path d="M59.987 57.85C59.327 57.85 58.79 57.313 58.79 56.653C58.79 55.994 59.327 55.456 59.987 55.456L64.479 55.456C65.139 55.456 65.675 55.994 65.675 56.653C65.675 57.313 65.139 57.85 64.479 57.85L59.987 57.85M64.479 54.698L59.987 54.698C58.911 54.698 58.031 55.578 58.031 56.653C58.031 57.729 58.911 58.609 59.987 58.609L64.479 58.609C65.554 58.609 66.434 57.729 66.434 56.653C66.434 55.578 65.554 54.698 64.479 54.698" fill="#786e44"/><path d="M53.646 54.795C53.638 54.812 53.63 54.829 53.623 54.846C54.554 54.921 55.289 55.703 55.29 56.652C55.289 57.602 54.553 58.383 53.623 58.458C53.63 58.475 53.638 58.492 53.646 58.509C54.595 58.423 55.342 57.624 55.343 56.652C55.342 55.681 54.595 54.881 53.646 54.795" fill="#767071"/><path d="M53.729 55.365L53.729 55.419C54.301 55.537 54.737 56.048 54.738 56.652C54.737 57.257 54.301 57.767 53.729 57.885L53.729 57.939C54.331 57.82 54.79 57.287 54.791 56.652C54.79 56.018 54.33 55.484 53.729 55.365" fill="#786e44"/><path d="M53.623 54.847C53.561 54.989 53.513 55.138 53.479 55.293L53.479 55.394C53.564 55.394 53.648 55.403 53.729 55.42L53.729 55.366C54.33 55.484 54.789 56.019 54.79 56.653C54.789 57.287 54.33 57.821 53.729 57.939L53.729 57.885C53.648 57.902 53.564 57.911 53.479 57.911L53.479 58.012C53.513 58.167 53.561 58.316 53.623 58.458C54.553 58.384 55.289 57.602 55.29 56.653C55.289 55.703 54.554 54.922 53.623 54.847" fill="#786e44"/><path d="M53.645 54.795C53.637 54.812 53.629 54.829 53.622 54.846L53.623 54.846C53.63 54.829 53.638 54.812 53.646 54.795L53.645 54.795" fill="#494443"/><path d="M53.622 54.847C53.561 54.988 53.512 55.136 53.479 55.289L53.479 55.293C53.512 55.138 53.561 54.989 53.623 54.847L53.622 54.847" fill="#4a4330"/><path d="M53.623 58.458L53.622 58.458C53.63 58.475 53.637 58.492 53.645 58.509L53.646 58.509C53.638 58.492 53.63 58.475 53.623 58.458" fill="#494443"/><path d="M53.479 58.012L53.479 58.016C53.513 58.169 53.561 58.317 53.622 58.458L53.623 58.458C53.561 58.316 53.513 58.167 53.479 58.012" fill="#4a4330"/><path d="M53.479 58.016L53.479 58.517C53.535 58.516 53.59 58.514 53.645 58.509C53.637 58.492 53.63 58.475 53.622 58.458C53.561 58.317 53.513 58.169 53.479 58.016M53.479 54.788L53.479 55.289C53.513 55.136 53.561 54.988 53.622 54.847C53.63 54.829 53.638 54.812 53.645 54.795C53.591 54.79 53.535 54.788 53.479 54.788" fill="#4a4330"/><path d="M70.818 54.793C69.853 54.863 69.089 55.67 69.088 56.652C69.089 57.636 69.853 58.442 70.818 58.512C70.826 58.495 70.834 58.478 70.841 58.46C69.895 58.402 69.141 57.614 69.14 56.652C69.141 55.692 69.895 54.903 70.841 54.845C70.834 54.827 70.826 54.81 70.818 54.793" fill="#767071"/><path d="M70.702 55.365C70.102 55.484 69.641 56.018 69.641 56.652C69.641 57.287 70.1 57.82 70.702 57.939L70.702 57.885C70.13 57.767 69.695 57.257 69.693 56.652C69.695 56.048 70.13 55.537 70.702 55.419L70.702 55.365" fill="#786e44"/><path d="M70.842 54.845C69.896 54.903 69.142 55.692 69.141 56.653C69.142 57.614 69.896 58.402 70.842 58.461C70.886 58.36 70.923 58.256 70.952 58.15L70.952 57.964L70.952 58.15L70.952 57.911C70.867 57.911 70.784 57.902 70.702 57.886L70.702 57.94C70.101 57.821 69.642 57.288 69.641 56.653C69.642 56.019 70.102 55.485 70.702 55.366L70.702 55.42C70.784 55.403 70.867 55.394 70.952 55.394L70.952 55.156C70.923 55.049 70.886 54.945 70.842 54.845" fill="#786e44"/><path d="M70.842 58.46C70.834 58.477 70.827 58.494 70.819 58.511C70.827 58.494 70.835 58.477 70.842 58.46M70.819 54.793L70.819 54.793C70.827 54.81 70.834 54.827 70.842 54.844C70.834 54.827 70.827 54.81 70.819 54.793" fill="#494443"/><path d="M70.952 58.149C70.923 58.256 70.885 58.36 70.842 58.46C70.885 58.36 70.923 58.256 70.952 58.149L70.952 58.149M70.842 54.844L70.842 54.844C70.885 54.945 70.923 55.049 70.952 55.155C70.923 55.049 70.885 54.945 70.842 54.844" fill="#4a4330"/><path d="M70.952 58.149L70.952 58.149C70.923 58.256 70.885 58.36 70.842 58.46C70.835 58.477 70.826 58.494 70.818 58.511C70.863 58.515 70.908 58.516 70.952 58.516L70.952 58.149M70.952 54.788C70.908 54.788 70.863 54.789 70.818 54.793C70.826 54.81 70.835 54.827 70.842 54.844C70.885 54.944 70.923 55.048 70.952 55.155L70.952 54.788" fill="#4a4330"/><path d="M64.479 25.2L59.987 25.2C58.911 25.2 58.031 24.32 58.031 23.244C58.031 22.169 58.911 21.289 59.987 21.289L64.479 21.289C65.554 21.289 66.434 22.169 66.434 23.244C66.434 24.32 65.554 25.2 64.479 25.2" fill="#fff567"/><path d="M53.479 21.683C54.338 21.683 55.041 22.386 55.041 23.245C55.041 24.104 54.338 24.806 53.479 24.806L53.479 21.683" fill="#fff567"/><path d="M53.479 21.683L53.479 21.933C54.198 21.934 54.789 22.526 54.791 23.245C54.789 23.965 54.199 24.555 53.479 24.556L53.479 24.806L53.729 24.806L53.729 21.683L53.479 21.683L53.479 21.933L53.479 21.683L53.229 21.683L53.229 25.056L53.479 25.056C54.477 25.055 55.29 24.243 55.291 23.245C55.29 22.247 54.477 21.434 53.479 21.433L53.229 21.433L53.229 21.683L53.479 21.683" fill="#fff567"/><path d="M70.952 24.806C70.094 24.806 69.391 24.104 69.391 23.245C69.391 22.386 70.094 21.683 70.952 21.683L70.952 24.806" fill="#fff567"/><path d="M70.952 24.806L70.952 24.556C70.234 24.555 69.643 23.965 69.641 23.245C69.643 22.525 70.234 21.934 70.952 21.933L70.952 21.683L70.702 21.683L70.702 24.806L70.952 24.806L70.952 24.556L70.952 24.806L71.202 24.806L71.202 21.433L70.952 21.433C69.954 21.434 69.143 22.247 69.141 23.245C69.141 24.243 69.956 25.055 70.952 25.056L71.202 25.056L71.202 24.806L70.952 24.806" fill="#fff567"/><path d="M68.6 19.965C69.948 19.965 71.044 21.062 71.044 22.408L71.044 24.08C71.044 25.428 69.948 26.523 68.6 26.523L55.865 26.523C54.518 26.523 53.421 25.428 53.421 24.08L53.421 22.408C53.421 21.062 54.518 19.965 55.865 19.965L68.6 19.965M68.6 19.299L55.865 19.299C54.155 19.299 52.755 20.698 52.755 22.408L52.755 24.08C52.755 25.79 54.155 27.189 55.865 27.189L68.6 27.189C70.311 27.189 71.709 25.79 71.709 24.08L71.709 22.408C71.709 20.698 70.311 19.299 68.6 19.299" fill="#fff567"/><path d="M68.6 19.965L55.865 19.965C54.882 19.965 54.033 20.549 53.645 21.387L53.646 21.387C54.033 20.549 54.882 19.966 55.865 19.966L68.6 19.966C69.582 19.966 70.431 20.548 70.819 21.385C70.431 20.548 69.582 19.965 68.6 19.965" fill="#767071"/><path d="M53.479 21.881C53.441 22.051 53.422 22.228 53.422 22.409L53.422 24.081C53.422 24.262 53.441 24.438 53.479 24.608L53.479 24.604C53.442 24.435 53.423 24.26 53.423 24.081L53.423 22.409C53.423 22.229 53.442 22.054 53.479 21.885L53.479 21.881" fill="#786e44"/><path d="M53.646 25.101L53.645 25.101C54.033 25.94 54.882 26.524 55.865 26.524L68.6 26.524C69.582 26.524 70.431 25.941 70.819 25.104C70.431 25.941 69.582 26.524 68.6 26.524L55.865 26.524C54.882 26.524 54.033 25.94 53.646 25.101" fill="#767071"/><path d="M71.044 24.08C71.044 24.309 71.012 24.53 70.952 24.741C71.012 24.531 71.044 24.309 71.044 24.08M70.952 21.747L70.952 21.747C71.01 21.948 71.04 22.159 71.044 22.377C71.04 22.159 71.01 21.948 70.952 21.747" fill="#786e44"/><path d="M53.645 21.387C54.033 20.548 54.882 19.965 55.865 19.965L68.6 19.965C69.582 19.965 70.43 20.547 70.818 21.385C70.863 21.381 70.907 21.38 70.952 21.38L70.952 21.747C71.009 21.948 71.04 22.159 71.043 22.376C71.043 22.387 71.043 22.397 71.043 22.408L71.043 24.08C71.043 24.309 71.012 24.531 70.952 24.741L70.952 25.108C70.907 25.108 70.863 25.107 70.818 25.103C70.431 25.941 69.582 26.523 68.6 26.523L55.865 26.523C54.882 26.523 54.032 25.94 53.645 25.101C53.59 25.106 53.534 25.108 53.479 25.108L53.479 24.608C53.441 24.438 53.421 24.261 53.421 24.08L53.421 22.408C53.421 22.227 53.441 22.05 53.479 21.88L53.479 21.379C53.535 21.379 53.59 21.382 53.645 21.387M68.6 19.299L66.184 19.299C66.077 19.316 65.969 19.326 65.859 19.326L58.168 19.324C58.061 19.324 57.955 19.315 57.851 19.299L55.865 19.299C54.155 19.299 52.755 20.698 52.755 22.408L52.755 24.08C52.755 25.79 54.155 27.189 55.865 27.189L68.6 27.189C70.311 27.189 71.709 25.79 71.709 24.08L71.709 22.408C71.709 20.698 70.311 19.299 68.6 19.299" fill="#786e44"/><path d="M59.987 24.441C59.327 24.441 58.79 23.904 58.79 23.244C58.79 22.585 59.327 22.047 59.987 22.047L64.479 22.047C65.139 22.047 65.675 22.585 65.675 23.244C65.675 23.904 65.139 24.441 64.479 24.441L59.987 24.441M64.479 21.289L59.987 21.289C58.911 21.289 58.031 22.169 58.031 23.244C58.031 24.32 58.911 25.2 59.987 25.2L64.479 25.2C65.554 25.2 66.434 24.32 66.434 23.244C66.434 22.169 65.554 21.289 64.479 21.289" fill="#786e44"/><path d="M53.646 21.387C53.638 21.404 53.63 21.421 53.623 21.438C54.554 21.513 55.289 22.295 55.29 23.244C55.289 24.194 54.553 24.975 53.623 25.05C53.63 25.067 53.638 25.084 53.646 25.101C54.595 25.015 55.342 24.216 55.343 23.244C55.342 22.273 54.595 21.473 53.646 21.387" fill="#767071"/><path d="M53.729 21.957L53.729 22.011C54.301 22.129 54.737 22.64 54.738 23.244C54.737 23.849 54.301 24.359 53.729 24.477L53.729 24.531C54.331 24.412 54.79 23.879 54.791 23.244C54.79 22.61 54.33 22.076 53.729 21.957" fill="#786e44"/><path d="M53.623 21.438C53.561 21.58 53.513 21.729 53.479 21.884L53.479 21.985C53.564 21.985 53.648 21.994 53.729 22.011L53.729 21.957C54.33 22.076 54.789 22.61 54.79 23.244C54.789 23.878 54.33 24.412 53.729 24.531L53.729 24.477C53.648 24.493 53.564 24.502 53.479 24.502L53.479 24.603C53.512 24.758 53.561 24.907 53.623 25.049C54.553 24.975 55.289 24.194 55.29 23.244C55.289 22.295 54.554 21.513 53.623 21.438" fill="#786e44"/><path d="M53.645 21.387C53.637 21.404 53.63 21.421 53.622 21.438L53.623 21.438C53.63 21.421 53.638 21.404 53.646 21.387L53.645 21.387" fill="#494443"/><path d="M53.622 21.438C53.561 21.579 53.512 21.727 53.478 21.88L53.478 21.884C53.512 21.729 53.561 21.58 53.623 21.438L53.622 21.438" fill="#4a4330"/><path d="M53.623 25.05L53.622 25.05C53.63 25.067 53.637 25.084 53.645 25.101L53.646 25.101C53.638 25.084 53.63 25.067 53.623 25.05" fill="#494443"/><path d="M53.479 24.604L53.479 24.608C53.513 24.761 53.561 24.909 53.622 25.05L53.623 25.05C53.562 24.908 53.513 24.759 53.479 24.604" fill="#4a4330"/><path d="M53.479 24.608L53.479 25.109C53.535 25.108 53.59 25.106 53.645 25.101C53.637 25.084 53.63 25.067 53.622 25.05C53.561 24.909 53.513 24.761 53.479 24.608M53.479 21.38L53.479 21.881C53.513 21.727 53.561 21.579 53.623 21.438C53.63 21.421 53.638 21.404 53.645 21.387C53.591 21.382 53.535 21.38 53.479 21.38" fill="#4a4330"/><path d="M70.818 21.385C69.853 21.455 69.089 22.262 69.088 23.244C69.089 24.228 69.853 25.034 70.818 25.104C70.826 25.087 70.834 25.07 70.841 25.052C69.895 24.994 69.141 24.206 69.14 23.244C69.141 22.284 69.895 21.495 70.841 21.436C70.834 21.419 70.826 21.402 70.818 21.385" fill="#767071"/><path d="M70.702 21.957C70.102 22.076 69.641 22.61 69.641 23.244C69.641 23.879 70.1 24.412 70.702 24.531L70.702 24.477C70.13 24.359 69.695 23.849 69.693 23.244C69.695 22.64 70.13 22.129 70.702 22.011L70.702 21.957" fill="#786e44"/><path d="M70.842 21.436C69.896 21.495 69.142 22.284 69.141 23.244C69.142 24.205 69.896 24.994 70.842 25.052C70.886 24.952 70.923 24.848 70.952 24.741L70.952 24.556L70.952 24.741L70.952 24.503C70.867 24.503 70.784 24.494 70.702 24.477L70.702 24.531C70.101 24.412 69.642 23.879 69.641 23.244C69.642 22.61 70.102 22.076 70.702 21.957L70.702 22.011C70.784 21.994 70.867 21.986 70.952 21.985L70.952 21.747C70.923 21.64 70.886 21.536 70.842 21.436" fill="#786e44"/><path d="M70.842 25.052C70.834 25.069 70.827 25.086 70.819 25.103C70.819 25.103 70.819 25.104 70.819 25.104C70.827 25.086 70.835 25.069 70.842 25.052M70.819 21.385L70.819 21.385C70.827 21.402 70.834 21.419 70.842 21.436C70.834 21.419 70.827 21.402 70.819 21.385" fill="#494443"/><path d="M70.952 24.741C70.923 24.848 70.885 24.952 70.842 25.052C70.885 24.952 70.923 24.848 70.952 24.741L70.952 24.741M70.842 21.436L70.842 21.436C70.885 21.537 70.923 21.641 70.952 21.747C70.923 21.641 70.885 21.537 70.842 21.436" fill="#4a4330"/><path d="M70.952 24.741L70.952 24.741C70.923 24.848 70.885 24.951 70.842 25.052C70.835 25.069 70.826 25.086 70.818 25.103C70.863 25.106 70.908 25.108 70.952 25.108L70.952 24.741M70.952 21.38C70.908 21.38 70.863 21.381 70.818 21.384C70.826 21.401 70.835 21.418 70.842 21.436C70.885 21.536 70.923 21.64 70.952 21.747L70.952 21.38" fill="#4a4330"/><path d="M66.854 44.376L62.011 35.988L57.171 44.378C57.462 44.549 57.808 44.641 58.169 44.641L65.855 44.645C66.216 44.645 66.56 44.546 66.854 44.376" fill="#e6e7e8"/><path d="M62.011 35.987L66.854 44.375C67.154 44.202 67.406 43.957 67.587 43.644L71.437 36.98C71.612 36.671 71.705 36.325 71.7 35.981L62.017 35.983L62.011 35.987" fill="#e6e7e8"/><path d="M57.171 44.378L62.011 35.987L62.007 35.981L52.324 35.984C52.324 36.329 52.413 36.671 52.593 36.982L56.44 43.645C56.62 43.957 56.871 44.204 57.171 44.378" fill="#e6e7e8"/><path d="M62.017 35.984L71.7 35.982C71.706 35.632 71.617 35.291 71.44 34.986L67.593 28.323C67.414 28.01 67.157 27.766 66.857 27.592L62.017 35.984" fill="#e6e7e8"/></g><path d="M62.011 35.988L62.017 35.983L62.007 35.982L62.011 35.988" fill="#5b9ad3"/><g clip-path="url(#c2)"><path d="M62.017 35.984L66.857 27.592C66.556 27.421 66.216 27.324 65.861 27.322L58.164 27.324C57.802 27.325 57.464 27.419 57.165 27.592L62.007 35.982L62.017 35.984" fill="#e6e7e8"/><path d="M52.324 35.984L62.007 35.982L57.164 27.592C56.869 27.763 56.612 28.01 56.432 28.324L52.587 34.985C52.411 35.295 52.318 35.64 52.324 35.984" fill="#e6e7e8"/><path d="M52.325 35.89C52.307 36.266 52.395 36.647 52.591 36.985L56.436 43.645C56.626 43.974 56.902 44.236 57.226 44.409C57.208 44.399 57.189 44.389 57.171 44.378L57.504 43.8L57.171 44.378C56.871 44.204 56.62 43.957 56.44 43.645L52.593 36.982C52.413 36.671 52.324 36.329 52.324 35.984L52.99 35.983L52.324 35.984C52.324 35.952 52.324 35.921 52.325 35.89M71.685 35.715C71.696 35.803 71.701 35.892 71.699 35.981L71.036 35.981L71.699 35.981C71.705 36.325 71.612 36.671 71.437 36.98L67.587 43.645C67.405 43.957 67.154 44.202 66.854 44.376L66.522 43.801L66.854 44.376C66.559 44.546 66.216 44.644 65.855 44.644L58.169 44.64C57.914 44.64 57.666 44.595 57.44 44.508C57.669 44.597 57.915 44.644 58.168 44.644L65.859 44.647C66.573 44.644 67.233 44.264 67.591 43.646L71.436 36.985C71.661 36.595 71.744 36.148 71.685 35.715M66.567 27.455C66.667 27.493 66.763 27.539 66.856 27.593L66.523 28.17L66.856 27.593C66.942 27.643 67.025 27.698 67.104 27.76C66.942 27.631 66.76 27.528 66.567 27.455" fill="#767071"/><path d="M57.504 43.8L57.171 44.378C57.189 44.388 57.208 44.399 57.226 44.409C57.296 44.446 57.367 44.479 57.44 44.507C57.666 44.594 57.914 44.64 58.169 44.64L65.855 44.644C66.216 44.644 66.56 44.546 66.854 44.375L66.522 43.801C66.323 43.915 66.095 43.979 65.86 43.98L58.168 43.978C57.932 43.978 57.703 43.915 57.504 43.8" fill="#6f6a6a"/><path d="M71.7 35.981L71.037 35.981C71.038 36.213 70.978 36.445 70.859 36.652L67.015 43.312C66.895 43.518 66.724 43.686 66.523 43.801L66.854 44.376C67.155 44.202 67.406 43.957 67.588 43.644L71.437 36.98C71.613 36.671 71.706 36.325 71.7 35.981" fill="#6f6a6a"/><path d="M52.99 35.983L52.324 35.983C52.324 36.329 52.413 36.671 52.593 36.982L56.439 43.644C56.62 43.957 56.871 44.204 57.171 44.378L57.504 43.8C57.303 43.685 57.132 43.518 57.013 43.311L53.168 36.652C53.049 36.446 52.989 36.214 52.99 35.983" fill="#6f6a6a"/><path d="M66.857 27.593L66.524 28.17C66.724 28.286 66.895 28.453 67.014 28.659L70.859 35.319C70.977 35.524 71.036 35.753 71.037 35.982L71.7 35.981C71.701 35.892 71.697 35.803 71.686 35.715C71.651 35.462 71.568 35.214 71.436 34.985L67.591 28.325C67.464 28.104 67.298 27.914 67.104 27.76C67.026 27.698 66.943 27.643 66.857 27.593" fill="#6f6a6a"/><path d="M58.168 27.325C57.81 27.325 57.465 27.421 57.166 27.594L57.5 28.173C57.7 28.056 57.93 27.992 58.168 27.992L65.861 27.993C66.097 27.993 66.325 28.056 66.523 28.17L66.856 27.593C66.763 27.539 66.667 27.493 66.567 27.455C66.345 27.371 66.106 27.326 65.861 27.326L65.858 27.326L58.168 27.325" fill="#6f6a6a"/><path d="M57.166 27.594C56.868 27.766 56.614 28.016 56.436 28.325L52.591 34.987C52.429 35.267 52.34 35.577 52.325 35.89C52.324 35.921 52.324 35.952 52.324 35.983L52.99 35.983C52.991 35.754 53.051 35.525 53.169 35.321L57.013 28.659C57.132 28.454 57.301 28.288 57.5 28.172L57.166 27.594" fill="#6f6a6a"/><path d="M66.854 19.055L62.011 10.666L57.171 19.057C57.462 19.228 57.808 19.321 58.169 19.32L65.855 19.325C66.216 19.324 66.56 19.225 66.854 19.055" fill="#e6e7e8"/><path d="M62.011 10.666L66.854 19.055C67.154 18.882 67.406 18.637 67.587 18.324L71.437 11.659C71.612 11.35 71.705 11.004 71.7 10.661L62.017 10.662L62.011 10.666" fill="#e6e7e8"/><path d="M57.171 19.057L62.011 10.665L62.007 10.661L52.324 10.661C52.324 11.008 52.413 11.35 52.593 11.661L56.44 18.325C56.62 18.635 56.871 18.883 57.171 19.057" fill="#e6e7e8"/><path d="M62.017 10.662L71.7 10.661C71.706 10.31 71.617 9.97 71.44 9.664L67.593 3.001C67.414 2.69 67.157 2.445 66.857 2.271L62.017 10.662" fill="#e6e7e8"/></g><path d="M62.011 10.666L62.017 10.662L62.007 10.66L62.011 10.666" fill="#5b9ad3"/><g clip-path="url(#c3)"><path d="M62.017 10.662L66.857 2.271C66.556 2.099 66.216 2.003 65.861 2L58.164 2.002C57.802 2.003 57.464 2.098 57.165 2.271L62.007 10.66L62.017 10.662" fill="#e6e7e8"/><path d="M52.324 10.662L62.007 10.66L57.164 2.271C56.869 2.441 56.612 2.69 56.432 3.002L52.587 9.663C52.411 9.973 52.318 10.318 52.324 10.662" fill="#e6e7e8"/><path d="M52.325 10.572C52.307 10.948 52.396 11.327 52.591 11.665L56.436 18.325C56.739 18.851 57.262 19.205 57.851 19.299L57.874 19.299C57.621 19.264 57.382 19.181 57.171 19.057L57.504 18.48L57.171 19.057C56.871 18.884 56.62 18.636 56.44 18.325L52.593 11.661C52.413 11.35 52.324 11.009 52.324 10.662L52.99 10.662L52.324 10.662C52.324 10.632 52.324 10.602 52.325 10.572M71.686 10.397C71.696 10.484 71.701 10.572 71.699 10.662L71.036 10.662L71.699 10.662C71.705 11.004 71.612 11.35 71.437 11.66L67.587 18.325C67.405 18.637 67.154 18.882 66.854 19.055L66.522 18.481L66.854 19.055C66.645 19.175 66.413 19.26 66.166 19.299L66.183 19.299C66.769 19.202 67.288 18.849 67.591 18.327L71.436 11.665C71.661 11.275 71.744 10.829 71.686 10.397M66.699 2.19C66.752 2.215 66.805 2.242 66.856 2.272L66.523 2.849L66.856 2.272C66.938 2.32 67.017 2.372 67.092 2.431C66.971 2.335 66.839 2.255 66.699 2.19" fill="#767071"/><path d="M66.184 19.299L66.167 19.299C66.065 19.315 65.961 19.324 65.855 19.324L58.17 19.319L58.164 19.319C58.066 19.319 57.97 19.313 57.874 19.299L57.852 19.299C57.955 19.316 58.061 19.324 58.169 19.324L65.859 19.326C65.969 19.326 66.078 19.317 66.184 19.299" fill="#4a4330"/><path d="M57.504 18.479L57.171 19.056C57.382 19.18 57.621 19.263 57.874 19.299C57.969 19.312 58.066 19.319 58.164 19.319L58.169 19.319L65.855 19.324C65.96 19.324 66.064 19.315 66.166 19.299C66.413 19.259 66.646 19.175 66.854 19.055L66.522 18.481C66.323 18.595 66.095 18.659 65.86 18.659L58.168 18.657C57.932 18.657 57.703 18.594 57.504 18.479" fill="#6f6a6a"/><path d="M71.7 10.661L71.037 10.661C71.038 10.893 70.978 11.124 70.859 11.331L67.015 17.992C66.896 18.198 66.724 18.365 66.523 18.481L66.854 19.055C67.155 18.882 67.406 18.636 67.588 18.324L71.437 11.659C71.613 11.349 71.706 11.004 71.7 10.661" fill="#6f6a6a"/><path d="M52.99 10.662L52.324 10.662C52.324 11.009 52.413 11.35 52.593 11.661L56.439 18.324C56.62 18.636 56.871 18.884 57.171 19.057L57.504 18.479C57.303 18.364 57.132 18.197 57.013 17.99L53.168 11.331C53.049 11.125 52.989 10.893 52.99 10.662" fill="#6f6a6a"/><path d="M66.857 2.272L66.524 2.85C66.724 2.965 66.895 3.132 67.014 3.338L70.859 9.999C70.977 10.203 71.036 10.432 71.037 10.662L71.7 10.662C71.701 10.573 71.697 10.484 71.686 10.397C71.652 10.143 71.568 9.894 71.436 9.664L67.591 3.005C67.461 2.78 67.291 2.586 67.093 2.431C67.018 2.372 66.939 2.32 66.857 2.272" fill="#6f6a6a"/><path d="M58.168 2.005C57.81 2.005 57.465 2.1 57.165 2.274L57.499 2.852C57.699 2.735 57.93 2.671 58.168 2.671L65.861 2.672C66.097 2.672 66.325 2.735 66.523 2.849L66.856 2.271C66.805 2.242 66.752 2.215 66.699 2.19C66.441 2.07 66.156 2.006 65.861 2.006L65.858 2.006L58.168 2.005" fill="#6f6a6a"/><path d="M57.166 2.274C56.868 2.446 56.614 2.696 56.436 3.005L52.592 9.667C52.429 9.948 52.34 10.258 52.326 10.572C52.325 10.602 52.324 10.632 52.325 10.662L52.991 10.662C52.991 10.433 53.051 10.204 53.17 10L57.013 3.338C57.132 3.134 57.301 2.967 57.5 2.852L57.166 2.274" fill="#6f6a6a"/><path d="M16.548 44.296L11.704 35.907L6.864 44.298C7.155 44.469 7.501 44.562 7.863 44.561L15.548 44.566C15.91 44.565 16.253 44.467 16.548 44.296" fill="#e6e7e8"/><path d="M11.704 35.908L16.548 44.297C16.848 44.124 17.098 43.879 17.28 43.566L21.13 36.901C21.305 36.593 21.398 36.246 21.392 35.903L11.71 35.905L11.704 35.908" fill="#e6e7e8"/><path d="M11.71 35.905L21.393 35.903C21.399 35.553 21.31 35.212 21.133 34.906L17.286 28.244C17.107 27.931 16.85 27.687 16.55 27.514L11.71 35.905" fill="#e6e7e8"/><path d="M6.134 43.566C6.314 43.878 6.565 44.125 6.864 44.298L11.704 35.908L11.701 35.902L2.018 35.904C2.018 36.251 2.107 36.591 2.287 36.903L6.134 43.566" fill="#e6e7e8"/></g><path d="M11.704 35.907L11.709 35.904L11.701 35.902L11.704 35.907" fill="#5b9ad3"/><g clip-path="url(#c4)"><path d="M2.018 35.904L11.702 35.902L6.858 27.513C6.563 27.683 6.306 27.931 6.125 28.245L2.281 34.906C2.105 35.214 2.012 35.561 2.018 35.904" fill="#e6e7e8"/><path d="M6.858 27.513L11.702 35.902L11.71 35.905L16.55 27.514C16.251 27.34 15.91 27.244 15.554 27.242L7.857 27.244C7.496 27.244 7.158 27.34 6.858 27.513" fill="#e6e7e8"/><path d="M21.371 35.581C21.387 35.687 21.394 35.795 21.393 35.903L20.73 35.903L21.393 35.903C21.399 36.246 21.306 36.592 21.13 36.901L17.28 43.566C17.099 43.878 16.848 44.124 16.548 44.296L16.216 43.722L16.548 44.296C16.253 44.467 15.909 44.565 15.548 44.566L7.862 44.561L7.857 44.561C7.498 44.561 7.154 44.469 6.864 44.298L7.197 43.721L6.864 44.298C6.565 44.125 6.314 43.878 6.134 43.566L2.287 36.903C2.107 36.591 2.018 36.251 2.018 35.904L2.684 35.904L2.018 35.904C2.017 35.872 2.017 35.84 2.019 35.808C2 36.186 2.088 36.568 2.284 36.907L6.129 43.566C6.487 44.185 7.146 44.566 7.862 44.566L15.552 44.568C16.267 44.566 16.927 44.185 17.284 43.568L21.129 36.907C21.365 36.499 21.445 36.03 21.371 35.581M16.354 27.414C16.421 27.444 16.487 27.477 16.55 27.514L16.217 28.092L16.55 27.514C16.636 27.564 16.718 27.619 16.796 27.68C16.661 27.573 16.512 27.484 16.354 27.414" fill="#767071"/><path d="M7.197 43.721L6.864 44.298C7.154 44.468 7.497 44.561 7.857 44.561L7.862 44.561L15.548 44.566C15.909 44.565 16.253 44.467 16.548 44.296L16.216 43.722C16.017 43.836 15.788 43.9 15.552 43.901L7.862 43.899C7.625 43.899 7.396 43.836 7.197 43.721" fill="#6f6a6a"/><path d="M21.393 35.903L20.73 35.903C20.731 36.135 20.672 36.367 20.552 36.574L16.708 43.234C16.589 43.44 16.418 43.607 16.217 43.723L16.548 44.297C16.848 44.124 17.099 43.879 17.281 43.566L21.13 36.901C21.306 36.593 21.399 36.246 21.393 35.903" fill="#6f6a6a"/><path d="M16.55 27.514L16.217 28.092C16.417 28.207 16.588 28.373 16.707 28.579L20.552 35.24C20.67 35.444 20.729 35.673 20.73 35.903L21.393 35.903C21.395 35.794 21.387 35.687 21.371 35.581C21.332 35.347 21.252 35.118 21.129 34.907L17.284 28.246C17.157 28.025 16.99 27.834 16.796 27.68C16.718 27.619 16.636 27.564 16.55 27.514" fill="#6f6a6a"/><path d="M2.684 35.904L2.018 35.904C2.018 36.251 2.107 36.591 2.287 36.903L6.134 43.566C6.314 43.878 6.565 44.126 6.864 44.299L7.197 43.721C6.997 43.606 6.826 43.439 6.707 43.233L2.862 36.574C2.743 36.367 2.684 36.135 2.684 35.904" fill="#6f6a6a"/><path d="M6.859 27.516C6.561 27.689 6.307 27.938 6.129 28.247L2.284 34.909C2.123 35.188 2.034 35.497 2.019 35.808C2.017 35.84 2.017 35.872 2.018 35.904L2.684 35.904C2.684 35.675 2.744 35.446 2.862 35.242L6.707 28.58C6.825 28.375 6.994 28.209 7.193 28.094L6.859 27.516" fill="#6f6a6a"/><path d="M7.863 27.247C7.504 27.247 7.159 27.343 6.86 27.516L7.193 28.094C7.394 27.977 7.624 27.913 7.863 27.913L15.555 27.915C15.791 27.915 16.019 27.978 16.217 28.092L16.549 27.514C16.487 27.478 16.422 27.444 16.354 27.415C16.107 27.306 15.835 27.248 15.555 27.248L15.552 27.248L7.863 27.247" fill="#6f6a6a"/><path d="M114.358 37.86L109.865 37.86C108.79 37.86 107.91 36.98 107.91 35.904C107.91 34.829 108.79 33.949 109.865 33.949L114.358 33.949C115.433 33.949 116.313 34.829 116.313 35.904C116.313 36.98 115.433 37.86 114.358 37.86" fill="#fff567"/><path d="M103.357 34.344C104.216 34.344 104.918 35.046 104.918 35.905C104.918 36.764 104.216 37.466 103.357 37.466L103.357 34.344" fill="#fff567"/><path d="M103.357 34.344L103.357 34.594C104.077 34.595 104.667 35.185 104.668 35.905C104.667 36.625 104.077 37.215 103.357 37.216L103.357 37.466L103.607 37.466L103.607 34.344L103.357 34.344L103.357 34.594L103.357 34.344L103.107 34.344L103.107 37.716L103.357 37.716C104.355 37.715 105.167 36.903 105.168 35.905C105.167 34.907 104.355 34.095 103.357 34.094L103.107 34.094L103.107 34.344L103.357 34.344" fill="#fff567"/><path d="M120.832 37.466C119.974 37.466 119.271 36.764 119.271 35.905C119.271 35.046 119.974 34.344 120.832 34.344L120.832 37.466" fill="#fff567"/><path d="M120.832 37.466L120.832 37.216C120.113 37.215 119.522 36.624 119.521 35.905C119.522 35.185 120.113 34.595 120.832 34.594L120.832 34.344L120.582 34.344L120.582 37.466L120.832 37.466L120.832 37.216L120.832 37.466L121.082 37.466L121.082 34.094L120.832 34.094C119.835 34.095 119.022 34.907 119.021 35.905C119.022 36.903 119.835 37.715 120.832 37.716L121.082 37.716L121.082 37.466L120.832 37.466" fill="#fff567"/><path d="M118.479 32.626C119.827 32.626 120.922 33.722 120.922 35.068L120.922 36.74C120.922 38.088 119.827 39.184 118.479 39.184L105.744 39.184C104.396 39.184 103.3 38.088 103.3 36.74L103.3 35.068C103.3 33.722 104.396 32.626 105.744 32.626L118.479 32.626M118.479 31.96L105.744 31.96C104.034 31.96 102.635 33.358 102.635 35.068L102.635 36.74C102.635 38.451 104.034 39.849 105.744 39.849L118.479 39.849C120.189 39.849 121.589 38.451 121.589 36.74L121.589 35.068C121.589 33.358 120.189 31.96 118.479 31.96" fill="#fff567"/><path d="M105.744 32.626C104.76 32.626 103.911 33.209 103.524 34.048L103.525 34.048C103.912 33.21 104.761 32.626 105.744 32.626M118.479 32.626C119.461 32.626 120.309 33.208 120.697 34.046L120.698 34.046C120.31 33.208 119.462 32.626 118.479 32.626" fill="#767071"/><path d="M120.832 34.407L120.832 34.41C120.891 34.62 120.922 34.84 120.922 35.068L120.922 36.74C120.922 36.968 120.891 37.188 120.832 37.398L120.832 37.401C120.891 37.191 120.923 36.969 120.923 36.74L120.923 35.068C120.923 34.839 120.891 34.617 120.832 34.407" fill="#786e44"/><path d="M103.357 34.544C103.32 34.713 103.3 34.888 103.3 35.069L103.3 36.741C103.3 36.921 103.32 37.096 103.357 37.266L103.357 37.261C103.32 37.094 103.301 36.919 103.301 36.741L103.301 35.069C103.301 34.89 103.32 34.716 103.357 34.548L103.357 34.544" fill="#786e44"/><path d="M103.525 37.761L103.524 37.761C103.911 38.6 104.761 39.183 105.744 39.183L118.479 39.183C119.462 39.183 120.31 38.601 120.698 37.764C120.698 37.763 120.697 37.763 120.697 37.763C120.309 38.601 119.461 39.183 118.479 39.183L105.744 39.183C104.761 39.183 103.912 38.6 103.525 37.761" fill="#767071"/><path d="M105.744 32.626L105.744 32.626L118.479 32.626C119.462 32.626 120.31 33.208 120.698 34.046C120.742 34.042 120.787 34.041 120.832 34.041L120.832 34.407C120.891 34.618 120.923 34.839 120.923 35.068L120.923 36.74C120.923 36.969 120.891 37.191 120.832 37.401L120.832 37.769C120.787 37.768 120.742 37.767 120.698 37.764C120.31 38.601 119.462 39.184 118.479 39.184L105.744 39.184C104.761 39.184 103.911 38.6 103.524 37.761C103.469 37.766 103.414 37.769 103.357 37.769L103.357 37.265C103.32 37.096 103.301 36.92 103.301 36.74L103.301 35.068C103.301 34.888 103.32 34.713 103.357 34.544L103.357 34.041C103.413 34.041 103.469 34.043 103.524 34.048C103.911 33.209 104.76 32.626 105.744 32.626M118.479 31.96L105.744 31.96C104.034 31.96 102.635 33.358 102.635 35.068L102.635 36.74C102.635 38.451 104.034 39.849 105.744 39.849L118.479 39.849C120.189 39.849 121.589 38.451 121.589 36.74L121.589 35.068C121.589 33.358 120.189 31.96 118.479 31.96" fill="#786e44"/><path d="M109.865 37.102C109.206 37.102 108.669 36.565 108.669 35.905C108.669 35.246 109.206 34.708 109.865 34.708L114.358 34.708C115.017 34.708 115.555 35.246 115.555 35.905C115.555 36.565 115.017 37.102 114.358 37.102L109.865 37.102M114.358 33.95L109.865 33.95C108.79 33.95 107.91 34.83 107.91 35.905C107.91 36.981 108.79 37.861 109.865 37.861L114.358 37.861C115.433 37.861 116.313 36.981 116.313 35.905C116.313 34.83 115.433 33.95 114.358 33.95" fill="#786e44"/><path d="M103.525 34.048C103.517 34.065 103.51 34.082 103.502 34.099C104.433 34.174 105.168 34.955 105.169 35.904C105.168 36.854 104.433 37.635 103.502 37.709C103.51 37.727 103.517 37.744 103.525 37.761C104.475 37.675 105.221 36.875 105.222 35.904C105.221 34.933 104.475 34.134 103.525 34.048" fill="#767071"/><path d="M103.607 34.618L103.607 34.672C104.18 34.79 104.615 35.3 104.616 35.904C104.615 36.51 104.18 37.019 103.607 37.137L103.607 37.191C104.209 37.073 104.667 36.539 104.669 35.904C104.667 35.27 104.209 34.737 103.607 34.618" fill="#786e44"/><path d="M103.502 34.1C103.44 34.243 103.391 34.393 103.357 34.548L103.357 34.647C103.443 34.647 103.526 34.656 103.607 34.673L103.607 34.619C104.209 34.737 104.667 35.271 104.669 35.905C104.667 36.54 104.209 37.073 103.607 37.192L103.607 37.138C103.526 37.154 103.443 37.163 103.357 37.163L103.357 37.262C103.391 37.417 103.44 37.567 103.502 37.71C104.433 37.636 105.168 36.855 105.169 35.905C105.168 34.956 104.433 34.175 103.502 34.1" fill="#786e44"/><path d="M103.524 34.048C103.516 34.065 103.508 34.082 103.501 34.099L103.502 34.099C103.509 34.082 103.517 34.065 103.525 34.048L103.524 34.048" fill="#494443"/><path d="M103.501 34.1C103.439 34.242 103.391 34.39 103.357 34.544L103.357 34.548C103.391 34.393 103.44 34.243 103.502 34.1L103.501 34.1" fill="#4a4330"/><path d="M103.502 37.71L103.501 37.71C103.509 37.727 103.516 37.744 103.524 37.761L103.525 37.761C103.517 37.744 103.51 37.727 103.502 37.71" fill="#494443"/><path d="M103.357 37.261L103.357 37.265C103.391 37.419 103.439 37.568 103.501 37.71L103.502 37.71C103.44 37.567 103.391 37.417 103.357 37.261" fill="#4a4330"/><path d="M103.357 37.265L103.357 37.769C103.413 37.769 103.469 37.766 103.524 37.761C103.516 37.744 103.508 37.727 103.501 37.71C103.439 37.568 103.391 37.419 103.357 37.265M103.357 34.041L103.357 34.543C103.391 34.39 103.439 34.241 103.501 34.099C103.508 34.082 103.516 34.065 103.524 34.048C103.469 34.043 103.413 34.041 103.357 34.041" fill="#4a4330"/><path d="M120.697 34.046C119.733 34.116 118.968 34.922 118.967 35.905C118.968 36.887 119.733 37.694 120.697 37.764C120.705 37.747 120.713 37.73 120.72 37.713C119.774 37.654 119.021 36.866 119.02 35.905C119.021 34.944 119.774 34.156 120.72 34.097C120.713 34.08 120.705 34.063 120.697 34.046" fill="#767071"/><path d="M120.582 34.618C119.981 34.737 119.522 35.27 119.521 35.904C119.522 36.539 119.981 37.072 120.582 37.191L120.582 37.137C120.01 37.019 119.575 36.509 119.574 35.904C119.575 35.3 120.01 34.79 120.582 34.672L120.582 34.618" fill="#786e44"/><path d="M120.72 34.097C119.774 34.156 119.021 34.944 119.02 35.904C119.021 36.865 119.774 37.653 120.72 37.712C120.764 37.611 120.801 37.506 120.832 37.398L120.832 37.216L120.832 37.398L120.832 37.163C120.746 37.163 120.663 37.154 120.582 37.137L120.582 37.191C119.98 37.072 119.521 36.539 119.52 35.904C119.521 35.27 119.98 34.737 120.582 34.618L120.582 34.672C120.663 34.655 120.746 34.647 120.832 34.646L120.832 34.411C120.801 34.303 120.764 34.198 120.72 34.097" fill="#786e44"/><path d="M120.698 34.046L120.697 34.046C120.705 34.063 120.713 34.08 120.72 34.098L120.721 34.098C120.714 34.08 120.706 34.063 120.698 34.046" fill="#494443"/><path d="M120.721 34.097L120.72 34.097C120.764 34.198 120.801 34.303 120.832 34.411L120.832 34.407C120.802 34.301 120.765 34.197 120.721 34.097" fill="#4a4330"/><path d="M120.72 37.712C120.712 37.729 120.705 37.746 120.697 37.763L120.698 37.764C120.706 37.746 120.713 37.729 120.721 37.712L120.72 37.712" fill="#494443"/><path d="M120.832 37.398C120.802 37.506 120.764 37.611 120.72 37.712L120.721 37.712C120.765 37.612 120.802 37.508 120.832 37.401L120.832 37.398L120.832 37.398L120.832 37.401L120.832 37.398" fill="#4a4330"/><path d="M120.832 37.402L120.832 37.402C120.802 37.508 120.765 37.612 120.721 37.713C120.714 37.73 120.706 37.747 120.698 37.764C120.742 37.767 120.787 37.769 120.832 37.769L120.832 37.402M120.832 34.041C120.787 34.041 120.742 34.043 120.698 34.046C120.706 34.062 120.714 34.079 120.721 34.098C120.765 34.198 120.802 34.301 120.832 34.408L120.832 34.041" fill="#4a4330"/></g><g clip-path="url(#c5)"></g></svg>