<svg xmlns="http://www.w3.org/2000/svg" width="152.4" height="46.5" viewBox="0 0 109.501 33.395" preserveAspectRatio="xMidYMid meet" role="img"><defs><clipPath id="c1"><path d="M-284.598 -91.605H183.402V196.395H-284.598Z"/></clipPath><clipPath id="c2"><path d="M-284.598 -91.605H183.402V196.395H-284.598Z"/></clipPath><clipPath id="c3"><path d="M-284.598 -91.605H183.402V196.395H-284.598Z"/></clipPath><clipPath id="c4"><path d="M-284.598 -91.605H183.402V196.395H-284.598Z"/></clipPath><clipPath id="c5"><path d="M-284.598 -91.605H183.402V196.395H-284.598Z"/></clipPath><clipPath id="c6"><path d="M-284.598 -91.605H183.402V196.395H-284.598Z"/></clipPath><clipPath id="c7"><path d="M-55.846 181.995H-45.35V192.291H-55.846Z"/></clipPath></defs><g clip-path="url(#c1)"><path d="M53.419 2.265L53.416 2.271L48.572 10.661L43.732 2.27C44.027 2.093 44.373 2 44.731 2.007L52.416 2.002C52.778 2.003 53.124 2.095 53.419 2.265" fill="#f9f49b"/><path d="M53.416 2.271L53.419 2.265C53.72 2.439 53.967 2.69 54.149 3.002L57.999 9.667C58.174 9.976 58.267 10.323 58.262 10.666L48.578 10.663L48.573 10.661L53.416 2.271" fill="#864c9e"/><path d="M43.733 2.27L48.573 10.661L48.57 10.666L38.886 10.665C38.886 10.318 38.979 9.971 39.155 9.665L43.002 3.002C43.179 2.696 43.433 2.443 43.733 2.27" fill="#f9f49b"/><path d="M48.578 10.663L58.261 10.665C58.267 11.015 58.178 11.356 58.001 11.662L54.154 18.324C53.978 18.631 53.718 18.881 53.417 19.054L48.578 10.663" fill="#f9f49b"/></g><path d="M48.569 10.667L48.578 10.664L48.573 10.661L48.569 10.667" fill="#5b9ad3"/><g clip-path="url(#c2)"><path d="M48.578 10.663L53.417 19.054C53.118 19.227 52.777 19.323 52.422 19.325L44.725 19.323C44.367 19.318 44.026 19.228 43.726 19.055L48.569 10.666L48.578 10.663" fill="#f9f49b"/><path d="M38.886 10.664L48.569 10.666L43.726 19.055C43.431 18.885 43.178 18.631 42.993 18.323L39.154 11.666C38.973 11.353 38.88 11.007 38.886 10.664" fill="#f26539"/><path d="M44.123 19.229C44.262 19.273 44.406 19.302 44.554 19.315C44.406 19.301 44.262 19.272 44.123 19.229M53.53 18.985C53.493 19.009 53.455 19.032 53.417 19.054C53.354 19.091 53.289 19.124 53.222 19.153C53.33 19.106 53.432 19.05 53.53 18.985M43.095 18.479C43.193 18.618 43.308 18.742 43.436 18.85C43.309 18.742 43.195 18.617 43.095 18.479M58.253 10.464C58.259 10.531 58.262 10.599 58.261 10.666C58.262 10.703 58.261 10.741 58.259 10.778C58.266 10.673 58.263 10.568 58.253 10.464M53.95 2.717C54.023 2.805 54.089 2.901 54.148 3.002L56.402 6.904L54.15 3.002C54.091 2.9 54.024 2.805 53.95 2.717M43.887 2.187C43.519 2.358 43.204 2.639 42.994 3.002L39.15 9.663C38.792 10.281 38.793 11.045 39.15 11.663L40.756 14.445L39.154 11.667C38.972 11.353 38.88 11.007 38.885 10.665C38.885 10.318 38.978 9.971 39.155 9.665L43.001 3.002C43.178 2.696 43.432 2.443 43.732 2.27C43.782 2.24 43.834 2.212 43.887 2.187M52.418 2.002L44.727 2.002C44.579 2.002 44.434 2.018 44.293 2.049C44.423 2.021 44.557 2.007 44.694 2.007C44.706 2.007 44.718 2.007 44.731 2.007L52.416 2.003C52.545 2.003 52.673 2.015 52.798 2.038C52.674 2.014 52.547 2.002 52.418 2.002" fill="#767071"/><path d="M52.416 2.002L44.731 2.007C44.719 2.006 44.706 2.006 44.694 2.006C44.558 2.006 44.424 2.021 44.294 2.049C44.153 2.08 44.017 2.126 43.888 2.186C43.835 2.211 43.783 2.239 43.733 2.269L44.065 2.845C44.264 2.731 44.491 2.668 44.727 2.668L52.418 2.668C52.655 2.668 52.884 2.732 53.083 2.847L53.416 2.27L53.417 2.269C53.226 2.159 53.017 2.08 52.798 2.037C52.674 2.014 52.546 2.002 52.416 2.002" fill="#766e57"/><path d="M53.417 2.269L53.416 2.271L53.083 2.847C53.283 2.962 53.454 3.129 53.573 3.335L57.418 9.995C57.538 10.202 57.597 10.434 57.597 10.665L58.262 10.665C58.263 10.598 58.26 10.53 58.254 10.463C58.226 10.185 58.14 9.912 57.995 9.662L56.403 6.903L54.149 3.002C54.09 2.9 54.024 2.805 53.951 2.717C53.799 2.536 53.618 2.385 53.417 2.269" fill="#563157"/><path d="M43.733 2.27C43.433 2.443 43.179 2.696 43.002 3.002L39.155 9.665C38.979 9.971 38.886 10.318 38.886 10.665L39.549 10.665C39.549 10.433 39.608 10.202 39.728 9.996L43.572 3.336C43.692 3.129 43.864 2.961 44.065 2.846L43.733 2.27" fill="#766e57"/><path d="M57.596 10.665C57.595 10.894 57.536 11.123 57.417 11.328L53.572 17.988C53.453 18.194 53.283 18.361 53.084 18.476L53.417 19.054C53.455 19.032 53.493 19.008 53.53 18.984C53.78 18.816 53.994 18.592 54.15 18.321L57.995 11.662C58.153 11.388 58.242 11.084 58.259 10.777C58.261 10.74 58.262 10.703 58.261 10.665L57.596 10.665" fill="#766e57"/><path d="M44.06 18.476L43.726 19.054C43.852 19.126 43.985 19.185 44.123 19.229C44.262 19.272 44.406 19.3 44.554 19.314C44.611 19.319 44.669 19.322 44.727 19.322L52.418 19.322C52.7 19.322 52.973 19.262 53.223 19.153C53.289 19.123 53.354 19.09 53.418 19.054L53.084 18.476C52.885 18.591 52.656 18.655 52.418 18.655L44.727 18.655C44.489 18.655 44.26 18.591 44.06 18.476" fill="#766e57"/><path d="M38.886 10.664C38.88 11.007 38.973 11.353 39.154 11.666L40.756 14.444L42.995 18.321C43.026 18.375 43.06 18.428 43.095 18.478C43.195 18.617 43.31 18.742 43.436 18.85C43.527 18.926 43.624 18.994 43.727 19.054L44.06 18.476C43.86 18.36 43.691 18.194 43.572 17.988L39.727 11.328C39.609 11.123 39.55 10.894 39.549 10.664L38.886 10.664" fill="#783f29"/><path d="M70.047 11.866L70.044 11.872L65.199 20.26L60.361 11.87C60.655 11.693 61.001 11.6 61.359 11.607L69.044 11.602C69.406 11.603 69.753 11.696 70.047 11.866" fill="#f26539"/><path d="M70.044 11.871L70.047 11.865C70.347 12.038 70.595 12.289 70.777 12.602L74.627 19.267C74.802 19.576 74.895 19.922 74.889 20.265L65.206 20.263L65.2 20.26L70.044 11.871" fill="#f26539"/><path d="M60.36 11.87L65.199 20.26L65.196 20.266L55.513 20.264C55.513 19.918 55.606 19.571 55.782 19.265L59.629 12.602C59.805 12.297 60.06 12.043 60.36 11.87" fill="#f26539"/><path d="M65.206 20.263L74.889 20.265C74.895 20.614 74.806 20.956 74.629 21.262L70.783 27.925C70.606 28.231 70.346 28.481 70.046 28.654L65.206 20.263" fill="#f26539"/></g><path d="M65.197 20.266L65.206 20.263L65.201 20.261L65.197 20.266" fill="#5b9ad3"/><g clip-path="url(#c3)"><path d="M65.206 20.263L70.046 28.654C69.745 28.827 69.405 28.923 69.05 28.926L61.353 28.924C60.995 28.917 60.654 28.828 60.354 28.654L65.197 20.266L65.206 20.263" fill="#f9f49b"/><path d="M55.513 20.264L65.196 20.266L60.353 28.655C60.058 28.485 59.805 28.231 59.62 27.924L55.781 21.266C55.6 20.954 55.508 20.608 55.513 20.264" fill="#f26539"/><path d="M60.368 28.663C60.663 28.83 61.001 28.923 61.352 28.924C61 28.917 60.664 28.831 60.368 28.663M70.27 28.503C70.198 28.559 70.123 28.609 70.045 28.654C69.967 28.699 69.887 28.739 69.804 28.773C69.971 28.705 70.128 28.614 70.27 28.503M59.681 28.018C59.834 28.252 60.033 28.449 60.262 28.598C60.036 28.45 59.837 28.252 59.681 28.018M74.882 20.082C74.887 20.142 74.889 20.204 74.888 20.265C74.889 20.301 74.889 20.338 74.887 20.375C74.893 20.277 74.891 20.179 74.882 20.082M70.572 12.309C70.647 12.399 70.715 12.497 70.776 12.602L73.128 16.673L70.777 12.601C70.717 12.496 70.648 12.399 70.572 12.309M60.443 11.822C60.106 11.995 59.818 12.262 59.622 12.603L55.777 19.263C55.42 19.88 55.42 20.645 55.777 21.262L57.818 24.798L55.781 21.265C55.6 20.953 55.508 20.607 55.513 20.263C55.513 19.917 55.606 19.57 55.783 19.264L59.629 12.602C59.806 12.296 60.06 12.042 60.36 11.869C60.387 11.853 60.415 11.837 60.443 11.822M69.046 11.6L61.355 11.603C61.288 11.603 61.222 11.607 61.157 11.613C61.212 11.608 61.267 11.606 61.323 11.606C61.334 11.606 61.346 11.606 61.358 11.606L69.044 11.601C69.15 11.602 69.255 11.61 69.357 11.626C69.255 11.609 69.151 11.601 69.046 11.6" fill="#767071"/><path d="M69.044 11.602L61.358 11.607C61.346 11.607 61.335 11.606 61.323 11.606C61.267 11.606 61.212 11.609 61.157 11.614C60.905 11.638 60.664 11.71 60.444 11.823C60.415 11.838 60.388 11.853 60.36 11.87L60.693 12.446C60.891 12.333 61.119 12.27 61.355 12.27L69.044 12.268C69.282 12.269 69.511 12.333 69.711 12.448L70.043 11.872L70.044 11.87C69.834 11.748 69.601 11.665 69.358 11.626C69.255 11.611 69.15 11.602 69.044 11.602" fill="#783f29"/><path d="M70.044 11.87L70.043 11.872L69.71 12.448C69.911 12.563 70.081 12.73 70.199 12.935L74.046 19.599C74.164 19.804 74.223 20.034 74.223 20.265L74.888 20.265C74.889 20.204 74.887 20.143 74.883 20.082C74.857 19.798 74.771 19.519 74.622 19.263L73.128 16.674L70.776 12.602C70.715 12.498 70.647 12.4 70.573 12.31C70.422 12.133 70.242 11.984 70.044 11.87" fill="#783f29"/><path d="M60.36 11.87C60.06 12.043 59.805 12.297 59.629 12.602L55.782 19.265C55.606 19.571 55.513 19.918 55.513 20.264L56.176 20.265C56.176 20.034 56.235 19.804 56.355 19.597L60.2 12.936C60.319 12.729 60.491 12.562 60.693 12.446L60.36 11.87" fill="#783f29"/><path d="M74.224 20.265C74.224 20.495 74.164 20.725 74.046 20.93L70.201 27.59C70.082 27.796 69.911 27.962 69.713 28.077L70.046 28.655C70.124 28.61 70.199 28.559 70.271 28.504C70.473 28.348 70.646 28.152 70.777 27.924L74.622 21.263C74.782 20.987 74.871 20.682 74.888 20.375C74.889 20.339 74.889 20.302 74.889 20.265L74.224 20.265" fill="#783f29"/><path d="M60.687 28.077L60.353 28.655C60.358 28.658 60.363 28.661 60.369 28.664C60.665 28.832 61 28.918 61.352 28.924L61.355 28.924L69.046 28.921L69.052 28.921C69.314 28.921 69.569 28.87 69.804 28.773C69.887 28.739 69.968 28.7 70.046 28.655L69.712 28.077C69.513 28.192 69.284 28.255 69.046 28.255L61.355 28.258C61.117 28.258 60.887 28.193 60.687 28.077" fill="#766e57"/><path d="M55.513 20.264C55.508 20.608 55.6 20.954 55.781 21.266L57.818 24.799L59.622 27.924C59.641 27.956 59.66 27.988 59.68 28.019C59.837 28.252 60.036 28.451 60.262 28.599C60.292 28.618 60.322 28.637 60.353 28.655L60.686 28.077C60.487 27.962 60.318 27.795 60.2 27.59L56.354 20.927C56.235 20.723 56.176 20.493 56.176 20.264L55.513 20.264" fill="#783f29"/><path d="M36.792 11.866L36.789 11.872L31.944 20.26L27.105 11.87C27.4 11.693 27.746 11.6 28.104 11.607L35.789 11.602C36.151 11.603 36.496 11.696 36.792 11.866" fill="#f26539"/><path d="M36.788 11.871L36.791 11.865C37.091 12.038 37.339 12.289 37.52 12.602L41.371 19.267C41.546 19.576 41.639 19.922 41.633 20.265L31.95 20.263L31.945 20.26L36.788 11.871" fill="#f26539"/><path d="M27.105 11.87L31.945 20.26L31.941 20.266L22.258 20.264C22.258 19.918 22.351 19.571 22.527 19.265L26.374 12.602C26.55 12.297 26.805 12.043 27.105 11.87" fill="#f26539"/><path d="M31.95 20.263L41.633 20.265C41.639 20.614 41.55 20.956 41.373 21.262L37.527 27.925C37.35 28.231 37.09 28.481 36.79 28.654L31.95 20.263" fill="#f26539"/></g><path d="M31.942 20.266L31.951 20.263L31.946 20.261L31.942 20.266" fill="#5b9ad3"/><g clip-path="url(#c4)"><path d="M31.95 20.263L36.79 28.654C36.49 28.827 36.15 28.923 35.794 28.926L28.097 28.924C27.739 28.917 27.398 28.828 27.098 28.654L31.941 20.266L31.95 20.263" fill="#f9f49b"/><path d="M22.258 20.264L31.941 20.266L27.098 28.655C26.803 28.485 26.549 28.231 26.365 27.924L22.526 21.266C22.345 20.954 22.252 20.608 22.258 20.264" fill="#f26539"/><path d="M37.018 28.502C36.945 28.558 36.869 28.609 36.79 28.654C36.725 28.692 36.657 28.727 36.587 28.757C36.741 28.69 36.886 28.605 37.018 28.502M26.426 28.018C26.794 28.579 27.421 28.923 28.097 28.924C27.739 28.917 27.398 28.828 27.099 28.654L27.432 28.077L27.099 28.654C26.835 28.502 26.604 28.283 26.426 28.018M41.628 20.082C41.633 20.143 41.635 20.204 41.634 20.265C41.634 20.302 41.634 20.338 41.633 20.375C41.638 20.277 41.636 20.179 41.628 20.082M37.318 12.31C37.393 12.4 37.461 12.497 37.521 12.602L39.873 16.673L37.523 12.601C37.463 12.497 37.394 12.4 37.318 12.31M27.182 11.826C26.847 11.999 26.562 12.265 26.368 12.604L22.523 19.263C22.165 19.88 22.166 20.645 22.523 21.262L24.564 24.798L22.527 21.266C22.346 20.953 22.253 20.607 22.259 20.264C22.258 19.917 22.351 19.57 22.528 19.265L26.374 12.602C26.551 12.296 26.805 12.042 27.106 11.869C27.131 11.854 27.156 11.84 27.182 11.826M35.791 11.601L28.1 11.603C28.034 11.603 27.969 11.607 27.904 11.613C27.959 11.608 28.013 11.606 28.068 11.606C28.08 11.606 28.092 11.606 28.103 11.606L35.789 11.602C35.895 11.602 36 11.61 36.103 11.626C36 11.61 35.896 11.601 35.791 11.601" fill="#767071"/><path d="M35.789 11.602L28.103 11.607C28.091 11.607 28.08 11.606 28.068 11.606C28.013 11.606 27.958 11.609 27.904 11.613C27.649 11.638 27.404 11.711 27.181 11.826C27.156 11.84 27.13 11.855 27.105 11.87L27.438 12.446C27.636 12.333 27.864 12.27 28.1 12.27L35.789 12.268C36.027 12.269 36.256 12.333 36.456 12.448L36.788 11.872L36.789 11.87C36.579 11.748 36.346 11.665 36.102 11.626C36 11.611 35.895 11.602 35.789 11.602" fill="#783f29"/><path d="M36.789 11.87L36.788 11.872L36.455 12.448C36.656 12.563 36.826 12.73 36.945 12.935L40.79 19.599C40.909 19.804 40.968 20.034 40.968 20.265L41.633 20.265C41.634 20.204 41.632 20.143 41.627 20.082C41.601 19.798 41.515 19.519 41.367 19.263L39.872 16.674L37.52 12.602C37.46 12.498 37.392 12.401 37.317 12.311C37.167 12.133 36.988 11.985 36.789 11.87" fill="#783f29"/><path d="M27.105 11.87C26.805 12.043 26.55 12.297 26.374 12.602L22.527 19.265C22.351 19.571 22.258 19.918 22.258 20.264L22.921 20.265C22.921 20.034 22.98 19.803 23.099 19.597L26.945 12.936C27.064 12.729 27.235 12.562 27.437 12.446L27.105 11.87" fill="#783f29"/><path d="M40.968 20.265C40.968 20.495 40.908 20.725 40.79 20.93L36.945 27.59C36.826 27.796 36.657 27.962 36.457 28.077L36.79 28.655C36.869 28.609 36.945 28.558 37.018 28.502C37.218 28.346 37.391 28.151 37.522 27.924L41.367 21.263C41.526 20.987 41.615 20.682 41.632 20.375C41.634 20.339 41.634 20.302 41.634 20.265L40.968 20.265" fill="#783f29"/><path d="M27.432 28.077L27.098 28.655C27.398 28.828 27.739 28.917 28.097 28.924L28.1 28.924L35.791 28.921L35.797 28.921C36.073 28.921 36.341 28.864 36.587 28.757C36.656 28.727 36.724 28.693 36.79 28.655L36.457 28.077C36.258 28.192 36.029 28.255 35.791 28.255L28.1 28.257C27.862 28.257 27.632 28.193 27.432 28.077" fill="#766e57"/><path d="M22.258 20.264C22.252 20.608 22.345 20.954 22.526 21.266L24.563 24.799L26.367 27.924C26.385 27.956 26.405 27.988 26.425 28.019C26.603 28.283 26.834 28.503 27.098 28.655L27.431 28.077C27.232 27.962 27.063 27.795 26.944 27.59L23.099 20.928C22.98 20.723 22.921 20.494 22.921 20.264L22.258 20.264" fill="#783f29"/><path d="M76.66 21.342L71.864 29.648C71.478 30.315 70.766 30.727 69.998 30.727L69.984 30.727L60.4 30.729L27.15 30.727L27.143 30.727L27.14 30.727C26.371 30.727 25.66 30.316 25.275 29.648L20.479 21.342L19.902 21.675L24.697 29.982C25.199 30.851 26.124 31.389 27.127 31.394L60.4 31.395L69.993 31.394L69.998 31.394C71.006 31.393 71.936 30.855 72.441 29.982L77.237 21.675L76.66 21.342" fill="#231f20"/><path d="M107.405 11.861L97.717 11.861L102.565 3.475C102.859 3.647 103.112 3.894 103.29 4.208L107.138 10.861C107.318 11.174 107.405 11.521 107.405 11.861" fill="#119a67"/><path d="M97.718 11.861L107.405 11.861C107.405 12.208 107.318 12.555 107.138 12.861L103.291 19.527C103.111 19.834 102.858 20.088 102.565 20.26L102.558 20.254L97.718 11.867L97.718 11.861" fill="#119a67"/><path d="M102.564 3.474L97.717 11.86L97.71 11.86L92.871 3.474C93.171 3.3 93.511 3.207 93.871 3.207L101.564 3.207C101.924 3.207 102.264 3.3 102.564 3.474" fill="#6ec283"/><path d="M102.558 20.253L102.565 20.26C102.265 20.433 101.924 20.526 101.565 20.526L93.871 20.526C93.512 20.526 93.171 20.433 92.871 20.26L92.871 20.253L97.718 11.866L102.558 20.253" fill="#119a67"/></g><path d="M97.711 11.861L97.718 11.866L97.718 11.861L97.711 11.861" fill="#5b9ad3"/><g clip-path="url(#c5)"><path d="M97.718 11.867L92.871 20.254L92.871 20.26C92.571 20.087 92.318 19.834 92.138 19.527L88.291 12.861C88.111 12.554 88.025 12.208 88.025 11.861L97.711 11.861L97.718 11.867" fill="#119a67"/><path d="M92.871 3.474L97.711 11.86L88.024 11.86C88.024 11.521 88.111 11.174 88.291 10.861L92.138 4.207C92.318 3.894 92.571 3.647 92.871 3.474" fill="#119a67"/><path d="M101.917 20.496C101.802 20.516 101.685 20.527 101.565 20.527L93.871 20.527C93.781 20.527 93.691 20.521 93.603 20.509C93.692 20.521 93.784 20.528 93.876 20.528L101.567 20.528C101.686 20.527 101.802 20.517 101.917 20.496M101.569 3.206L101.567 3.206L93.876 3.206C93.786 3.206 93.697 3.212 93.609 3.224C93.695 3.213 93.783 3.207 93.871 3.207L101.565 3.207C101.924 3.207 102.265 3.3 102.565 3.474L102.231 4.051L102.565 3.474C102.858 3.647 103.111 3.894 103.291 4.207L107.138 10.861C107.318 11.174 107.405 11.521 107.405 11.861C107.405 12.207 107.318 12.554 107.138 12.861L103.291 19.527C103.111 19.833 102.858 20.087 102.565 20.26C102.562 20.262 102.559 20.263 102.556 20.265C102.86 20.092 103.118 19.84 103.3 19.527L107.143 12.866C107.501 12.248 107.501 11.485 107.143 10.866L103.3 4.206C102.942 3.588 102.282 3.206 101.569 3.206" fill="#767071"/><path d="M102.564 3.474L102.231 4.051C102.431 4.167 102.602 4.334 102.721 4.54L106.566 11.2C106.683 11.404 106.742 11.632 106.743 11.86L107.404 11.86C107.404 11.521 107.318 11.174 107.137 10.861L103.291 4.207C103.111 3.894 102.858 3.647 102.564 3.474" fill="#1e573f"/><path d="M107.405 11.861L107.405 11.861L106.743 11.861C106.745 12.094 106.686 12.326 106.566 12.534L102.723 19.194C102.603 19.401 102.431 19.568 102.229 19.684L102.558 20.254L102.565 20.26C102.859 20.088 103.112 19.834 103.29 19.527L107.138 12.861C107.318 12.555 107.405 12.208 107.405 11.861" fill="#1e573f"/><path d="M101.565 3.208L93.872 3.208C93.783 3.208 93.695 3.214 93.609 3.225C93.347 3.26 93.097 3.347 92.873 3.477L93.206 4.055C93.407 3.938 93.637 3.874 93.876 3.874L101.567 3.874L101.57 3.874C101.805 3.874 102.033 3.937 102.231 4.052L102.565 3.475C102.265 3.301 101.925 3.208 101.565 3.208" fill="#49644f"/><path d="M93.203 19.679L92.871 20.253L92.871 20.257C93.094 20.387 93.342 20.473 93.602 20.509C93.691 20.521 93.78 20.527 93.871 20.527L101.565 20.527C101.684 20.527 101.802 20.516 101.917 20.496C102.143 20.455 102.359 20.377 102.556 20.265C102.559 20.263 102.562 20.262 102.564 20.26L102.558 20.253L102.229 19.683C102.03 19.797 101.802 19.861 101.567 19.861L93.875 19.861C93.635 19.861 93.404 19.796 93.203 19.679" fill="#1e573f"/><path d="M88.697 11.861L88.03 11.861C88.029 12.208 88.118 12.556 88.298 12.867L92.143 19.528C92.321 19.836 92.574 20.085 92.871 20.258L92.871 20.254L93.203 19.679C93.005 19.564 92.838 19.399 92.72 19.195L88.875 12.534C88.755 12.326 88.696 12.094 88.697 11.861" fill="#1e573f"/><path d="M92.872 3.476C92.574 3.649 92.321 3.898 92.143 4.206L88.298 10.866C88.12 11.174 88.031 11.517 88.03 11.86L88.697 11.86C88.698 11.632 88.757 11.404 88.875 11.2L92.72 4.54C92.838 4.336 93.007 4.169 93.206 4.054L92.872 3.476" fill="#1e573f"/><path d="M101.225 7.815C101.462 8.021 101.681 8.247 101.879 8.492L102.397 8.072C102.175 7.797 101.929 7.543 101.662 7.312L101.225 7.815" fill="#6ec283"/><path d="M92.378 12.271C92.368 12.136 92.362 11.999 92.362 11.861C92.362 11.378 92.427 10.91 92.548 10.464L91.904 10.289C91.768 10.791 91.696 11.318 91.696 11.861C91.696 12.017 91.702 12.17 91.713 12.322L92.378 12.271M93.098 14.572C92.794 14.054 92.574 13.482 92.458 12.873L91.803 12.999C91.934 13.685 92.181 14.328 92.523 14.91L93.098 14.572M94.755 16.324C94.247 15.985 93.801 15.563 93.435 15.076L92.902 15.478C93.313 16.024 93.815 16.498 94.386 16.879L94.755 16.324M97.011 17.172C96.395 17.09 95.811 16.904 95.279 16.632L94.975 17.225C95.574 17.532 96.231 17.741 96.924 17.832L97.011 17.172M99.412 16.944C98.88 17.121 98.311 17.217 97.719 17.217L97.618 17.216L97.605 17.883L97.719 17.884C98.384 17.884 99.024 17.776 99.623 17.576L99.412 16.944M101.468 15.686C101.035 16.109 100.532 16.462 99.976 16.719L100.258 17.325C100.883 17.034 101.449 16.638 101.935 16.161L101.468 15.686M102.766 13.654C102.56 14.233 102.258 14.768 101.877 15.236L102.394 15.657C102.822 15.13 103.163 14.53 103.394 13.877L102.766 13.654M103.04 11.257C103.062 11.455 103.073 11.658 103.073 11.861C103.073 12.277 103.026 12.683 102.936 13.071L103.586 13.22C103.687 12.784 103.74 12.328 103.74 11.861C103.74 11.632 103.727 11.407 103.702 11.184L103.039 11.257L103.04 11.257M102.236 8.985C102.559 9.492 102.799 10.055 102.938 10.659L103.587 10.509C103.431 9.83 103.161 9.197 102.797 8.627L102.236 8.985" fill="#6ec283"/><path d="M92.754 9.851C92.872 9.558 93.017 9.279 93.183 9.014L92.619 8.659C92.432 8.956 92.27 9.271 92.136 9.601L92.754 9.851" fill="#6ec283"/></g><path d="M93.651 9.866L93.994 7.564L91.829 8.419L93.651 9.866" fill="#6ec283"/><g clip-path="url(#c6)"><path d="M2 21.887C6.258 20.573 10.6 20.452 14.665 21.333" fill="none" stroke="#939598" stroke-width="0.667"/></g><path d="M14.055 22.395L16.288 21.742L14.606 20.134L14.055 22.395" fill="#939598"/><g clip-path="url(#c7)"></g></svg>