<svg xmlns="http://www.w3.org/2000/svg" width="160.6" height="63.5" viewBox="0 0 115.362 45.608" preserveAspectRatio="xMidYMid meet" role="img"><defs><clipPath id="c1"><path d="M-50.75 -18H417.25V270H-50.75Z"/></clipPath><clipPath id="c2"><path d="M-50.75 -18H417.25V270H-50.75Z"/></clipPath><clipPath id="c3"><path d="M-50.75 -18H417.25V270H-50.75Z"/></clipPath><clipPath id="c4"><path d="M-50.75 -18H417.25V270H-50.75Z"/></clipPath><clipPath id="c5"><path d="M-50.75 -18H417.25V270H-50.75Z"/></clipPath><clipPath id="c6"><path d="M-50.75 -18H417.25V270H-50.75Z"/></clipPath><clipPath id="c7"><path d="M-50.75 -18H417.25V270H-50.75Z"/></clipPath><clipPath id="c8"><path d="M-50.75 -18H417.25V270H-50.75Z"/></clipPath><clipPath id="c9"><path d="M-50.75 -18H417.25V270H-50.75Z"/></clipPath><clipPath id="c10"><path d="M-50.75 -18H417.25V270H-50.75Z"/></clipPath><clipPath id="c11"><path d="M-50.75 -18H417.25V270H-50.75Z"/></clipPath><clipPath id="c12"><path d="M-50.75 -18H417.25V270H-50.75Z"/></clipPath><clipPath id="c13"><path d="M-50.75 -18H417.25V270H-50.75Z"/></clipPath><clipPath id="c14"><path d="M-50.75 -18H417.25V270H-50.75Z"/></clipPath><clipPath id="c15"><path d="M-50.75 -18H417.25V270H-50.75Z"/></clipPath><clipPath id="c16"><path d="M-50.75 -18H417.25V270H-50.75Z"/></clipPath><clipPath id="c17"><path d="M-50.75 -18H417.25V270H-50.75Z"/></clipPath><clipPath id="c18"><path d="M-50.75 -18H417.25V270H-50.75Z"/></clipPath><clipPath id="c19"><path d="M-50.75 -18H417.25V270H-50.75Z"/></clipPath><clipPath id="c20"><path d="M-50.75 -18H417.25V270H-50.75Z"/></clipPath><clipPath id="c21"><path d="M-50.75 -18H417.25V270H-50.75Z"/></clipPath><clipPath id="c22"><path d="M-50.75 -18H417.25V270H-50.75Z"/></clipPath><clipPath id="c23"><path d="M-50.75 -18H417.25V270H-50.75Z"/></clipPath><clipPath id="c24"><path d="M-50.75 -18H417.25V270H-50.75Z"/></clipPath><clipPath id="c25"><path d="M-50.75 -18H417.25V270H-50.75Z"/></clipPath><clipPath id="c26"><path d="M-50.75 -18H417.25V270H-50.75Z"/></clipPath><clipPath id="c27"><path d="M-50.75 -18H417.25V270H-50.75Z"/></clipPath><clipPath id="c28"><path d="M-50.75 -18H417.25V270H-50.75Z"/></clipPath><clipPath id="c29"><path d="M-50.75 -18H417.25V270H-50.75Z"/></clipPath><clipPath id="c30"><path d="M-50.75 -18H417.25V270H-50.75Z"/></clipPath><clipPath id="c31"><path d="M-50.75 -18H417.25V270H-50.75Z"/></clipPath><clipPath id="c32"><path d="M-50.75 -18H417.25V270H-50.75Z"/></clipPath><clipPath id="c33"><path d="M-50.75 -18H417.25V270H-50.75Z"/></clipPath><clipPath id="c34"><path d="M-50.75 -18H417.25V270H-50.75Z"/></clipPath><clipPath id="c35"><path d="M-50.75 -18H417.25V270H-50.75Z"/></clipPath><clipPath id="c36"><path d="M-50.75 -18H417.25V270H-50.75Z"/></clipPath><clipPath id="c37"><path d="M-50.75 -18H417.25V270H-50.75Z"/></clipPath><clipPath id="c38"><path d="M-50.75 -18H417.25V270H-50.75Z"/></clipPath><clipPath id="c39"><path d="M178.003 255.6H188.499V265.896H178.003Z"/></clipPath></defs><g clip-path="url(#c1)"><path d="M33.544 38.548L38.388 30.159L43.228 38.549C42.931 38.717 42.59 38.813 42.229 38.812L34.544 38.817C34.183 38.816 33.839 38.718 33.544 38.548" fill="#ef4323"/><path d="M38.388 30.159L33.544 38.548C33.245 38.374 32.988 38.126 32.812 37.817L28.962 31.152C28.786 30.843 28.694 30.497 28.69 30.156L28.699 30.154L38.382 30.155L38.388 30.159" fill="#6e6f71"/><path d="M43.228 38.55L38.388 30.159L38.391 30.153L48.075 30.155C48.075 30.502 47.986 30.843 47.805 31.154L43.958 37.818C43.779 38.129 43.528 38.377 43.228 38.55" fill="#6e6f71"/><path d="M28.7 30.154L28.69 30.156C28.69 29.81 28.779 29.469 28.96 29.157L32.806 22.494C32.986 22.182 33.237 21.935 33.537 21.761L33.543 21.765L38.383 30.155L28.7 30.154" fill="#6e6f71"/></g><path d="M38.382 30.156L38.388 30.16L38.391 30.154L38.382 30.156" fill="#5b9ad3"/><g clip-path="url(#c2)"><path d="M38.382 30.156L33.542 21.765L33.536 21.762C33.837 21.589 34.183 21.496 34.538 21.494L42.235 21.496C42.591 21.493 42.935 21.592 43.235 21.765L38.391 30.153L38.382 30.156" fill="#6e6f71"/><path d="M48.075 30.155L38.391 30.153L43.235 21.764C43.529 21.934 43.787 22.183 43.968 22.495L47.806 29.153C47.988 29.465 48.075 29.808 48.075 30.155" fill="#6e6f71"/><path d="M43.225 38.552C42.93 38.717 42.593 38.813 42.235 38.813L42.229 38.813L35.354 38.817L42.23 38.817C42.585 38.817 42.927 38.723 43.225 38.552M28.73 30.531C28.771 30.748 28.849 30.96 28.962 31.157L32.808 37.817C33.148 38.405 33.761 38.779 34.434 38.814C34.113 38.796 33.809 38.701 33.544 38.549L33.877 37.973L33.544 38.549C33.245 38.375 32.988 38.127 32.812 37.818L28.962 31.153C28.851 30.957 28.773 30.746 28.73 30.531M47.949 29.455C48.034 29.681 48.075 29.918 48.075 30.156L47.409 30.156L48.075 30.156C48.075 30.502 47.986 30.843 47.805 31.155L43.958 37.818C43.782 38.123 43.537 38.368 43.245 38.54C43.538 38.368 43.787 38.121 43.962 37.817L47.808 31.157C48.11 30.634 48.157 30.009 47.949 29.455" fill="#767071"/><path d="M42.895 37.972C42.696 38.087 42.467 38.15 42.23 38.15L34.54 38.15C34.304 38.15 34.076 38.087 33.877 37.973L33.545 38.548C33.81 38.701 34.114 38.796 34.435 38.814C34.47 38.816 34.505 38.817 34.54 38.817L35.354 38.817L42.229 38.813L42.235 38.813C42.593 38.813 42.931 38.717 43.225 38.552C43.226 38.551 43.227 38.551 43.228 38.55L42.895 37.972" fill="#782b19"/><path d="M28.7 30.154L28.695 30.155C28.695 30.281 28.706 30.407 28.73 30.53C28.773 30.745 28.851 30.956 28.963 31.152L32.812 37.817C32.988 38.126 33.245 38.374 33.545 38.548L33.877 37.972C33.676 37.857 33.505 37.69 33.386 37.483L29.54 30.823C29.421 30.616 29.362 30.385 29.362 30.154L28.7 30.154" fill="#464647"/><path d="M47.409 30.155C47.409 30.386 47.35 30.617 47.23 30.823L43.385 37.483C43.266 37.689 43.096 37.856 42.895 37.972L43.228 38.55C43.234 38.546 43.24 38.543 43.245 38.54C43.538 38.367 43.782 38.123 43.959 37.817L47.805 31.154C47.986 30.843 48.075 30.501 48.075 30.155L47.409 30.155" fill="#464647"/><path d="M33.54 21.764C33.241 21.937 32.987 22.187 32.808 22.496L28.962 29.157C28.784 29.466 28.694 29.811 28.694 30.156L28.7 30.155L29.362 30.155C29.362 29.925 29.421 29.695 29.54 29.49L33.385 22.829C33.504 22.624 33.675 22.457 33.875 22.341L33.543 21.765L33.54 21.764" fill="#464647"/><path d="M42.23 21.496L34.54 21.497L34.538 21.497C34.181 21.497 33.838 21.592 33.54 21.764L33.543 21.765L33.875 22.341C34.074 22.226 34.303 22.163 34.54 22.163L42.23 22.163C42.469 22.163 42.7 22.227 42.901 22.344L43.234 21.766C42.934 21.592 42.589 21.496 42.23 21.496" fill="#464647"/><path d="M43.234 21.766L42.901 22.344C43.099 22.459 43.267 22.625 43.385 22.829L47.231 29.491C47.349 29.695 47.409 29.925 47.409 30.155L48.075 30.155C48.075 29.917 48.034 29.681 47.949 29.455C47.911 29.353 47.864 29.253 47.808 29.157L43.962 22.496C43.785 22.188 43.532 21.939 43.234 21.766" fill="#464647"/><path d="M66.153 38.548L70.996 30.159L75.836 38.549C75.539 38.717 75.199 38.813 74.837 38.812L67.152 38.817C66.791 38.816 66.447 38.718 66.153 38.548" fill="#ef4323"/><path d="M70.995 30.159L66.152 38.548C65.852 38.374 65.595 38.126 65.42 37.817L61.569 31.152C61.394 30.843 61.301 30.497 61.299 30.156L61.306 30.154L70.99 30.155L70.995 30.159" fill="#d65231"/><path d="M75.835 38.55L70.995 30.159L70.999 30.153L80.682 30.155C80.682 30.502 80.593 30.843 80.413 31.154L76.566 37.818C76.386 38.129 76.135 38.377 75.835 38.55" fill="#d65231"/><path d="M61.307 30.154L61.298 30.156C61.297 29.81 61.387 29.469 61.567 29.157L65.414 22.494C65.593 22.182 65.844 21.935 66.145 21.761L66.15 21.765L70.99 30.155L61.307 30.154" fill="#ad634d"/></g><path d="M70.99 30.156L70.995 30.16L71 30.154L70.99 30.156" fill="#5b9ad3"/><g clip-path="url(#c3)"><path d="M70.99 30.156L66.15 21.765L66.145 21.762C66.445 21.589 66.791 21.496 67.146 21.494L74.844 21.496C75.199 21.493 75.543 21.592 75.843 21.765L71 30.153L70.99 30.156" fill="#98685a"/><path d="M80.682 30.155L70.999 30.153L75.842 21.764C76.137 21.934 76.394 22.183 76.574 22.495L80.413 29.153C80.595 29.465 80.682 29.808 80.682 30.155" fill="#ad634d"/><path d="M61.356 30.616C61.4 30.803 61.472 30.985 61.571 31.157L65.415 37.817C65.755 38.405 66.369 38.779 67.042 38.814C66.721 38.796 66.417 38.701 66.153 38.549L66.485 37.974L66.153 38.549C65.852 38.375 65.595 38.127 65.419 37.818L61.57 31.153C61.473 30.983 61.401 30.801 61.356 30.616M80.556 29.455C80.641 29.681 80.682 29.918 80.682 30.156L80.016 30.156L80.682 30.156C80.682 30.502 80.593 30.843 80.413 31.155L76.567 37.818C76.386 38.129 76.135 38.377 75.835 38.55L75.502 37.972L75.835 38.55C75.54 38.717 75.202 38.813 74.843 38.813L74.837 38.813L67.961 38.817L74.838 38.817C75.553 38.817 76.213 38.436 76.571 37.817L80.415 31.157C80.717 30.634 80.764 30.009 80.556 29.455" fill="#767071"/><path d="M75.502 37.972C75.303 38.087 75.075 38.15 74.838 38.15L67.148 38.15C66.912 38.15 66.684 38.087 66.485 37.973L66.153 38.548C66.417 38.701 66.721 38.796 67.042 38.814C67.077 38.816 67.112 38.817 67.147 38.817L67.961 38.817L74.837 38.813L74.843 38.813C75.202 38.813 75.54 38.716 75.835 38.55L75.502 37.972" fill="#782b19"/><path d="M61.307 30.154L61.303 30.155C61.303 30.31 61.32 30.464 61.356 30.615C61.401 30.801 61.473 30.982 61.57 31.152L65.419 37.817C65.595 38.126 65.852 38.374 66.153 38.548L66.485 37.973C66.283 37.857 66.112 37.69 65.993 37.483L62.148 30.823C62.029 30.616 61.97 30.385 61.97 30.154L61.307 30.154" fill="#713522"/><path d="M80.016 30.155C80.016 30.386 79.957 30.617 79.838 30.823L75.992 37.483C75.873 37.689 75.702 37.856 75.502 37.972L75.835 38.55C76.135 38.377 76.386 38.129 76.567 37.817L80.413 31.154C80.593 30.843 80.682 30.501 80.682 30.155L80.016 30.155" fill="#713522"/><path d="M66.148 21.764C65.849 21.937 65.595 22.187 65.416 22.496L61.571 29.157C61.392 29.466 61.303 29.811 61.303 30.156L61.307 30.155L61.97 30.155C61.97 29.925 62.03 29.695 62.148 29.489L65.993 22.829C66.112 22.623 66.282 22.457 66.482 22.341L66.15 21.765L66.148 21.764" fill="#614136"/><path d="M74.838 21.496L67.147 21.497L67.145 21.497C66.789 21.497 66.446 21.592 66.148 21.764L66.15 21.765L66.482 22.341C66.681 22.226 66.909 22.163 67.147 22.163L74.838 22.163C75.077 22.163 75.307 22.227 75.508 22.344L75.841 21.766C75.542 21.592 75.197 21.496 74.838 21.496" fill="#59443e"/><path d="M75.842 21.766L75.508 22.344C75.706 22.459 75.875 22.625 75.993 22.829L79.839 29.491C79.957 29.696 80.016 29.925 80.017 30.155L80.682 30.155C80.682 29.917 80.641 29.681 80.557 29.455C80.518 29.353 80.471 29.253 80.416 29.157L76.571 22.496C76.393 22.188 76.14 21.938 75.842 21.766" fill="#614136"/><path d="M98.76 38.548L103.604 30.159L108.443 38.549C108.146 38.717 107.806 38.813 107.445 38.812L99.759 38.817C99.398 38.816 99.055 38.718 98.76 38.548" fill="#98685a"/><path d="M103.604 30.159L98.76 38.548C98.46 38.374 98.204 38.126 98.028 37.817L94.177 31.152C94.001 30.843 93.909 30.497 93.906 30.156L93.914 30.154L103.598 30.155L103.604 30.159" fill="#98685a"/><path d="M108.443 38.55L103.604 30.159L103.607 30.153L113.29 30.155C113.291 30.502 113.201 30.843 113.021 31.154L109.174 37.818C108.995 38.129 108.744 38.377 108.443 38.55" fill="#98685a"/><path d="M93.914 30.154L93.905 30.156C93.905 29.81 93.994 29.469 94.174 29.157L98.021 22.494C98.201 22.182 98.452 21.935 98.752 21.761L98.758 21.765L103.598 30.155L93.914 30.154" fill="#98685a"/></g><path d="M103.598 30.156L103.604 30.16L103.607 30.154L103.598 30.156" fill="#5b9ad3"/><g clip-path="url(#c4)"><path d="M103.598 30.156L98.758 21.765L98.752 21.762C99.052 21.589 99.399 21.496 99.754 21.494L107.45 21.496C107.806 21.493 108.15 21.592 108.45 21.765L103.607 30.153L103.598 30.156" fill="#98685a"/><path d="M113.289 30.155L103.606 30.153L108.45 21.764C108.744 21.934 109.002 22.183 109.183 22.495L113.021 29.153C113.202 29.465 113.289 29.808 113.289 30.155" fill="#98685a"/><path d="M93.963 30.616C94.007 30.803 94.079 30.985 94.178 31.157L98.022 37.817C98.36 38.402 98.969 38.775 99.638 38.814C99.321 38.794 99.022 38.7 98.76 38.549L99.092 37.973L98.76 38.549C98.46 38.375 98.203 38.127 98.027 37.818L94.177 31.153C94.08 30.983 94.008 30.801 93.963 30.616M113.208 29.587C113.262 29.773 113.289 29.964 113.289 30.156L112.623 30.156L113.289 30.156C113.29 30.502 113.2 30.843 113.02 31.155L109.174 37.818C108.994 38.129 108.743 38.377 108.442 38.55L108.109 37.973L108.442 38.55C108.147 38.717 107.809 38.813 107.45 38.813L107.444 38.813L100.568 38.817L107.445 38.817C108.16 38.817 108.82 38.436 109.178 37.817L113.022 31.157C113.3 30.675 113.362 30.107 113.208 29.587" fill="#767071"/><path d="M108.11 37.972C107.911 38.086 107.682 38.15 107.446 38.15L99.756 38.15C99.52 38.15 99.292 38.087 99.093 37.973L98.761 38.548C99.023 38.699 99.322 38.794 99.639 38.813C99.678 38.816 99.717 38.817 99.756 38.817L100.569 38.817L107.445 38.812L107.451 38.812C107.81 38.812 108.148 38.716 108.443 38.55L108.11 37.972" fill="#59443e"/><path d="M93.914 30.154L93.91 30.155C93.91 30.31 93.927 30.464 93.963 30.615C94.009 30.801 94.08 30.982 94.177 31.152L98.027 37.817C98.203 38.126 98.46 38.374 98.76 38.548L99.092 37.973C98.891 37.857 98.719 37.69 98.6 37.483L94.755 30.823C94.636 30.616 94.577 30.385 94.577 30.154L93.914 30.154" fill="#59443e"/><path d="M112.624 30.155C112.624 30.386 112.565 30.617 112.446 30.823L108.601 37.483C108.482 37.689 108.311 37.857 108.11 37.972L108.443 38.55C108.744 38.377 108.995 38.129 109.175 37.817L113.021 31.154C113.201 30.843 113.291 30.501 113.29 30.155L112.624 30.155" fill="#59443e"/><path d="M98.756 21.764C98.457 21.937 98.202 22.187 98.023 22.496L94.179 29.157C94 29.466 93.911 29.811 93.911 30.156L93.915 30.155L94.578 30.155C94.578 29.925 94.637 29.695 94.756 29.49L98.6 22.829C98.72 22.623 98.89 22.457 99.091 22.341L98.759 21.765L98.756 21.764" fill="#59443e"/><path d="M107.446 21.496L99.756 21.497L99.754 21.497C99.397 21.497 99.054 21.592 98.756 21.764L98.758 21.765L99.091 22.341C99.29 22.226 99.519 22.163 99.756 22.163L107.446 22.163C107.685 22.163 107.916 22.227 108.116 22.344L108.45 21.766C108.15 21.592 107.805 21.496 107.446 21.496" fill="#59443e"/><path d="M108.45 21.766L108.116 22.344C108.315 22.459 108.483 22.625 108.601 22.829L112.446 29.491C112.564 29.695 112.624 29.925 112.624 30.155L113.29 30.155C113.29 29.963 113.263 29.772 113.208 29.587C113.164 29.438 113.103 29.294 113.023 29.157L109.178 22.496C109.001 22.188 108.747 21.939 108.45 21.766" fill="#59443e"/></g><path d="M41.281 27.731L43.323 25.689L42.852 25.217L40.81 27.26" fill="#ffffff"/><path d="M33.917 35.095L35.959 33.053L35.488 32.582L33.446 34.624" fill="#ffffff"/><path d="M42.105 29.504L44.895 28.756L44.722 28.112L41.933 28.86" fill="#ffffff"/><path d="M32.046 32.2L34.836 31.452L34.663 30.808L31.874 31.556" fill="#ffffff"/><path d="M41.933 31.452L44.723 32.2L44.895 31.556L42.105 30.808" fill="#ffffff"/><path d="M31.873 28.757L34.662 29.505L34.835 28.861L32.046 28.113" fill="#ffffff"/><path d="M40.81 33.053L42.852 35.095L43.323 34.624L41.281 32.582" fill="#ffffff"/><path d="M33.445 25.688L35.487 27.73L35.958 27.259L33.916 25.217" fill="#ffffff"/><path d="M39.036 33.877L39.784 36.666L40.428 36.493L39.68 33.704" fill="#ffffff"/><path d="M36.34 23.818L37.088 26.608L37.732 26.435L36.984 23.645" fill="#ffffff"/><path d="M37.089 33.705L36.341 36.494L36.985 36.667L37.733 33.878" fill="#ffffff"/><path d="M39.783 23.644L39.036 26.434L39.68 26.607L40.427 23.816" fill="#ffffff"/><path d="M81.461 29.822H84.83V30.489H81.461Z" fill="#ef4323"/><path d="M57.155 29.822H60.525V30.489H57.155Z" fill="#ef4323"/><path d="M81.018 33.187L84.275 34.059L84.447 33.415L81.19 32.543" fill="#ef4323"/><path d="M57.541 26.897L60.795 27.769L60.968 27.125L57.714 26.253" fill="#ef4323"/><path d="M79.891 35.678L82.809 37.363L83.142 36.785L80.224 35.101" fill="#ef4323"/><path d="M58.841 23.526L61.759 25.211L62.092 24.634L59.174 22.949" fill="#ef4323"/><path d="M78.158 37.792L80.542 40.176L81.013 39.704L78.629 37.321" fill="#ef4323"/><path d="M60.973 20.607L63.356 22.99L63.827 22.518L61.444 20.136" fill="#ef4323"/><path d="M75.937 39.389L77.623 42.307L78.2 41.974L76.514 39.056" fill="#ef4323"/><path d="M63.785 18.339L65.47 21.257L66.048 20.924L64.362 18.006" fill="#ef4323"/><path d="M73.381 40.353L74.254 43.608L74.898 43.435L74.025 40.18" fill="#ef4323"/><path d="M67.089 16.875L67.961 20.131L68.605 19.958L67.733 16.703" fill="#ef4323"/><path d="M70.66 40.623H71.326V43.993H70.66Z" fill="#ef4323"/><path d="M70.66 16.318H71.326V19.688H70.66Z" fill="#ef4323"/><path d="M67.962 40.18L67.09 43.435L67.734 43.607L68.606 40.353" fill="#ef4323"/><path d="M74.252 16.702L73.381 19.958L74.025 20.13L74.896 16.874" fill="#ef4323"/><path d="M65.471 39.054L63.786 41.973L64.364 42.306L66.048 39.387" fill="#ef4323"/><path d="M77.623 18.005L75.938 20.923L76.516 21.256L78.2 18.338" fill="#ef4323"/><path d="M63.356 37.321L60.972 39.704L61.443 40.175L63.827 37.792" fill="#ef4323"/><path d="M80.542 20.136L78.16 22.518L78.632 22.989L81.013 20.607" fill="#ef4323"/><path d="M61.761 35.1L58.843 36.785L59.176 37.362L62.094 35.677" fill="#ef4323"/><path d="M82.811 22.947L79.893 24.633L80.227 25.211L83.145 23.524" fill="#ef4323"/><path d="M60.796 32.543L57.542 33.416L57.715 34.06L60.969 33.187" fill="#ef4323"/><path d="M84.274 26.252L81.019 27.124L81.192 27.768L84.446 26.896" fill="#ef4323"/><g clip-path="url(#c5)"><path d="M14.459 2.498C20.223 7.631 26.055 12.643 31.567 18.085C34.486 20.968 40.054 26.569 40.105 31.019C33.977 31.895 30.229 23.376 24.423 22.911C25.265 24.84 28.073 28.037 25.581 29.291C23.363 30.41 20.376 27.244 18.96 25.855C19.259 26.728 20.201 29.857 18.882 30.346C17.995 30.673 16.142 27.824 15.697 27.016C14.976 30.642 12.044 28.744 9.953 26.801C6.475 23.569 4.71 19.865 2.597 15.629" fill="#ffffff"/><path d="M14.016 2.996C19.786 8.134 25.609 13.138 31.099 18.559C32.555 19.996 34.655 22.099 36.382 24.368C38.116 26.632 39.432 29.078 39.439 31.026L40.106 31.019L40.011 30.359C39.743 30.397 39.481 30.415 39.224 30.415C37.976 30.415 36.817 29.989 35.66 29.296C33.926 28.259 32.251 26.625 30.472 25.174C28.694 23.73 26.78 22.437 24.476 22.247L23.367 22.158L23.812 23.178C24.148 23.94 24.692 24.774 25.144 25.604C25.602 26.426 25.934 27.244 25.923 27.759C25.922 27.976 25.879 28.13 25.794 28.27C25.707 28.408 25.564 28.552 25.282 28.696L25.281 28.696C25.056 28.809 24.828 28.859 24.571 28.859C23.824 28.873 22.804 28.347 21.86 27.608C20.913 26.877 20.04 25.982 19.427 25.38L17.418 23.41L18.33 26.071C18.504 26.566 18.906 27.925 18.9 28.867C18.901 29.163 18.858 29.408 18.8 29.543C18.736 29.682 18.709 29.694 18.651 29.72L18.731 29.935L18.731 29.705L18.651 29.72L18.731 29.935L18.731 29.705L18.731 29.811L18.748 29.706L18.731 29.705L18.731 29.811L18.748 29.706L18.714 29.694C18.617 29.659 18.386 29.496 18.148 29.253C17.413 28.527 16.533 27.16 16.282 26.695L15.401 25.091L15.044 26.885C14.911 27.558 14.701 27.949 14.513 28.143C14.321 28.335 14.162 28.394 13.889 28.401C13.506 28.408 12.913 28.19 12.288 27.796C11.661 27.407 11 26.864 10.407 26.312C7.038 23.183 5.312 19.581 3.194 15.331L2 15.927C4.109 20.149 5.912 23.955 9.5 27.289C10.134 27.879 10.847 28.47 11.584 28.928C12.322 29.382 13.082 29.727 13.889 29.734C14.453 29.742 15.049 29.523 15.478 29.062C15.911 28.605 16.186 27.97 16.352 27.146L15.698 27.016L15.113 27.337C15.348 27.762 15.879 28.609 16.5 29.395C16.812 29.787 17.142 30.16 17.487 30.46C17.661 30.609 17.839 30.742 18.037 30.848C18.235 30.951 18.458 31.036 18.731 31.039C18.854 31.039 18.986 31.018 19.113 30.971L19.114 30.971C19.568 30.808 19.884 30.43 20.033 30.052C20.188 29.67 20.231 29.271 20.233 28.867C20.226 27.606 19.782 26.212 19.591 25.64L18.96 25.855L18.494 26.332C19.09 26.916 20.001 27.856 21.045 28.663C22.094 29.463 23.274 30.179 24.571 30.193C25.011 30.194 25.462 30.099 25.882 29.886L25.881 29.887C26.333 29.66 26.694 29.351 26.927 28.972C27.163 28.594 27.258 28.167 27.256 27.759C27.245 26.779 26.791 25.854 26.314 24.965C25.831 24.085 25.293 23.243 25.034 22.644L24.423 22.911L24.37 23.576C25.599 23.674 26.757 24.181 27.911 24.933C29.642 26.057 31.318 27.721 33.116 29.137C34.016 29.845 34.952 30.492 35.96 30.969C36.967 31.445 38.054 31.749 39.224 31.749C39.544 31.749 39.87 31.726 40.2 31.679L40.779 31.596L40.773 31.011C40.728 28.51 39.234 25.931 37.443 23.561C35.643 21.196 33.5 19.057 32.036 17.611C26.502 12.147 20.66 7.128 14.903 2L14.016 2.996" fill="#221f20"/></g><g clip-path="url(#c6)"></g><g clip-path="url(#c7)"></g><g clip-path="url(#c8)"></g><g clip-path="url(#c9)"></g><g clip-path="url(#c10)"></g><g clip-path="url(#c11)"></g><g clip-path="url(#c12)"></g><g clip-path="url(#c13)"></g><g clip-path="url(#c14)"></g><g clip-path="url(#c15)"></g><g clip-path="url(#c16)"></g><g clip-path="url(#c17)"></g><g clip-path="url(#c18)"></g><g clip-path="url(#c19)"></g><g clip-path="url(#c20)"></g><g clip-path="url(#c21)"></g><g clip-path="url(#c22)"></g><g clip-path="url(#c23)"></g><g clip-path="url(#c24)"></g><g clip-path="url(#c25)"></g><g clip-path="url(#c26)"></g><g clip-path="url(#c27)"></g><g clip-path="url(#c28)"></g><g clip-path="url(#c29)"></g><g clip-path="url(#c30)"></g><g clip-path="url(#c31)"></g><g clip-path="url(#c32)"></g><g clip-path="url(#c33)"></g><g clip-path="url(#c34)"></g><g clip-path="url(#c35)"></g><g clip-path="url(#c36)"></g><g clip-path="url(#c37)"></g><g clip-path="url(#c38)"></g><g clip-path="url(#c39)"></g></svg>