<svg xmlns="http://www.w3.org/2000/svg" width="227.2" height="70.1" viewBox="0 0 163.213 50.352" preserveAspectRatio="xMidYMid meet" role="img"><defs><clipPath id="c1"><path d="M-53.513 -159.719H414.487V128.281H-53.513Z"/></clipPath><clipPath id="c2"><path d="M-53.513 -159.719H414.487V128.281H-53.513Z"/></clipPath><clipPath id="c3"><path d="M-53.513 -159.719H414.487V128.281H-53.513Z"/></clipPath><clipPath id="c4"><path d="M-53.513 -159.719H414.487V128.281H-53.513Z"/></clipPath><clipPath id="c5"><path d="M-53.513 -159.719H414.487V128.281H-53.513Z"/></clipPath><clipPath id="c6"><path d="M-53.513 -159.719H414.487V128.281H-53.513Z"/></clipPath><clipPath id="c7"><path d="M-53.513 -159.719H414.487V128.281H-53.513Z"/></clipPath><clipPath id="c8"><path d="M-53.513 -159.719H414.487V128.281H-53.513Z"/></clipPath><clipPath id="c9"><path d="M-53.513 -159.719H414.487V128.281H-53.513Z"/></clipPath><clipPath id="c10"><path d="M-53.513 -159.719H414.487V128.281H-53.513Z"/></clipPath><clipPath id="c11"><path d="M-53.513 -159.719H414.487V128.281H-53.513Z"/></clipPath><clipPath id="c12"><path d="M-53.513 -159.719H414.487V128.281H-53.513Z"/></clipPath><clipPath id="c13"><path d="M-53.513 -159.719H414.487V128.281H-53.513Z"/></clipPath><clipPath id="c14"><path d="M-53.513 -159.719H414.487V128.281H-53.513Z"/></clipPath><clipPath id="c15"><path d="M-53.513 -159.719H414.487V128.281H-53.513Z"/></clipPath><clipPath id="c16"><path d="M-53.513 -159.719H414.487V128.281H-53.513Z"/></clipPath><clipPath id="c17"><path d="M-53.513 -159.719H414.487V128.281H-53.513Z"/></clipPath><clipPath id="c18"><path d="M-53.513 -159.719H414.487V128.281H-53.513Z"/></clipPath><clipPath id="c19"><path d="M-53.513 -159.719H414.487V128.281H-53.513Z"/></clipPath><clipPath id="c20"><path d="M-53.513 -159.719H414.487V128.281H-53.513Z"/></clipPath><clipPath id="c21"><path d="M-53.513 -159.719H414.487V128.281H-53.513Z"/></clipPath><clipPath id="c22"><path d="M-53.513 -159.719H414.487V128.281H-53.513Z"/></clipPath><clipPath id="c23"><path d="M-53.513 -159.719H414.487V128.281H-53.513Z"/></clipPath><clipPath id="c24"><path d="M-53.513 -159.719H414.487V128.281H-53.513Z"/></clipPath><clipPath id="c25"><path d="M-53.513 -159.719H414.487V128.281H-53.513Z"/></clipPath><clipPath id="c26"><path d="M-53.513 -159.719H414.487V128.281H-53.513Z"/></clipPath><clipPath id="c27"><path d="M-53.513 -159.719H414.487V128.281H-53.513Z"/></clipPath><clipPath id="c28"><path d="M-53.513 -159.719H414.487V128.281H-53.513Z"/></clipPath><clipPath id="c29"><path d="M-53.513 -159.719H414.487V128.281H-53.513Z"/></clipPath><clipPath id="c30"><path d="M-53.513 -159.719H414.487V128.281H-53.513Z"/></clipPath><clipPath id="c31"><path d="M-53.513 -159.719H414.487V128.281H-53.513Z"/></clipPath><clipPath id="c32"><path d="M-53.513 -159.719H414.487V128.281H-53.513Z"/></clipPath><clipPath id="c33"><path d="M-53.513 -159.719H414.487V128.281H-53.513Z"/></clipPath><clipPath id="c34"><path d="M-53.513 -159.719H414.487V128.281H-53.513Z"/></clipPath><clipPath id="c35"><path d="M-53.513 -159.719H414.487V128.281H-53.513Z"/></clipPath><clipPath id="c36"><path d="M-53.513 -159.719H414.487V128.281H-53.513Z"/></clipPath><clipPath id="c37"><path d="M-53.513 -159.719H414.487V128.281H-53.513Z"/></clipPath><clipPath id="c38"><path d="M-53.513 -159.719H414.487V128.281H-53.513Z"/></clipPath><clipPath id="c39"><path d="M-53.513 -159.719H414.487V128.281H-53.513Z"/></clipPath><clipPath id="c40"><path d="M-53.513 -159.719H414.487V128.281H-53.513Z"/></clipPath><clipPath id="c41"><path d="M-53.513 -159.719H414.487V128.281H-53.513Z"/></clipPath><clipPath id="c42"><path d="M-53.513 -159.719H414.487V128.281H-53.513Z"/></clipPath><clipPath id="c43"><path d="M-53.513 -159.719H414.487V128.281H-53.513Z"/></clipPath><clipPath id="c44"><path d="M-53.513 -159.719H414.487V128.281H-53.513Z"/></clipPath><clipPath id="c45"><path d="M-53.513 -159.719H414.487V128.281H-53.513Z"/></clipPath><clipPath id="c46"><path d="M-53.513 -159.719H414.487V128.281H-53.513Z"/></clipPath><clipPath id="c47"><path d="M-53.513 -159.719H414.487V128.281H-53.513Z"/></clipPath><clipPath id="c48"><path d="M-53.513 -159.719H414.487V128.281H-53.513Z"/></clipPath><clipPath id="c49"><path d="M-53.513 -159.719H414.487V128.281H-53.513Z"/></clipPath><clipPath id="c50"><path d="M-53.513 -159.719H414.487V128.281H-53.513Z"/></clipPath><clipPath id="c51"><path d="M-53.513 -159.719H414.487V128.281H-53.513Z"/></clipPath><clipPath id="c52"><path d="M-53.513 -159.719H414.487V128.281H-53.513Z"/></clipPath><clipPath id="c53"><path d="M-53.513 -159.719H414.487V128.281H-53.513Z"/></clipPath><clipPath id="c54"><path d="M-53.513 -159.719H414.487V128.281H-53.513Z"/></clipPath><clipPath id="c55"><path d="M-53.513 -159.719H414.487V128.281H-53.513Z"/></clipPath><clipPath id="c56"><path d="M-53.513 -159.719H414.487V128.281H-53.513Z"/></clipPath><clipPath id="c57"><path d="M-53.513 -159.719H414.487V128.281H-53.513Z"/></clipPath><clipPath id="c58"><path d="M-53.513 -159.719H414.487V128.281H-53.513Z"/></clipPath><clipPath id="c59"><path d="M-53.513 -159.719H414.487V128.281H-53.513Z"/></clipPath><clipPath id="c60"><path d="M-53.513 -159.719H414.487V128.281H-53.513Z"/></clipPath><clipPath id="c61"><path d="M-53.513 -159.719H414.487V128.281H-53.513Z"/></clipPath><clipPath id="c62"><path d="M-53.513 -159.719H414.487V128.281H-53.513Z"/></clipPath><clipPath id="c63"><path d="M-53.513 -159.719H414.487V128.281H-53.513Z"/></clipPath><clipPath id="c64"><path d="M-53.513 -159.719H414.487V128.281H-53.513Z"/></clipPath><clipPath id="c65"><path d="M-53.513 -159.719H414.487V128.281H-53.513Z"/></clipPath><clipPath id="c66"><path d="M175.239 113.881H185.735V124.177H175.239Z"/></clipPath></defs><g clip-path="url(#c1)"><path d="M39.327 40.71L35.132 43.132L39.328 45.552C39.413 45.406 39.46 45.233 39.459 45.052L39.462 41.21C39.461 41.029 39.412 40.857 39.327 40.71" fill="#404142"/><path d="M35.133 43.132L39.328 40.71C39.241 40.559 39.118 40.434 38.962 40.344L35.63 38.419C35.475 38.331 35.302 38.285 35.131 38.288L35.131 43.128L35.133 43.132" fill="#53ba63"/><path d="M39.328 45.551L35.133 43.131L35.13 43.133L35.131 47.974C35.304 47.974 35.474 47.93 35.63 47.84L38.962 45.917C39.117 45.827 39.241 45.701 39.328 45.551" fill="#53ba63"/><path d="M35.131 43.129L35.13 38.288C34.955 38.285 34.785 38.329 34.632 38.418L31.3 40.341C31.144 40.431 31.022 40.559 30.936 40.709L35.131 43.129" fill="#404142"/></g><path d="M35.13 43.133L35.133 43.131L35.131 43.128L35.13 43.133" fill="#404142"/><g clip-path="url(#c2)"><path d="M35.131 43.129L30.936 40.709C30.849 40.859 30.801 41.029 30.8 41.207L30.801 45.056C30.801 45.236 30.849 45.405 30.935 45.555L35.13 43.134L35.131 43.129" fill="#53ba63"/><path d="M35.131 47.975L35.13 43.133L30.936 45.555C31.021 45.702 31.145 45.831 31.301 45.921L34.63 47.841C34.786 47.931 34.959 47.978 35.131 47.975" fill="#404142"/><path d="M34.527 32.396L30.332 34.818L34.528 37.238C34.613 37.092 34.66 36.919 34.659 36.738L34.662 32.896C34.661 32.715 34.612 32.543 34.527 32.396" fill="#53ba63"/><path d="M30.333 34.818L34.528 32.396C34.441 32.246 34.318 32.121 34.162 32.03L30.83 30.105C30.675 30.017 30.502 29.971 30.33 29.974L30.331 34.815L30.333 34.818" fill="#404142"/><path d="M34.528 37.238L30.333 34.818L30.33 34.82L30.331 39.661C30.504 39.661 30.674 39.617 30.83 39.527L34.162 37.603C34.317 37.513 34.441 37.388 34.528 37.238" fill="#404142"/><path d="M30.331 34.815L30.33 29.974C30.155 29.97 29.985 30.015 29.832 30.103L26.5 32.027C26.344 32.117 26.222 32.245 26.136 32.395L30.331 34.815" fill="#53ba63"/></g><path d="M30.33 34.82L30.333 34.818L30.331 34.815L30.33 34.82" fill="#5b9ad3"/><g clip-path="url(#c3)"><path d="M30.331 34.815L26.136 32.395C26.049 32.545 26.001 32.715 26 32.893L26.001 36.742C26.001 36.922 26.049 37.091 26.135 37.241L30.33 34.82L30.331 34.815" fill="#404142"/><path d="M30.331 39.661L30.33 34.82L26.136 37.241C26.221 37.388 26.345 37.517 26.501 37.608L29.83 39.527C29.986 39.617 30.159 39.664 30.331 39.661" fill="#53ba63"/><path d="M29.727 40.71L25.532 43.132L29.728 45.552C29.813 45.406 29.86 45.233 29.859 45.052L29.861 41.21C29.861 41.029 29.812 40.857 29.727 40.71" fill="#404142"/><path d="M25.533 43.132L29.728 40.71C29.641 40.559 29.518 40.434 29.362 40.344L26.03 38.419C25.875 38.331 25.702 38.285 25.53 38.288L25.531 43.128L25.533 43.132" fill="#53ba63"/><path d="M29.728 45.551L25.533 43.131L25.53 43.133L25.531 47.974C25.704 47.974 25.874 47.93 26.03 47.84L29.362 45.917C29.517 45.827 29.641 45.701 29.728 45.551" fill="#53ba63"/><path d="M25.531 43.129L25.53 38.288C25.355 38.285 25.185 38.329 25.032 38.418L21.7 40.341C21.544 40.431 21.422 40.559 21.336 40.709L25.531 43.129" fill="#404142"/></g><path d="M25.529 43.133L25.533 43.131L25.531 43.128L25.529 43.133" fill="#ffffff"/><g clip-path="url(#c4)"><path d="M25.531 43.129L21.336 40.709C21.249 40.859 21.201 41.029 21.2 41.207L21.201 45.056C21.201 45.236 21.249 45.405 21.335 45.555L25.53 43.134L25.531 43.129" fill="#53ba63"/><path d="M25.531 47.975L25.53 43.133L21.336 45.555C21.421 45.702 21.545 45.831 21.701 45.921L25.03 47.841C25.186 47.931 25.359 47.978 25.531 47.975" fill="#404142"/><path d="M24.927 32.396L20.732 34.818L24.928 37.238C25.013 37.092 25.06 36.919 25.059 36.738L25.061 32.896C25.061 32.715 25.012 32.543 24.927 32.396" fill="#404142"/><path d="M20.733 34.818L24.928 32.396C24.841 32.246 24.718 32.121 24.562 32.03L21.23 30.105C21.075 30.017 20.902 29.971 20.73 29.974L20.731 34.815L20.733 34.818" fill="#53ba63"/><path d="M24.928 37.238L20.733 34.818L20.73 34.82L20.731 39.661C20.904 39.661 21.074 39.617 21.23 39.527L24.562 37.603C24.717 37.513 24.841 37.388 24.928 37.238" fill="#53ba63"/><path d="M20.731 34.815L20.73 29.974C20.555 29.97 20.385 30.015 20.232 30.103L16.9 32.027C16.744 32.117 16.622 32.245 16.536 32.395L20.731 34.815" fill="#404142"/></g><path d="M20.73 34.82L20.733 34.818L20.731 34.815L20.73 34.82" fill="#5b9ad3"/><g clip-path="url(#c5)"><path d="M20.731 34.815L16.536 32.395C16.449 32.545 16.401 32.715 16.4 32.893L16.401 36.742C16.401 36.922 16.449 37.091 16.535 37.241L20.73 34.82L20.731 34.815" fill="#53ba63"/><path d="M20.731 39.661L20.73 34.82L16.536 37.241C16.621 37.388 16.745 37.517 16.901 37.608L20.23 39.527C20.386 39.617 20.559 39.664 20.731 39.661" fill="#404142"/><path d="M20.127 24.082L15.933 26.504L20.128 28.924C20.213 28.778 20.26 28.605 20.259 28.424L20.262 24.582C20.261 24.401 20.212 24.229 20.127 24.082" fill="#404142"/><path d="M15.933 26.504L20.127 24.082C20.041 23.932 19.918 23.807 19.762 23.716L16.43 21.791C16.275 21.703 16.102 21.657 15.93 21.659L15.931 26.501L15.933 26.504" fill="#53ba63"/><path d="M20.128 28.924L15.933 26.504L15.93 26.506L15.931 31.347C16.104 31.347 16.274 31.303 16.43 31.213L19.762 29.289C19.917 29.2 20.041 29.074 20.128 28.924" fill="#53ba63"/><path d="M15.931 26.501L15.93 21.659C15.755 21.657 15.585 21.701 15.432 21.789L12.1 23.713C11.944 23.803 11.822 23.931 11.736 24.081L15.931 26.501" fill="#404142"/></g><path d="M15.93 26.505L15.933 26.503L15.931 26.5L15.93 26.505" fill="#5b9ad3"/><g clip-path="url(#c6)"><path d="M15.931 26.501L11.736 24.081C11.649 24.231 11.601 24.401 11.6 24.579L11.601 28.428C11.601 28.608 11.649 28.777 11.735 28.927L15.93 26.506L15.931 26.501" fill="#53ba63"/><path d="M15.931 31.347L15.93 26.505L11.736 28.927C11.821 29.074 11.945 29.203 12.101 29.293L15.43 31.213C15.586 31.303 15.759 31.35 15.931 31.347" fill="#404142"/><path d="M20.127 40.71L15.933 43.132L20.128 45.552C20.213 45.406 20.26 45.233 20.259 45.052L20.262 41.21C20.261 41.029 20.212 40.857 20.127 40.71" fill="#f0502c"/><path d="M15.933 43.132L20.127 40.71C20.041 40.559 19.918 40.434 19.762 40.344L16.43 38.419C16.275 38.331 16.102 38.285 15.93 38.288L15.931 43.128L15.933 43.132" fill="#f0502c"/><path d="M20.128 45.551L15.933 43.131L15.93 43.133L15.931 47.974C16.104 47.974 16.274 47.93 16.43 47.84L19.762 45.917C19.917 45.827 20.041 45.701 20.128 45.551" fill="#404142"/><path d="M15.931 43.129L15.93 38.288C15.755 38.285 15.585 38.329 15.432 38.418L12.1 40.341C11.944 40.431 11.822 40.559 11.736 40.709L15.931 43.129" fill="#f0502c"/></g><path d="M15.93 43.133L15.933 43.131L15.931 43.128L15.93 43.133" fill="#ffffff"/><g clip-path="url(#c7)"><path d="M15.931 43.129L11.736 40.709C11.649 40.859 11.601 41.029 11.6 41.207L11.601 45.056C11.601 45.236 11.649 45.405 11.735 45.555L15.93 43.134L15.931 43.129" fill="#404142"/><path d="M15.931 47.975L15.93 43.133L11.736 45.555C11.821 45.702 11.945 45.831 12.101 45.921L15.43 47.841C15.586 47.931 15.759 47.978 15.931 47.975" fill="#f0502c"/><path d="M15.327 32.396L11.133 34.818L15.328 37.238C15.413 37.092 15.46 36.919 15.459 36.738L15.462 32.896C15.461 32.715 15.412 32.543 15.327 32.396" fill="#404142"/><path d="M11.133 34.818L15.327 32.396C15.241 32.246 15.118 32.121 14.962 32.03L11.63 30.105C11.475 30.017 11.302 29.971 11.13 29.974L11.131 34.815L11.133 34.818" fill="#53ba63"/><path d="M15.328 37.238L11.133 34.818L11.13 34.82L11.131 39.661C11.304 39.661 11.474 39.617 11.63 39.527L14.962 37.603C15.117 37.513 15.241 37.388 15.328 37.238" fill="#53ba63"/><path d="M11.131 34.815L11.13 29.974C10.955 29.97 10.785 30.015 10.632 30.103L7.3 32.027C7.144 32.117 7.022 32.245 6.936 32.395L11.131 34.815" fill="#404142"/></g><path d="M11.129 34.82L11.133 34.818L11.131 34.815L11.129 34.82" fill="#5b9ad3"/><g clip-path="url(#c8)"><path d="M11.131 34.815L6.936 32.395C6.849 32.545 6.801 32.715 6.8 32.893L6.801 36.742C6.801 36.922 6.849 37.091 6.935 37.241L11.13 34.82L11.131 34.815" fill="#53ba63"/><path d="M11.131 39.661L11.13 34.82L6.936 37.241C7.021 37.388 7.145 37.517 7.301 37.608L10.63 39.527C10.786 39.617 10.959 39.664 11.131 39.661" fill="#404142"/><path d="M10.527 24.082L6.333 26.504L10.528 28.924C10.613 28.778 10.66 28.605 10.659 28.424L10.662 24.582C10.661 24.401 10.612 24.229 10.527 24.082" fill="#404142"/><path d="M6.333 26.504L10.527 24.082C10.441 23.932 10.318 23.807 10.162 23.716L6.83 21.791C6.675 21.703 6.502 21.657 6.33 21.659L6.331 26.501L6.333 26.504" fill="#53ba63"/><path d="M10.528 28.924L6.333 26.504L6.33 26.506L6.331 31.347C6.504 31.347 6.674 31.303 6.83 31.213L10.162 29.289C10.318 29.2 10.441 29.074 10.528 28.924" fill="#53ba63"/><path d="M6.331 26.501L6.33 21.659C6.155 21.657 5.985 21.701 5.832 21.789L2.5 23.713C2.344 23.803 2.222 23.931 2.136 24.081L6.331 26.501" fill="#404142"/></g><path d="M6.33 26.505L6.333 26.503L6.331 26.5L6.33 26.505" fill="#5b9ad3"/><g clip-path="url(#c9)"><path d="M6.331 26.501L2.136 24.081C2.049 24.231 2.001 24.401 2 24.579L2.001 28.428C2.001 28.608 2.049 28.777 2.135 28.927L6.33 26.506L6.331 26.501" fill="#53ba63"/><path d="M6.331 31.347L6.33 26.505L2.136 28.927C2.221 29.074 2.345 29.203 2.501 29.293L5.83 31.213C5.986 31.303 6.159 31.35 6.331 31.347" fill="#404142"/><path d="M24.927 15.768L20.732 18.19L24.928 20.61C25.013 20.464 25.06 20.291 25.059 20.11L25.061 16.268C25.061 16.087 25.012 15.915 24.927 15.768" fill="#53ba63"/><path d="M20.733 18.19L24.928 15.768C24.841 15.618 24.718 15.493 24.562 15.402L21.23 13.477C21.075 13.389 20.902 13.343 20.73 13.346L20.731 18.187L20.733 18.19" fill="#404142"/><path d="M24.928 20.61L20.733 18.19L20.73 18.192L20.731 23.033C20.904 23.033 21.074 22.989 21.23 22.899L24.562 20.976C24.717 20.886 24.841 20.76 24.928 20.61" fill="#404142"/><path d="M20.731 18.187L20.73 13.345C20.555 13.342 20.385 13.387 20.232 13.475L16.9 15.399C16.744 15.489 16.622 15.617 16.536 15.767L20.731 18.187" fill="#53ba63"/></g><path d="M20.73 18.191L20.733 18.19L20.731 18.186L20.73 18.191" fill="#404142"/><g clip-path="url(#c10)"><path d="M20.731 18.187L16.536 15.767C16.449 15.917 16.401 16.087 16.4 16.265L16.401 20.114C16.401 20.294 16.449 20.463 16.535 20.613L20.73 18.192L20.731 18.187" fill="#404142"/><path d="M20.731 23.033L20.73 18.192L16.536 20.613C16.621 20.76 16.745 20.889 16.901 20.98L20.23 22.899C20.386 22.989 20.559 23.036 20.731 23.033" fill="#53ba63"/><path d="M15.327 15.768L11.133 18.19L15.328 20.61C15.413 20.464 15.46 20.291 15.459 20.11L15.462 16.268C15.461 16.087 15.412 15.915 15.327 15.768" fill="#53ba63"/><path d="M11.133 18.19L15.327 15.768C15.241 15.618 15.118 15.493 14.962 15.402L11.63 13.477C11.475 13.389 11.302 13.343 11.13 13.346L11.131 18.187L11.133 18.19" fill="#404142"/><path d="M15.328 20.61L11.133 18.19L11.13 18.192L11.131 23.033C11.304 23.033 11.474 22.989 11.63 22.899L14.962 20.976C15.118 20.886 15.241 20.76 15.328 20.61" fill="#404142"/><path d="M11.131 18.187L11.13 13.345C10.955 13.342 10.785 13.387 10.632 13.475L7.3 15.399C7.144 15.489 7.022 15.617 6.936 15.767L11.131 18.187" fill="#53ba63"/></g><path d="M11.129 18.191L11.133 18.19L11.131 18.186L11.129 18.191" fill="#404142"/><g clip-path="url(#c11)"><path d="M11.131 18.187L6.936 15.767C6.849 15.917 6.801 16.087 6.8 16.265L6.801 20.114C6.801 20.294 6.849 20.463 6.935 20.613L11.13 18.192L11.131 18.187" fill="#404142"/><path d="M11.131 23.033L11.13 18.192L6.936 20.613C7.021 20.76 7.145 20.889 7.301 20.98L10.63 22.899C10.786 22.989 10.959 23.036 11.131 23.033" fill="#53ba63"/><path d="M20.127 7.454L15.933 9.876L20.128 12.296C20.213 12.15 20.26 11.977 20.259 11.796L20.262 7.954C20.261 7.773 20.212 7.602 20.127 7.454" fill="#53ba63"/><path d="M15.933 9.876L20.127 7.454C20.041 7.304 19.918 7.179 19.762 7.088L16.43 5.163C16.275 5.075 16.102 5.029 15.93 5.031L15.931 9.873L15.933 9.876" fill="#404142"/><path d="M20.128 12.296L15.933 9.876L15.93 9.878L15.931 14.719C16.104 14.719 16.274 14.675 16.43 14.585L19.762 12.661C19.917 12.571 20.041 12.446 20.128 12.296" fill="#404142"/><path d="M15.931 9.873L15.93 5.031C15.755 5.029 15.585 5.073 15.432 5.161L12.1 7.085C11.944 7.175 11.822 7.303 11.736 7.453L15.931 9.873" fill="#53ba63"/></g><path d="M15.93 9.878L15.933 9.876L15.931 9.873L15.93 9.878" fill="#ffffff"/><g clip-path="url(#c12)"><path d="M15.931 9.873L11.736 7.453C11.649 7.603 11.601 7.773 11.6 7.951L11.601 11.8C11.601 11.98 11.649 12.149 11.735 12.299L15.93 9.878L15.931 9.873" fill="#404142"/><path d="M15.931 14.719L15.93 9.877L11.736 12.299C11.821 12.446 11.945 12.575 12.101 12.666L15.43 14.585C15.586 14.676 15.759 14.722 15.931 14.719" fill="#53ba63"/><path d="M48.927 24.082L44.732 26.504L48.928 28.924C49.013 28.778 49.06 28.605 49.059 28.424L49.061 24.582C49.061 24.401 49.012 24.229 48.927 24.082" fill="#53ba63"/><path d="M44.733 26.504L48.928 24.082C48.841 23.932 48.718 23.807 48.562 23.716L45.23 21.791C45.075 21.703 44.902 21.657 44.73 21.659L44.731 26.501L44.733 26.504" fill="#404142"/><path d="M48.928 28.924L44.733 26.504L44.73 26.506L44.731 31.347C44.904 31.348 45.074 31.303 45.23 31.213L48.562 29.289C48.717 29.2 48.841 29.074 48.928 28.924" fill="#404142"/><path d="M44.731 26.501L44.73 21.659C44.555 21.657 44.385 21.701 44.232 21.789L40.9 23.713C40.744 23.803 40.622 23.931 40.536 24.081L44.731 26.501" fill="#53ba63"/></g><path d="M44.73 26.505L44.733 26.503L44.731 26.5L44.73 26.505" fill="#5b9ad3"/><g clip-path="url(#c13)"><path d="M44.731 26.501L40.536 24.081C40.449 24.231 40.401 24.401 40.4 24.579L40.401 28.428C40.401 28.608 40.449 28.777 40.535 28.927L44.73 26.506L44.731 26.501" fill="#404142"/><path d="M44.731 31.347L44.73 26.505L40.536 28.927C40.621 29.074 40.745 29.203 40.901 29.293L44.23 31.213C44.386 31.303 44.559 31.35 44.731 31.347" fill="#53ba63"/><path d="M44.127 32.396L39.932 34.818L44.128 37.238C44.213 37.092 44.26 36.919 44.259 36.738L44.261 32.896C44.261 32.715 44.212 32.543 44.127 32.396" fill="#53ba63"/><path d="M39.933 34.818L44.128 32.396C44.041 32.246 43.918 32.121 43.762 32.03L40.43 30.105C40.275 30.017 40.102 29.971 39.93 29.974L39.931 34.815L39.933 34.818" fill="#404142"/><path d="M44.128 37.238L39.933 34.818L39.93 34.82L39.931 39.661C40.104 39.661 40.274 39.617 40.43 39.527L43.762 37.603C43.918 37.513 44.041 37.388 44.128 37.238" fill="#404142"/><path d="M39.931 34.815L39.93 29.974C39.755 29.97 39.585 30.015 39.432 30.103L36.1 32.027C35.944 32.117 35.822 32.245 35.736 32.395L39.931 34.815" fill="#53ba63"/></g><path d="M39.93 34.82L39.933 34.818L39.931 34.815L39.93 34.82" fill="#5b9ad3"/><g clip-path="url(#c14)"><path d="M39.931 34.815L35.736 32.395C35.649 32.545 35.601 32.715 35.6 32.893L35.601 36.742C35.601 36.922 35.649 37.091 35.735 37.241L39.93 34.82L39.931 34.815" fill="#404142"/><path d="M39.931 39.661L39.93 34.82L35.736 37.241C35.821 37.388 35.945 37.517 36.101 37.608L39.43 39.527C39.586 39.617 39.759 39.664 39.931 39.661" fill="#53ba63"/><path d="M39.327 24.082L35.133 26.504L39.328 28.924C39.413 28.778 39.46 28.605 39.459 28.424L39.462 24.582C39.461 24.401 39.412 24.229 39.327 24.082" fill="#404142"/><path d="M35.133 26.504L39.327 24.082C39.241 23.932 39.118 23.807 38.962 23.716L35.63 21.791C35.475 21.703 35.302 21.657 35.13 21.659L35.131 26.501L35.133 26.504" fill="#53ba63"/><path d="M39.328 28.924L35.133 26.504L35.131 26.501L35.128 26.503L35.129 31.344L35.131 31.347C35.304 31.347 35.474 31.303 35.63 31.213L38.962 29.289C39.117 29.2 39.241 29.074 39.328 28.924" fill="#53ba63"/><path d="M35.131 26.501L35.13 21.659C34.955 21.657 34.785 21.701 34.632 21.789L31.3 23.713C31.144 23.803 31.022 23.931 30.936 24.081L35.128 26.503L35.131 26.501" fill="#404142"/><path d="M35.128 26.503L30.935 24.081C30.849 24.232 30.801 24.402 30.8 24.58L30.801 28.428C30.801 28.609 30.847 28.775 30.933 28.925L35.128 26.503" fill="#53ba63"/><path d="M35.129 31.344L35.128 26.502L30.934 28.924C31.02 29.074 31.145 29.203 31.301 29.293L34.63 31.213C34.786 31.303 34.959 31.35 35.131 31.347L35.129 31.344" fill="#404142"/><path d="M44.127 15.768L39.932 18.19L44.128 20.61C44.213 20.464 44.26 20.291 44.259 20.11L44.261 16.268C44.261 16.087 44.212 15.915 44.127 15.768" fill="#404142"/><path d="M39.933 18.19L44.128 15.768C44.041 15.618 43.918 15.493 43.762 15.402L40.43 13.477C40.275 13.389 40.102 13.343 39.93 13.346L39.931 18.187L39.933 18.19" fill="#53ba63"/><path d="M44.128 20.61L39.933 18.19L39.93 18.192L39.931 23.033C40.104 23.033 40.274 22.989 40.43 22.899L43.762 20.976C43.918 20.886 44.041 20.76 44.128 20.61" fill="#53ba63"/><path d="M39.931 18.187L39.93 13.345C39.755 13.342 39.585 13.387 39.432 13.475L36.099 15.396C35.943 15.486 35.821 15.614 35.734 15.764L35.736 15.767L39.931 18.187" fill="#404142"/></g><path d="M39.93 18.191L39.933 18.19L39.931 18.186L39.93 18.191" fill="#ffffff"/><g clip-path="url(#c15)"><path d="M39.931 18.187L35.736 15.767L35.734 15.764C35.647 15.914 35.599 16.084 35.6 16.265L35.601 20.114C35.601 20.294 35.649 20.463 35.735 20.613L39.93 18.192L39.931 18.187" fill="#53ba63"/><path d="M39.931 23.033L39.93 18.191L35.736 20.613C35.821 20.76 35.945 20.889 36.101 20.979L39.43 22.899C39.586 22.989 39.759 23.036 39.931 23.033" fill="#404142"/><path d="M34.527 15.768L30.333 18.19L34.528 20.61C34.613 20.464 34.66 20.291 34.659 20.11L34.662 16.268C34.661 16.087 34.612 15.915 34.527 15.768" fill="#53ba63"/><path d="M30.333 18.19L34.527 15.768C34.441 15.618 34.318 15.493 34.162 15.402L30.83 13.477C30.675 13.389 30.502 13.343 30.33 13.346L30.331 18.187L30.333 18.19" fill="#404142"/><path d="M34.528 20.61L30.333 18.19L30.33 18.192L30.331 23.033C30.504 23.033 30.674 22.989 30.83 22.899L34.162 20.976C34.317 20.886 34.441 20.76 34.528 20.61" fill="#404142"/><path d="M30.331 18.187L30.33 13.345C30.155 13.342 29.985 13.387 29.832 13.475L26.5 15.399C26.344 15.489 26.222 15.617 26.136 15.767L30.331 18.187" fill="#53ba63"/></g><path d="M30.33 18.191L30.333 18.19L30.331 18.186L30.33 18.191" fill="#ffffff"/><g clip-path="url(#c16)"><path d="M30.331 18.187L26.136 15.767C26.049 15.917 26.001 16.087 26 16.265L25.999 20.111C26 20.291 26.049 20.463 26.135 20.613L30.33 18.192L30.331 18.187" fill="#404142"/><path d="M30.331 23.033L30.33 18.192L26.136 20.613C26.222 20.763 26.345 20.889 26.501 20.98L29.83 22.899C29.986 22.989 30.159 23.036 30.331 23.033" fill="#53ba63"/><path d="M39.327 7.454L35.133 9.876L39.328 12.296C39.413 12.15 39.46 11.977 39.459 11.796L39.462 7.954C39.461 7.773 39.412 7.602 39.327 7.454" fill="#4cc9f5"/><path d="M35.133 9.876L39.327 7.454C39.241 7.304 39.118 7.179 38.962 7.088L35.63 5.163C35.473 5.072 35.302 5.029 35.132 5.027L35.13 5.031L35.131 9.873L35.133 9.876" fill="#4cc9f5"/><path d="M39.328 12.296L35.133 9.876L35.13 9.878L35.131 14.719C35.304 14.719 35.474 14.675 35.63 14.585L38.962 12.661C39.117 12.571 39.241 12.446 39.328 12.296" fill="#4cc9f5"/><path d="M35.13 5.032L35.131 5.028C34.958 5.027 34.787 5.072 34.631 5.162L31.3 7.085C31.144 7.175 31.022 7.304 30.935 7.454L35.131 9.874L35.13 5.032" fill="#4cc9f5"/></g><path d="M35.13 9.878L35.133 9.876L35.132 9.873L35.13 9.878" fill="#ffffff"/><g clip-path="url(#c17)"><path d="M35.131 9.873L30.936 7.453C30.849 7.603 30.801 7.773 30.8 7.951L30.801 11.8C30.801 11.98 30.849 12.149 30.935 12.299L35.13 9.878L35.131 9.873" fill="#404142"/><path d="M35.131 14.719L35.13 9.877L30.936 12.299C31.021 12.446 31.145 12.575 31.301 12.666L34.63 14.585C34.786 14.676 34.959 14.722 35.131 14.719" fill="#4cc9f5"/><path d="M29.727 7.454L25.532 9.876L29.728 12.296C29.813 12.15 29.86 11.977 29.859 11.796L29.862 7.954C29.861 7.773 29.812 7.602 29.727 7.454" fill="#404142"/><path d="M25.533 9.876L29.728 7.454C29.641 7.304 29.518 7.179 29.362 7.088L26.03 5.163C25.875 5.075 25.702 5.029 25.529 5.029L25.531 9.873L25.533 9.876" fill="#53ba63"/><path d="M29.728 12.296L25.533 9.876L25.53 9.878L25.531 14.719C25.704 14.719 25.874 14.675 26.03 14.585L29.362 12.661C29.517 12.571 29.641 12.446 29.728 12.296" fill="#53ba63"/><path d="M25.531 9.873L25.528 5.029C25.355 5.029 25.185 5.073 25.032 5.161L21.7 7.085C21.544 7.175 21.422 7.303 21.336 7.453L25.531 9.873" fill="#404142"/></g><path d="M25.53 9.878L25.533 9.876L25.531 9.873L25.53 9.878" fill="#5b9ad3"/><g clip-path="url(#c18)"><path d="M25.531 9.873L21.336 7.453C21.249 7.603 21.201 7.773 21.2 7.951L21.201 11.8C21.201 11.98 21.249 12.149 21.335 12.299L25.53 9.878L25.531 9.873" fill="#53ba63"/><path d="M25.531 14.719L25.53 9.877L21.336 12.299C21.421 12.446 21.545 12.575 21.701 12.666L25.03 14.585C25.186 14.676 25.359 14.722 25.531 14.719" fill="#404142"/></g><path d="M14.599 8.545L13.578 7.523" fill="none" stroke="#ffffff" stroke-width="0.667"/><path d="M18.282 12.227L17.261 11.206" fill="none" stroke="#ffffff" stroke-width="0.667" stroke-dasharray=".481 .481"/><path d="M14.112 9.388L12.717 9.014" fill="none" stroke="#ffffff" stroke-width="0.667"/><path d="M19.142 10.736L17.748 10.362" fill="none" stroke="#ffffff" stroke-width="0.667"/><path d="M14.112 10.363L12.718 10.737" fill="none" stroke="#ffffff" stroke-width="0.667"/><path d="M19.142 9.015L17.747 9.389" fill="none" stroke="#ffffff" stroke-width="0.667"/><path d="M14.599 11.206L13.578 12.227" fill="none" stroke="#ffffff" stroke-width="0.667" stroke-dasharray=".481 .481"/><path d="M18.282 7.524L17.261 8.545" fill="none" stroke="#ffffff" stroke-width="0.667"/><path d="M15.443 11.693L15.069 13.087" fill="none" stroke="#ffffff" stroke-width="0.667"/><path d="M16.79 6.663L16.416 8.058" fill="none" stroke="#ffffff" stroke-width="0.667" stroke-dasharray=".481 .481"/><path d="M16.416 11.693L16.79 13.087" fill="none" stroke="#ffffff" stroke-width="0.667"/><path d="M15.069 6.663L15.442 8.058" fill="none" stroke="#ffffff" stroke-width="0.667" stroke-dasharray=".481 .481"/><g clip-path="url(#c19)"><path d="M16.588 8.717L9.37 5.039L9.247 4.987L10.86 4.661C11.556 4.52 12.007 3.842 11.866 3.146C11.726 2.45 11.047 2 10.351 2.14L4.671 3.287C4.199 3.383 3.846 3.727 3.707 4.155C3.656 4.226 3.608 4.301 3.567 4.382L2.094 7.273L3.837 10.23L3.877 10.295C4.322 10.957 4.932 11.498 5.643 11.86L6.832 12.465C7.464 12.788 8.239 12.536 8.561 11.903C8.63 11.767 8.668 11.625 8.686 11.481C9.305 11.751 10.032 11.5 10.343 10.891C10.406 10.767 10.441 10.637 10.462 10.506C11.043 10.675 11.681 10.416 11.966 9.856C12.054 9.683 12.096 9.5 12.102 9.318L15.421 11.008C16.053 11.331 16.828 11.079 17.15 10.446C17.472 9.814 17.221 9.039 16.588 8.717" fill="#ffffff" stroke="#231f20" stroke-width="0.667" stroke-linejoin="round"/><path d="M95.403 40.71L91.209 43.132L95.404 45.552C95.489 45.406 95.536 45.233 95.535 45.052L95.538 41.21C95.537 41.029 95.488 40.857 95.403 40.71" fill="#404142"/><path d="M91.208 43.132L95.402 40.71C95.316 40.559 95.193 40.434 95.037 40.344L91.705 38.419C91.55 38.331 91.377 38.285 91.205 38.288L91.206 43.128L91.208 43.132" fill="#485a4c"/><path d="M95.404 45.551L91.209 43.131L91.206 43.133L91.207 47.974C91.38 47.974 91.55 47.93 91.706 47.84L95.038 45.917C95.193 45.827 95.317 45.701 95.404 45.551" fill="#4e7857"/><path d="M91.207 43.129L91.206 38.288C91.031 38.285 90.861 38.329 90.708 38.418L87.376 40.341C87.22 40.431 87.098 40.559 87.012 40.709L91.207 43.129" fill="#404142"/></g><path d="M91.205 43.133L91.209 43.131L91.207 43.128L91.205 43.133" fill="#404142"/><g clip-path="url(#c20)"><path d="M91.207 43.129L87.012 40.709C86.925 40.859 86.877 41.029 86.876 41.207L86.877 45.056C86.877 45.236 86.925 45.405 87.011 45.555L91.206 43.134L91.207 43.129" fill="#4e7857"/><path d="M91.206 47.975L91.205 43.133L87.011 45.555C87.096 45.702 87.22 45.831 87.376 45.921L90.705 47.841C90.861 47.931 91.034 47.978 91.206 47.975" fill="#404142"/><path d="M90.603 32.396L86.409 34.818L90.604 37.238C90.689 37.092 90.736 36.919 90.735 36.738L90.738 32.896C90.737 32.715 90.688 32.543 90.603 32.396" fill="#4e7857"/><path d="M86.408 34.818L90.602 32.396C90.516 32.246 90.393 32.121 90.237 32.03L86.905 30.105C86.75 30.017 86.577 29.971 86.405 29.974L86.406 34.815L86.408 34.818" fill="#404142"/><path d="M90.604 37.238L86.409 34.818L86.406 34.82L86.407 39.661C86.58 39.661 86.751 39.617 86.906 39.527L90.238 37.603C90.394 37.513 90.517 37.388 90.604 37.238" fill="#404142"/><path d="M86.407 34.815L86.406 29.974C86.231 29.97 86.061 30.015 85.908 30.103L82.576 32.027C82.42 32.117 82.298 32.245 82.212 32.395L86.407 34.815" fill="#485a4c"/></g><path d="M86.405 34.82L86.408 34.818L86.406 34.815L86.405 34.82" fill="#5b9ad3"/><g clip-path="url(#c21)"><path d="M86.407 34.815L82.212 32.395C82.125 32.545 82.077 32.715 82.076 32.893L82.077 36.742C82.077 36.922 82.125 37.091 82.211 37.241L86.406 34.82L86.407 34.815" fill="#404142"/><path d="M86.406 39.661L86.405 34.82L82.211 37.241C82.296 37.388 82.42 37.517 82.576 37.608L85.905 39.527C86.061 39.617 86.234 39.664 86.406 39.661" fill="#4e7857"/><path d="M85.803 40.71L81.609 43.132L85.804 45.552C85.889 45.406 85.936 45.233 85.935 45.052L85.938 41.21C85.937 41.029 85.888 40.857 85.803 40.71" fill="#404142"/><path d="M81.608 43.132L85.802 40.71C85.716 40.559 85.593 40.434 85.437 40.344L82.105 38.419C81.95 38.331 81.777 38.285 81.605 38.288L81.606 43.128L81.608 43.132" fill="#485a4c"/><path d="M85.804 45.551L81.609 43.131L81.606 43.133L81.607 47.974C81.78 47.974 81.95 47.93 82.106 47.84L85.438 45.917C85.594 45.827 85.718 45.701 85.804 45.551" fill="#4e7857"/><path d="M81.607 43.129L81.606 38.288C81.431 38.285 81.261 38.329 81.108 38.418L77.776 40.341C77.62 40.431 77.498 40.559 77.412 40.709L81.607 43.129" fill="#404142"/></g><path d="M81.606 43.133L81.609 43.131L81.607 43.128L81.606 43.133" fill="#ffffff"/><g clip-path="url(#c22)"><path d="M81.607 43.129L77.412 40.709C77.325 40.859 77.277 41.029 77.276 41.207L77.277 45.056C77.277 45.236 77.325 45.405 77.411 45.555L81.606 43.134L81.607 43.129" fill="#4e7857"/><path d="M81.606 47.975L81.605 43.133L77.411 45.555C77.496 45.702 77.62 45.831 77.776 45.921L81.105 47.841C81.261 47.931 81.434 47.978 81.606 47.975" fill="#404142"/><path d="M81.003 32.396L76.808 34.818L81.004 37.238C81.089 37.092 81.136 36.919 81.135 36.738L81.137 32.896C81.137 32.715 81.088 32.543 81.003 32.396" fill="#404142"/><path d="M76.808 34.818L81.003 32.396C80.916 32.246 80.793 32.121 80.637 32.03L77.305 30.105C77.15 30.017 76.977 29.971 76.805 29.974L76.806 34.815L76.808 34.818" fill="#4e7857"/><path d="M81.004 37.238L76.809 34.818L76.806 34.82L76.807 39.661C76.98 39.661 77.15 39.617 77.306 39.527L80.638 37.603C80.794 37.513 80.918 37.388 81.004 37.238" fill="#4e7857"/><path d="M76.807 34.815L76.806 29.974C76.631 29.97 76.461 30.015 76.308 30.103L72.976 32.027C72.82 32.117 72.698 32.245 72.612 32.395L76.807 34.815" fill="#404142"/></g><path d="M76.805 34.82L76.809 34.818L76.807 34.815L76.805 34.82" fill="#5b9ad3"/><g clip-path="url(#c23)"><path d="M76.807 34.815L72.612 32.395C72.525 32.545 72.477 32.715 72.476 32.893L72.477 36.742C72.477 36.922 72.525 37.091 72.611 37.241L76.806 34.82L76.807 34.815" fill="#485a4c"/><path d="M76.806 39.661L76.805 34.82L72.611 37.241C72.696 37.388 72.82 37.517 72.976 37.608L76.305 39.527C76.461 39.617 76.634 39.664 76.806 39.661" fill="#404142"/><path d="M76.203 24.082L72.008 26.504L76.204 28.924C76.289 28.778 76.336 28.605 76.335 28.424L76.337 24.582C76.337 24.401 76.288 24.229 76.203 24.082" fill="#404142"/><path d="M72.008 26.504L76.203 24.082C76.116 23.932 75.993 23.807 75.837 23.716L72.505 21.791C72.35 21.703 72.177 21.657 72.005 21.659L72.006 26.501L72.008 26.504" fill="#485a4c"/><path d="M76.204 28.924L72.009 26.504L72.006 26.506L72.007 31.347C72.18 31.347 72.35 31.303 72.506 31.213L75.838 29.289C75.994 29.2 76.118 29.074 76.204 28.924" fill="#4e7857"/><path d="M72.007 26.501L72.006 21.659C71.831 21.657 71.661 21.701 71.508 21.789L68.176 23.713C68.02 23.803 67.898 23.931 67.812 24.081L72.007 26.501" fill="#404142"/></g><path d="M72.005 26.505L72.008 26.503L72.006 26.5L72.005 26.505" fill="#5b9ad3"/><g clip-path="url(#c24)"><path d="M72.007 26.501L67.812 24.081C67.725 24.231 67.677 24.401 67.676 24.579L67.677 28.428C67.677 28.608 67.725 28.777 67.811 28.927L72.006 26.506L72.007 26.501" fill="#4e7857"/><path d="M72.006 31.347L72.005 26.505L67.811 28.927C67.896 29.074 68.02 29.203 68.176 29.293L71.505 31.213C71.661 31.303 71.834 31.35 72.006 31.347" fill="#404142"/><path d="M76.203 40.71L72.008 43.132L76.204 45.552C76.289 45.406 76.336 45.233 76.335 45.052L76.337 41.21C76.337 41.029 76.288 40.857 76.203 40.71" fill="#ba5237"/><path d="M72.008 43.132L76.203 40.71C76.116 40.559 75.993 40.434 75.837 40.344L72.505 38.419C72.35 38.331 72.177 38.285 72.005 38.288L72.006 43.128L72.008 43.132" fill="#ba5237"/><path d="M76.204 45.551L72.009 43.131L72.006 43.133L72.007 47.974C72.18 47.974 72.35 47.93 72.506 47.84L75.838 45.917C75.994 45.827 76.118 45.701 76.204 45.551" fill="#404142"/><path d="M72.007 43.129L72.006 38.288C71.831 38.285 71.661 38.329 71.508 38.418L68.176 40.341C68.02 40.431 67.898 40.559 67.812 40.709L72.007 43.129" fill="#ba5237"/></g><path d="M72.005 43.133L72.008 43.131L72.006 43.128L72.005 43.133" fill="#ffffff"/><g clip-path="url(#c25)"><path d="M72.007 43.129L67.812 40.709C67.725 40.859 67.677 41.029 67.676 41.207L67.677 45.056C67.677 45.236 67.725 45.405 67.811 45.555L72.006 43.134L72.007 43.129" fill="#404142"/><path d="M72.006 47.975L72.005 43.133L67.811 45.555C67.896 45.702 68.02 45.831 68.176 45.921L71.505 47.841C71.661 47.931 71.834 47.978 72.006 47.975" fill="#ba5237"/><path d="M71.403 32.396L67.209 34.818L71.404 37.238C71.489 37.092 71.536 36.919 71.535 36.738L71.538 32.896C71.537 32.715 71.488 32.543 71.403 32.396" fill="#404142"/><path d="M67.208 34.818L71.402 32.396C71.316 32.246 71.193 32.121 71.037 32.03L67.705 30.105C67.55 30.017 67.377 29.971 67.205 29.974L67.206 34.815L67.208 34.818" fill="#485a4c"/><path d="M71.404 37.238L67.209 34.818L67.206 34.82L67.207 39.661C67.38 39.661 67.55 39.617 67.706 39.527L71.038 37.603C71.193 37.513 71.317 37.388 71.404 37.238" fill="#4e7857"/><path d="M67.207 34.815L67.206 29.974C67.031 29.97 66.861 30.015 66.708 30.103L63.376 32.027C63.22 32.117 63.098 32.245 63.012 32.395L67.207 34.815" fill="#404142"/></g><path d="M67.206 34.82L67.209 34.818L67.207 34.815L67.206 34.82" fill="#5b9ad3"/><g clip-path="url(#c26)"><path d="M67.207 34.815L63.012 32.395C62.925 32.545 62.877 32.715 62.876 32.893L62.877 36.742C62.877 36.922 62.925 37.091 63.011 37.241L67.206 34.82L67.207 34.815" fill="#4e7857"/><path d="M67.206 39.661L67.205 34.82L63.011 37.241C63.096 37.388 63.22 37.517 63.376 37.608L66.705 39.527C66.861 39.617 67.034 39.664 67.206 39.661" fill="#404142"/><path d="M66.603 24.082L62.409 26.504L66.604 28.924C66.689 28.778 66.736 28.605 66.735 28.424L66.738 24.582C66.737 24.401 66.688 24.229 66.603 24.082" fill="#404142"/><path d="M62.408 26.504L66.602 24.082C66.516 23.932 66.393 23.807 66.237 23.716L62.905 21.791C62.75 21.703 62.577 21.657 62.405 21.659L62.406 26.501L62.408 26.504" fill="#4e7857"/><path d="M66.604 28.924L62.409 26.504L62.406 26.506L62.407 31.347C62.58 31.347 62.75 31.303 62.906 31.213L66.238 29.289C66.393 29.2 66.517 29.074 66.604 28.924" fill="#485a4c"/><path d="M62.407 26.501L62.406 21.659C62.231 21.657 62.061 21.701 61.908 21.789L58.576 23.713C58.42 23.803 58.298 23.931 58.212 24.081L62.407 26.501" fill="#404142"/></g><path d="M62.405 26.505L62.409 26.503L62.407 26.5L62.405 26.505" fill="#5b9ad3"/><g clip-path="url(#c27)"><path d="M62.407 26.501L58.212 24.081C58.125 24.231 58.077 24.401 58.076 24.579L58.077 28.428C58.077 28.608 58.125 28.777 58.211 28.927L62.406 26.506L62.407 26.501" fill="#4e7857"/><path d="M62.406 31.347L62.405 26.505L58.211 28.927C58.296 29.074 58.42 29.203 58.576 29.293L61.905 31.213C62.061 31.303 62.234 31.35 62.406 31.347" fill="#404142"/><path d="M81.003 15.768L76.808 18.19L81.004 20.61C81.089 20.464 81.136 20.291 81.135 20.11L81.137 16.268C81.137 16.087 81.088 15.915 81.003 15.768" fill="#4e7857"/><path d="M76.808 18.19L81.003 15.768C80.916 15.618 80.793 15.493 80.637 15.402L77.305 13.477C77.15 13.389 76.977 13.343 76.805 13.346L76.806 18.187L76.808 18.19" fill="#404142"/><path d="M81.004 20.61L76.809 18.19L76.806 18.192L76.807 23.033C76.98 23.033 77.15 22.989 77.306 22.899L80.638 20.976C80.794 20.886 80.918 20.76 81.004 20.61" fill="#404142"/><path d="M76.807 18.187L76.806 13.345C76.631 13.342 76.461 13.387 76.308 13.475L72.976 15.399C72.82 15.489 72.698 15.617 72.612 15.767L76.807 18.187" fill="#485a4c"/></g><path d="M76.805 18.191L76.809 18.19L76.807 18.186L76.805 18.191" fill="#404142"/><g clip-path="url(#c28)"><path d="M76.807 18.187L72.612 15.767C72.525 15.917 72.477 16.087 72.476 16.265L72.477 20.114C72.477 20.294 72.525 20.463 72.611 20.613L76.806 18.192L76.807 18.187" fill="#404142"/><path d="M76.806 23.033L76.805 18.192L72.611 20.613C72.696 20.76 72.82 20.889 72.976 20.98L76.305 22.899C76.461 22.989 76.634 23.036 76.806 23.033" fill="#4e7857"/><path d="M71.403 15.768L67.209 18.19L71.404 20.61C71.489 20.464 71.536 20.291 71.535 20.11L71.538 16.268C71.537 16.087 71.488 15.915 71.403 15.768" fill="#485a4c"/><path d="M67.208 18.19L71.402 15.768C71.316 15.618 71.193 15.493 71.037 15.402L67.705 13.477C67.55 13.389 67.377 13.343 67.205 13.346L67.206 18.187L67.208 18.19" fill="#404142"/><path d="M71.404 20.61L67.209 18.19L67.206 18.192L67.207 23.033C67.38 23.033 67.55 22.989 67.706 22.899L71.038 20.976C71.193 20.886 71.317 20.76 71.404 20.61" fill="#404142"/><path d="M67.207 18.187L67.206 13.345C67.031 13.342 66.861 13.387 66.708 13.475L63.376 15.399C63.22 15.489 63.098 15.617 63.012 15.767L67.207 18.187" fill="#4e7857"/></g><path d="M67.206 18.191L67.209 18.19L67.207 18.186L67.206 18.191" fill="#404142"/><g clip-path="url(#c29)"><path d="M67.207 18.187L63.012 15.767C62.925 15.917 62.877 16.087 62.876 16.265L62.877 20.114C62.877 20.294 62.925 20.463 63.011 20.613L67.206 18.192L67.207 18.187" fill="#404142"/><path d="M67.206 23.033L67.205 18.192L63.011 20.613C63.096 20.76 63.22 20.889 63.376 20.98L66.705 22.899C66.861 22.989 67.034 23.036 67.206 23.033" fill="#4e7857"/><path d="M76.203 7.454L72.008 9.876L76.204 12.296C76.289 12.15 76.336 11.977 76.335 11.796L76.337 7.954C76.337 7.773 76.288 7.602 76.203 7.454" fill="#4e7857"/><path d="M72.008 9.876L76.203 7.454C76.116 7.304 75.993 7.179 75.837 7.088L72.505 5.163C72.35 5.075 72.177 5.029 72.005 5.031L72.006 9.873L72.008 9.876" fill="#404142"/><path d="M76.204 12.296L72.009 9.876L72.006 9.878L72.007 14.719C72.18 14.719 72.35 14.675 72.506 14.585L75.838 12.661C75.994 12.571 76.118 12.446 76.204 12.296" fill="#404142"/><path d="M72.007 9.873L72.006 5.031C71.831 5.029 71.661 5.073 71.508 5.161L68.176 7.085C68.02 7.175 67.898 7.303 67.812 7.453L72.007 9.873" fill="#4e7857"/></g><path d="M72.005 9.878L72.008 9.876L72.006 9.873L72.005 9.878" fill="#ffffff"/><g clip-path="url(#c30)"><path d="M72.007 9.873L67.812 7.453C67.725 7.603 67.677 7.773 67.676 7.951L67.677 11.8C67.677 11.98 67.725 12.149 67.811 12.299L72.006 9.878L72.007 9.873" fill="#404142"/><path d="M72.006 14.719L72.005 9.877L67.811 12.299C67.896 12.446 68.02 12.575 68.176 12.666L71.505 14.585C71.661 14.676 71.834 14.722 72.006 14.719" fill="#485a4c"/><path d="M105.003 24.082L100.809 26.504L105.004 28.924C105.089 28.778 105.136 28.605 105.135 28.424L105.138 24.582C105.137 24.401 105.088 24.229 105.003 24.082" fill="#4e7857"/><path d="M100.808 26.504L105.002 24.082C104.916 23.932 104.793 23.807 104.637 23.716L101.305 21.791C101.15 21.703 100.977 21.657 100.805 21.659L100.806 26.501L100.808 26.504" fill="#404142"/><path d="M105.004 28.924L100.809 26.504L100.806 26.506L100.807 31.347C100.98 31.348 101.15 31.303 101.306 31.213L104.638 29.289C104.793 29.2 104.917 29.074 105.004 28.924" fill="#404142"/><path d="M100.807 26.501L100.806 21.659C100.631 21.657 100.461 21.701 100.308 21.789L96.976 23.713C96.82 23.803 96.698 23.931 96.612 24.081L100.807 26.501" fill="#4e7857"/></g><path d="M100.805 26.505L100.808 26.503L100.807 26.5L100.805 26.505" fill="#5b9ad3"/><g clip-path="url(#c31)"><path d="M100.807 26.501L96.612 24.081C96.525 24.231 96.477 24.401 96.476 24.579L96.477 28.428C96.477 28.608 96.525 28.777 96.611 28.927L100.806 26.506L100.807 26.501" fill="#404142"/><path d="M100.806 31.347L100.805 26.505L96.611 28.927C96.696 29.074 96.82 29.203 96.976 29.293L100.305 31.213C100.461 31.303 100.634 31.35 100.806 31.347" fill="#485a4c"/><path d="M100.203 32.396L96.009 34.818L100.204 37.238C100.289 37.092 100.336 36.919 100.335 36.738L100.338 32.896C100.337 32.715 100.288 32.543 100.203 32.396" fill="#485a4c"/><path d="M96.008 34.818L100.202 32.396C100.116 32.246 99.993 32.121 99.837 32.03L96.505 30.105C96.35 30.017 96.177 29.971 96.005 29.974L96.006 34.815L96.008 34.818" fill="#404142"/><path d="M100.204 37.238L96.009 34.818L96.006 34.82L96.007 39.661C96.18 39.661 96.35 39.617 96.506 39.527L99.838 37.603C99.993 37.513 100.117 37.388 100.204 37.238" fill="#404142"/><path d="M96.007 34.815L96.006 29.974C95.831 29.97 95.661 30.015 95.508 30.103L92.176 32.027C92.02 32.117 91.898 32.245 91.812 32.395L96.007 34.815" fill="#4e7857"/></g><path d="M96.006 34.82L96.009 34.818L96.007 34.815L96.006 34.82" fill="#5b9ad3"/><g clip-path="url(#c32)"><path d="M96.007 34.815L91.812 32.395C91.725 32.545 91.677 32.715 91.676 32.893L91.677 36.742C91.677 36.922 91.725 37.091 91.811 37.241L96.006 34.82L96.007 34.815" fill="#404142"/><path d="M96.006 39.661L96.005 34.82L91.811 37.241C91.896 37.388 92.02 37.517 92.176 37.608L95.505 39.527C95.661 39.617 95.834 39.664 96.006 39.661" fill="#4e7857"/><path d="M95.403 24.082L91.209 26.504L95.404 28.924C95.489 28.778 95.536 28.605 95.535 28.424L95.538 24.582C95.537 24.401 95.488 24.229 95.403 24.082" fill="#404142"/><path d="M91.209 26.504L95.403 24.082C95.317 23.932 95.194 23.807 95.037 23.716L91.705 21.791C91.55 21.703 91.378 21.657 91.205 21.659L91.207 26.501L91.209 26.504" fill="#4e7857"/><path d="M95.404 28.924L91.209 26.504L91.207 26.501L91.204 26.503L91.205 31.344L91.207 31.347C91.38 31.347 91.55 31.303 91.706 31.213L95.038 29.289C95.193 29.2 95.317 29.074 95.404 28.924" fill="#485a4c"/><path d="M91.207 26.501L91.206 21.659C91.031 21.657 90.861 21.701 90.708 21.789L87.376 23.713C87.22 23.803 87.098 23.931 87.012 24.081L91.204 26.503L91.207 26.501" fill="#404142"/><path d="M91.204 26.503L87.011 24.081C86.925 24.232 86.877 24.402 86.876 24.58L86.877 28.428C86.877 28.609 86.923 28.775 87.009 28.925L91.204 26.503" fill="#4e7857"/><path d="M91.205 31.344L91.204 26.502L87.01 28.924C87.096 29.074 87.221 29.203 87.377 29.293L90.706 31.213C90.862 31.303 91.035 31.35 91.207 31.347L91.205 31.344" fill="#404142"/><path d="M100.203 15.768L96.009 18.19L100.204 20.61C100.289 20.464 100.336 20.291 100.335 20.11L100.338 16.268C100.337 16.087 100.288 15.915 100.203 15.768" fill="#404142"/><path d="M96.008 18.19L100.202 15.768C100.116 15.618 99.993 15.493 99.837 15.402L96.505 13.477C96.35 13.389 96.177 13.343 96.005 13.346L96.006 18.187L96.008 18.19" fill="#4e7857"/><path d="M100.204 20.61L96.009 18.19L96.006 18.192L96.007 23.033C96.18 23.033 96.35 22.989 96.506 22.899L99.838 20.976C99.993 20.886 100.117 20.76 100.204 20.61" fill="#4e7857"/><path d="M96.007 18.187L96.006 13.345C95.831 13.342 95.661 13.387 95.508 13.475L92.175 15.396C92.019 15.486 91.897 15.614 91.81 15.764L91.812 15.767L96.007 18.187" fill="#404142"/></g><path d="M96.006 18.191L96.009 18.19L96.007 18.186L96.006 18.191" fill="#ffffff"/><g clip-path="url(#c33)"><path d="M96.007 18.187L91.812 15.767L91.81 15.764C91.723 15.914 91.675 16.084 91.676 16.265L91.677 20.114C91.677 20.294 91.725 20.463 91.811 20.613L96.006 18.192L96.007 18.187" fill="#485a4c"/><path d="M96.006 23.033L96.005 18.191L91.811 20.613C91.896 20.76 92.02 20.889 92.176 20.979L95.505 22.899C95.661 22.989 95.834 23.036 96.006 23.033" fill="#404142"/><path d="M90.603 15.768L86.409 18.19L90.604 20.61C90.689 20.464 90.736 20.291 90.735 20.11L90.738 16.268C90.737 16.087 90.688 15.915 90.603 15.768" fill="#485a4c"/><path d="M86.409 18.19L90.603 15.768C90.517 15.618 90.394 15.493 90.237 15.402L86.905 13.477C86.75 13.389 86.578 13.343 86.405 13.346L86.407 18.187L86.409 18.19" fill="#404142"/><path d="M90.604 20.61L86.409 18.19L86.406 18.192L86.407 23.033C86.58 23.033 86.75 22.989 86.906 22.899L90.238 20.976C90.394 20.886 90.517 20.76 90.604 20.61" fill="#404142"/><path d="M86.407 18.187L86.406 13.345C86.231 13.342 86.061 13.387 85.908 13.475L82.576 15.399C82.42 15.489 82.298 15.617 82.212 15.767L86.407 18.187" fill="#4e7857"/></g><path d="M86.405 18.191L86.408 18.19L86.407 18.186L86.405 18.191" fill="#ffffff"/><g clip-path="url(#c34)"><path d="M86.407 18.187L82.212 15.767C82.125 15.917 82.077 16.087 82.076 16.265L82.075 20.111C82.076 20.291 82.125 20.463 82.211 20.613L86.406 18.192L86.407 18.187" fill="#404142"/><path d="M86.407 23.033L86.405 18.192L82.211 20.613C82.298 20.763 82.42 20.889 82.576 20.98L85.905 22.899C86.062 22.989 86.235 23.036 86.407 23.033" fill="#4e7857"/><path d="M95.403 7.454L91.209 9.876L95.404 12.296C95.489 12.15 95.536 11.977 95.535 11.796L95.538 7.954C95.537 7.773 95.488 7.602 95.403 7.454" fill="#589eb5"/><path d="M91.209 9.876L95.403 7.454C95.317 7.304 95.194 7.179 95.037 7.088L91.705 5.163C91.549 5.072 91.378 5.029 91.207 5.027L91.205 5.031L91.207 9.873L91.209 9.876" fill="#589eb5"/><path d="M95.404 12.296L91.209 9.876L91.206 9.878L91.207 14.719C91.38 14.719 91.55 14.675 91.706 14.585L95.038 12.661C95.193 12.571 95.317 12.446 95.404 12.296" fill="#589eb5"/><path d="M91.206 5.032L91.207 5.028C91.034 5.027 90.863 5.072 90.708 5.162L87.376 7.085C87.22 7.175 87.098 7.304 87.012 7.454L91.207 9.874L91.206 5.032" fill="#589eb5"/></g><path d="M91.206 9.878L91.209 9.876L91.207 9.873L91.206 9.878" fill="#ffffff"/><g clip-path="url(#c35)"><path d="M91.207 9.873L87.012 7.453C86.925 7.603 86.877 7.773 86.876 7.951L86.877 11.8C86.877 11.98 86.925 12.149 87.011 12.299L91.206 9.878L91.207 9.873" fill="#404142"/><path d="M91.207 14.719L91.205 9.877L87.011 12.299C87.097 12.446 87.221 12.575 87.377 12.666L90.705 14.585C90.862 14.676 91.035 14.722 91.207 14.719" fill="#589eb5"/><path d="M85.803 7.454L81.609 9.876L85.804 12.296C85.889 12.15 85.936 11.977 85.935 11.796L85.938 7.954C85.937 7.773 85.888 7.602 85.803 7.454" fill="#404142"/><path d="M81.608 9.876L85.802 7.454C85.716 7.304 85.593 7.179 85.437 7.088L82.105 5.163C81.95 5.075 81.778 5.029 81.604 5.029L81.606 9.873L81.608 9.876" fill="#4e7857"/><path d="M85.804 12.296L81.609 9.876L81.606 9.878L81.607 14.719C81.78 14.719 81.951 14.675 82.106 14.585L85.438 12.661C85.594 12.571 85.718 12.446 85.804 12.296" fill="#485a4c"/><path d="M81.607 9.873L81.604 5.029C81.431 5.029 81.261 5.073 81.108 5.161L77.776 7.085C77.62 7.175 77.498 7.303 77.412 7.453L81.607 9.873" fill="#404142"/></g><path d="M81.606 9.878L81.609 9.876L81.607 9.873L81.606 9.878" fill="#5b9ad3"/><g clip-path="url(#c36)"><path d="M81.607 9.873L77.412 7.453C77.325 7.603 77.277 7.773 77.276 7.951L77.277 11.8C77.277 11.98 77.325 12.149 77.411 12.299L81.606 9.878L81.607 9.873" fill="#4e7857"/><path d="M81.606 14.719L81.605 9.877L77.411 12.299C77.496 12.446 77.621 12.575 77.776 12.666L81.105 14.585C81.261 14.676 81.435 14.722 81.606 14.719" fill="#404142"/><path d="M151.478 40.71L147.283 43.132L151.479 45.552C151.564 45.406 151.611 45.233 151.61 45.052L151.613 41.21C151.612 41.029 151.563 40.857 151.478 40.71" fill="#404142"/><path d="M147.284 43.132L151.479 40.71C151.392 40.559 151.269 40.434 151.113 40.344L147.781 38.419C147.626 38.331 147.453 38.285 147.281 38.288L147.282 43.128L147.284 43.132" fill="#53ba63"/><path d="M151.479 45.551L147.284 43.131L147.281 43.133L147.282 47.974C147.455 47.974 147.625 47.93 147.781 47.84L151.113 45.917C151.268 45.827 151.392 45.701 151.479 45.551" fill="#53ba63"/><path d="M147.282 43.129L147.281 38.288C147.106 38.285 146.936 38.329 146.783 38.418L143.451 40.341C143.295 40.431 143.173 40.559 143.087 40.709L147.282 43.129" fill="#404142"/></g><path d="M147.281 43.133L147.284 43.131L147.282 43.128L147.281 43.133" fill="#404142"/><g clip-path="url(#c37)"><path d="M147.282 43.129L143.087 40.709C143 40.859 142.952 41.029 142.951 41.207L142.952 45.056C142.952 45.236 143 45.405 143.086 45.555L147.281 43.134L147.282 43.129" fill="#53ba63"/><path d="M147.282 47.975L147.281 43.133L143.087 45.555C143.172 45.702 143.296 45.831 143.452 45.921L146.781 47.841C146.937 47.931 147.11 47.978 147.282 47.975" fill="#404142"/><path d="M146.678 32.396L142.483 34.818L146.679 37.238C146.764 37.092 146.811 36.919 146.81 36.738L146.813 32.896C146.812 32.715 146.763 32.543 146.678 32.396" fill="#53ba63"/><path d="M142.484 34.818L146.679 32.396C146.592 32.246 146.469 32.121 146.313 32.03L142.981 30.105C142.826 30.017 142.653 29.971 142.481 29.974L142.482 34.815L142.484 34.818" fill="#404142"/><path d="M146.679 37.238L142.484 34.818L142.481 34.82L142.482 39.661C142.655 39.661 142.825 39.617 142.981 39.527L146.313 37.603C146.468 37.513 146.592 37.388 146.679 37.238" fill="#404142"/><path d="M142.482 34.815L142.481 29.974C142.306 29.97 142.136 30.015 141.983 30.103L138.651 32.027C138.496 32.117 138.373 32.245 138.287 32.395L142.482 34.815" fill="#53ba63"/></g><path d="M142.481 34.82L142.484 34.818L142.483 34.815L142.481 34.82" fill="#5b9ad3"/><g clip-path="url(#c38)"><path d="M142.482 34.815L138.287 32.395C138.2 32.545 138.152 32.715 138.151 32.893L138.152 36.742C138.152 36.922 138.2 37.091 138.286 37.241L142.481 34.82L142.482 34.815" fill="#404142"/><path d="M142.482 39.661L142.481 34.82L138.287 37.241C138.372 37.388 138.496 37.517 138.652 37.608L141.981 39.527C142.137 39.617 142.31 39.664 142.482 39.661" fill="#53ba63"/><path d="M141.878 40.71L137.683 43.132L141.879 45.552C141.964 45.406 142.011 45.233 142.01 45.052L142.012 41.21C142.012 41.029 141.963 40.857 141.878 40.71" fill="#404142"/><path d="M137.684 43.132L141.879 40.71C141.792 40.559 141.669 40.434 141.513 40.344L138.181 38.419C138.026 38.331 137.853 38.285 137.681 38.288L137.682 43.128L137.684 43.132" fill="#53ba63"/><path d="M141.879 45.551L137.684 43.131L137.681 43.133L137.682 47.974C137.855 47.974 138.025 47.93 138.181 47.84L141.513 45.917C141.669 45.827 141.792 45.701 141.879 45.551" fill="#53ba63"/><path d="M137.682 43.129L137.681 38.288C137.506 38.285 137.336 38.329 137.183 38.418L133.851 40.341C133.695 40.431 133.573 40.559 133.487 40.709L137.682 43.129" fill="#404142"/></g><path d="M137.681 43.133L137.684 43.131L137.682 43.128L137.681 43.133" fill="#ffffff"/><g clip-path="url(#c39)"><path d="M137.682 43.129L133.487 40.709C133.4 40.859 133.352 41.029 133.351 41.207L133.352 45.056C133.352 45.236 133.4 45.405 133.486 45.555L137.681 43.134L137.682 43.129" fill="#53ba63"/><path d="M137.682 47.975L137.681 43.133L133.487 45.555C133.572 45.702 133.696 45.831 133.852 45.921L137.181 47.841C137.337 47.931 137.51 47.978 137.682 47.975" fill="#404142"/><path d="M137.078 32.396L132.884 34.818L137.079 37.238C137.164 37.092 137.211 36.919 137.21 36.738L137.213 32.896C137.212 32.715 137.163 32.543 137.078 32.396" fill="#404142"/><path d="M132.884 34.818L137.078 32.396C136.992 32.246 136.869 32.121 136.713 32.03L133.381 30.105C133.226 30.017 133.053 29.971 132.881 29.974L132.882 34.815L132.884 34.818" fill="#53ba63"/><path d="M137.079 37.238L132.884 34.818L132.881 34.82L132.882 39.661C133.055 39.661 133.225 39.617 133.381 39.527L136.713 37.603C136.868 37.513 136.992 37.388 137.079 37.238" fill="#53ba63"/><path d="M132.882 34.815L132.881 29.974C132.706 29.97 132.536 30.015 132.383 30.103L129.051 32.027C128.895 32.117 128.773 32.245 128.687 32.395L132.882 34.815" fill="#404142"/></g><path d="M132.881 34.82L132.884 34.818L132.882 34.815L132.881 34.82" fill="#5b9ad3"/><g clip-path="url(#c40)"><path d="M132.882 34.815L128.687 32.395C128.6 32.545 128.552 32.715 128.551 32.893L128.552 36.742C128.552 36.922 128.6 37.091 128.686 37.241L132.881 34.82L132.882 34.815" fill="#53ba63"/><path d="M132.882 39.661L132.881 34.82L128.687 37.241C128.772 37.388 128.896 37.517 129.052 37.608L132.381 39.527C132.537 39.617 132.71 39.664 132.882 39.661" fill="#404142"/><path d="M132.278 24.082L128.084 26.504L132.279 28.924C132.364 28.778 132.411 28.605 132.41 28.424L132.413 24.582C132.412 24.401 132.363 24.229 132.278 24.082" fill="#404142"/><path d="M128.084 26.504L132.278 24.082C132.192 23.932 132.069 23.807 131.913 23.716L128.581 21.791C128.426 21.703 128.253 21.657 128.081 21.659L128.082 26.501L128.084 26.504" fill="#53ba63"/><path d="M132.279 28.924L128.084 26.504L128.081 26.506L128.082 31.347C128.255 31.347 128.425 31.303 128.581 31.213L131.913 29.289C132.068 29.2 132.192 29.074 132.279 28.924" fill="#53ba63"/><path d="M128.082 26.501L128.081 21.659C127.906 21.657 127.736 21.701 127.583 21.789L124.251 23.713C124.095 23.803 123.973 23.931 123.887 24.081L128.082 26.501" fill="#404142"/></g><path d="M128.081 26.505L128.084 26.503L128.083 26.5L128.081 26.505" fill="#5b9ad3"/><g clip-path="url(#c41)"><path d="M128.082 26.501L123.887 24.081C123.8 24.231 123.752 24.401 123.751 24.579L123.752 28.428C123.752 28.608 123.8 28.777 123.886 28.927L128.081 26.506L128.082 26.501" fill="#53ba63"/><path d="M128.082 31.347L128.081 26.505L123.887 28.927C123.972 29.074 124.096 29.203 124.252 29.293L127.581 31.213C127.737 31.303 127.91 31.35 128.082 31.347" fill="#404142"/><path d="M127.478 32.396L123.283 34.818L127.479 37.238C127.564 37.092 127.611 36.919 127.61 36.738L127.613 32.896C127.612 32.715 127.563 32.543 127.478 32.396" fill="#404142"/><path d="M123.284 34.818L127.479 32.396C127.392 32.246 127.269 32.121 127.113 32.03L123.781 30.105C123.626 30.017 123.453 29.971 123.281 29.974L123.282 34.815L123.284 34.818" fill="#53ba63"/><path d="M127.479 37.238L123.284 34.818L123.281 34.82L123.282 39.661C123.455 39.661 123.625 39.617 123.781 39.527L127.113 37.603C127.268 37.513 127.392 37.388 127.479 37.238" fill="#53ba63"/><path d="M123.282 34.815L123.281 29.974C123.106 29.97 122.936 30.015 122.783 30.103L119.451 32.027C119.295 32.117 119.173 32.245 119.087 32.395L123.282 34.815" fill="#404142"/></g><path d="M123.281 34.82L123.284 34.818L123.282 34.815L123.281 34.82" fill="#5b9ad3"/><g clip-path="url(#c42)"><path d="M123.282 34.815L119.087 32.395C119 32.545 118.952 32.715 118.951 32.893L118.952 36.742C118.952 36.922 119 37.091 119.086 37.241L123.281 34.82L123.282 34.815" fill="#53ba63"/><path d="M123.282 39.661L123.281 34.82L119.087 37.241C119.172 37.388 119.296 37.517 119.452 37.608L122.781 39.527C122.937 39.617 123.11 39.664 123.282 39.661" fill="#404142"/><path d="M122.678 24.082L118.483 26.504L122.679 28.924C122.764 28.778 122.811 28.605 122.81 28.424L122.813 24.582C122.812 24.401 122.763 24.229 122.678 24.082" fill="#404142"/><path d="M118.484 26.504L122.679 24.082C122.592 23.932 122.469 23.807 122.313 23.716L118.981 21.791C118.826 21.703 118.653 21.657 118.481 21.659L118.482 26.501L118.484 26.504" fill="#53ba63"/><path d="M122.679 28.924L118.484 26.504L118.481 26.506L118.482 31.347C118.655 31.347 118.825 31.303 118.981 31.213L122.313 29.289C122.468 29.2 122.592 29.074 122.679 28.924" fill="#53ba63"/><path d="M118.482 26.501L118.481 21.659C118.306 21.657 118.136 21.701 117.983 21.789L114.651 23.713C114.495 23.803 114.373 23.931 114.287 24.081L118.482 26.501" fill="#404142"/></g><path d="M118.481 26.505L118.484 26.503L118.482 26.5L118.481 26.505" fill="#5b9ad3"/><g clip-path="url(#c43)"><path d="M118.482 26.501L114.287 24.081C114.2 24.231 114.152 24.401 114.151 24.579L114.152 28.428C114.152 28.608 114.2 28.777 114.286 28.927L118.481 26.506L118.482 26.501" fill="#53ba63"/><path d="M118.482 31.347L118.481 26.505L114.287 28.927C114.372 29.074 114.496 29.203 114.652 29.293L117.981 31.213C118.137 31.303 118.311 31.35 118.482 31.347" fill="#404142"/><path d="M137.078 15.768L132.884 18.19L137.079 20.61C137.164 20.464 137.211 20.291 137.21 20.11L137.213 16.268C137.212 16.087 137.163 15.915 137.078 15.768" fill="#53ba63"/><path d="M132.884 18.19L137.078 15.768C136.992 15.618 136.869 15.493 136.713 15.402L133.381 13.477C133.226 13.389 133.053 13.343 132.881 13.346L132.882 18.187L132.884 18.19" fill="#404142"/><path d="M137.079 20.61L132.884 18.19L132.881 18.192L132.882 23.033C133.055 23.033 133.225 22.989 133.381 22.899L136.713 20.976C136.868 20.886 136.992 20.76 137.079 20.61" fill="#404142"/><path d="M132.882 18.187L132.881 13.345C132.706 13.342 132.536 13.387 132.383 13.475L129.051 15.399C128.895 15.489 128.773 15.617 128.687 15.767L132.882 18.187" fill="#53ba63"/></g><path d="M132.881 18.191L132.884 18.19L132.882 18.186L132.881 18.191" fill="#404142"/><g clip-path="url(#c44)"><path d="M132.882 18.187L128.687 15.767C128.6 15.917 128.552 16.087 128.551 16.265L128.552 20.114C128.552 20.294 128.6 20.463 128.686 20.613L132.881 18.192L132.882 18.187" fill="#404142"/><path d="M132.882 23.033L132.881 18.192L128.687 20.613C128.772 20.76 128.896 20.889 129.052 20.98L132.381 22.899C132.537 22.989 132.71 23.036 132.882 23.033" fill="#53ba63"/><path d="M127.478 15.768L123.283 18.19L127.479 20.61C127.564 20.464 127.611 20.291 127.61 20.11L127.613 16.268C127.612 16.087 127.563 15.915 127.478 15.768" fill="#53ba63"/><path d="M123.284 18.19L127.479 15.768C127.392 15.618 127.269 15.493 127.113 15.402L123.781 13.477C123.626 13.389 123.453 13.343 123.281 13.346L123.282 18.187L123.284 18.19" fill="#404142"/><path d="M127.479 20.61L123.284 18.19L123.281 18.192L123.282 23.033C123.455 23.033 123.625 22.989 123.781 22.899L127.113 20.976C127.268 20.886 127.392 20.76 127.479 20.61" fill="#404142"/><path d="M123.282 18.187L123.281 13.345C123.106 13.342 122.936 13.387 122.783 13.475L119.451 15.399C119.295 15.489 119.173 15.617 119.087 15.767L123.282 18.187" fill="#53ba63"/></g><path d="M123.281 18.191L123.284 18.19L123.282 18.186L123.281 18.191" fill="#404142"/><g clip-path="url(#c45)"><path d="M123.282 18.187L119.087 15.767C119 15.917 118.952 16.087 118.951 16.265L118.952 20.114C118.952 20.294 119 20.463 119.086 20.613L123.281 18.192L123.282 18.187" fill="#404142"/><path d="M123.282 23.033L123.281 18.192L119.087 20.613C119.172 20.76 119.296 20.889 119.452 20.98L122.781 22.899C122.937 22.989 123.11 23.036 123.282 23.033" fill="#53ba63"/><path d="M132.278 7.454L128.084 9.876L132.279 12.296C132.364 12.15 132.411 11.977 132.41 11.796L132.413 7.954C132.412 7.773 132.363 7.602 132.278 7.454" fill="#53ba63"/><path d="M128.084 9.876L132.278 7.454C132.192 7.304 132.069 7.179 131.913 7.088L128.581 5.163C128.426 5.075 128.253 5.029 128.081 5.031L128.082 9.873L128.084 9.876" fill="#404142"/><path d="M132.279 12.296L128.084 9.876L128.081 9.878L128.082 14.719C128.255 14.719 128.425 14.675 128.581 14.585L131.913 12.661C132.068 12.571 132.192 12.446 132.279 12.296" fill="#404142"/><path d="M128.082 9.873L128.081 5.031C127.906 5.029 127.736 5.073 127.583 5.161L124.251 7.085C124.095 7.175 123.973 7.303 123.887 7.453L128.082 9.873" fill="#53ba63"/></g><path d="M128.081 9.878L128.084 9.876L128.083 9.873L128.081 9.878" fill="#ffffff"/><g clip-path="url(#c46)"><path d="M128.082 9.873L123.887 7.453C123.8 7.603 123.752 7.773 123.751 7.951L123.752 11.8C123.752 11.98 123.8 12.149 123.886 12.299L128.081 9.878L128.082 9.873" fill="#404142"/><path d="M128.082 14.719L128.081 9.877L123.887 12.299C123.972 12.446 124.096 12.575 124.252 12.666L127.581 14.585C127.737 14.676 127.91 14.722 128.082 14.719" fill="#53ba63"/><path d="M161.078 24.082L156.884 26.504L161.08 28.924C161.164 28.778 161.211 28.605 161.211 28.424L161.213 24.582C161.213 24.401 161.164 24.229 161.078 24.082" fill="#53ba63"/><path d="M156.884 26.504L161.078 24.082C160.992 23.932 160.869 23.807 160.713 23.716L157.381 21.791C157.226 21.703 157.053 21.657 156.881 21.659L156.882 26.501L156.884 26.504" fill="#404142"/><path d="M161.079 28.924L156.884 26.504L156.881 26.506L156.882 31.347C157.055 31.348 157.225 31.303 157.381 31.213L160.713 29.289C160.869 29.2 160.993 29.074 161.079 28.924" fill="#404142"/><path d="M156.882 26.501L156.881 21.659C156.706 21.657 156.536 21.701 156.383 21.789L153.051 23.713C152.895 23.803 152.773 23.931 152.687 24.081L156.882 26.501" fill="#53ba63"/></g><path d="M156.881 26.505L156.885 26.503L156.883 26.5L156.881 26.505" fill="#5b9ad3"/><g clip-path="url(#c47)"><path d="M156.882 26.501L152.687 24.081C152.6 24.231 152.552 24.401 152.551 24.579L152.552 28.428C152.552 28.608 152.6 28.777 152.686 28.927L156.881 26.506L156.882 26.501" fill="#404142"/><path d="M156.882 31.347L156.881 26.505L152.687 28.927C152.772 29.074 152.896 29.203 153.052 29.293L156.381 31.213C156.537 31.303 156.71 31.35 156.882 31.347" fill="#53ba63"/><path d="M156.279 32.396L152.084 34.818L156.28 37.238C156.365 37.092 156.412 36.919 156.411 36.738L156.413 32.896C156.413 32.715 156.364 32.543 156.279 32.396" fill="#53ba63"/><path d="M152.084 34.818L156.279 32.396C156.192 32.246 156.069 32.121 155.913 32.03L152.581 30.105C152.426 30.017 152.253 29.971 152.081 29.974L152.082 34.815L152.084 34.818" fill="#404142"/><path d="M156.279 37.238L152.084 34.818L152.081 34.82L152.082 39.661C152.255 39.661 152.425 39.617 152.581 39.527L155.913 37.603C156.069 37.513 156.192 37.388 156.279 37.238" fill="#404142"/><path d="M152.082 34.815L152.081 29.974C151.906 29.97 151.736 30.015 151.583 30.103L148.251 32.027C148.095 32.117 147.973 32.245 147.887 32.395L152.082 34.815" fill="#53ba63"/></g><path d="M152.081 34.82L152.084 34.818L152.082 34.815L152.081 34.82" fill="#5b9ad3"/><g clip-path="url(#c48)"><path d="M152.082 34.815L147.887 32.395C147.8 32.545 147.752 32.715 147.751 32.893L147.752 36.742C147.752 36.922 147.8 37.091 147.886 37.241L152.081 34.82L152.082 34.815" fill="#404142"/><path d="M152.082 39.661L152.081 34.82L147.887 37.241C147.972 37.388 148.096 37.517 148.252 37.608L151.581 39.527C151.737 39.617 151.91 39.664 152.082 39.661" fill="#53ba63"/><path d="M151.479 24.082L147.285 26.504L151.48 28.924C151.565 28.778 151.612 28.605 151.611 28.424L151.614 24.582C151.613 24.401 151.564 24.229 151.479 24.082" fill="#404142"/><path d="M147.284 26.504L151.478 24.082C151.392 23.932 151.269 23.807 151.113 23.716L147.781 21.791C147.626 21.703 147.453 21.657 147.281 21.659L147.282 26.501L147.284 26.504" fill="#53ba63"/><path d="M151.479 28.924L147.284 26.504L147.282 26.501L147.28 26.503L147.28 31.344L147.282 31.347C147.455 31.347 147.625 31.303 147.782 31.213L151.114 29.289C151.269 29.2 151.392 29.074 151.479 28.924" fill="#53ba63"/><path d="M147.282 26.501L147.281 21.659C147.106 21.657 146.936 21.701 146.783 21.789L143.451 23.713C143.295 23.803 143.173 23.931 143.087 24.081L147.279 26.503L147.282 26.501" fill="#404142"/><path d="M147.28 26.503L143.088 24.081C143 24.232 142.953 24.402 142.951 24.58L142.953 28.428C142.953 28.609 142.998 28.775 143.086 28.925L147.28 26.503" fill="#53ba63"/><path d="M147.28 31.344L147.279 26.502L143.085 28.924C143.171 29.074 143.296 29.203 143.452 29.293L146.781 31.213C146.937 31.303 147.11 31.35 147.282 31.347L147.28 31.344" fill="#404142"/><path d="M156.279 15.768L152.084 18.19L156.28 20.61C156.365 20.464 156.412 20.291 156.411 20.11L156.413 16.268C156.413 16.087 156.364 15.915 156.279 15.768" fill="#404142"/><path d="M152.084 18.19L156.279 15.768C156.192 15.618 156.069 15.493 155.913 15.402L152.581 13.477C152.426 13.389 152.253 13.343 152.081 13.346L152.082 18.187L152.084 18.19" fill="#53ba63"/><path d="M156.279 20.61L152.084 18.19L152.081 18.192L152.082 23.033C152.255 23.033 152.425 22.989 152.581 22.899L155.913 20.976C156.069 20.886 156.192 20.76 156.279 20.61" fill="#53ba63"/><path d="M152.082 18.187L152.081 13.345C151.906 13.342 151.736 13.387 151.583 13.475L148.25 15.396C148.094 15.486 147.972 15.614 147.885 15.764L147.887 15.767L152.082 18.187" fill="#404142"/></g><path d="M152.081 18.191L152.084 18.19L152.082 18.186L152.081 18.191" fill="#ffffff"/><g clip-path="url(#c49)"><path d="M152.082 18.187L147.887 15.767L147.885 15.764C147.798 15.914 147.75 16.084 147.751 16.265L147.752 20.114C147.752 20.294 147.8 20.463 147.886 20.613L152.081 18.192L152.082 18.187" fill="#53ba63"/><path d="M152.082 23.033L152.081 18.191L147.887 20.613C147.972 20.76 148.096 20.889 148.252 20.979L151.581 22.899C151.737 22.989 151.91 23.036 152.082 23.033" fill="#404142"/><path d="M146.679 15.768L142.484 18.19L146.68 20.61C146.765 20.464 146.812 20.291 146.811 20.11L146.814 16.268C146.813 16.087 146.764 15.915 146.679 15.768" fill="#53ba63"/><path d="M142.484 18.19L146.679 15.768C146.592 15.618 146.469 15.493 146.313 15.402L142.981 13.477C142.826 13.389 142.653 13.343 142.481 13.346L142.482 18.187L142.484 18.19" fill="#404142"/><path d="M146.679 20.61L142.484 18.19L142.481 18.192L142.482 23.033C142.655 23.033 142.825 22.989 142.981 22.899L146.313 20.976C146.468 20.886 146.592 20.76 146.679 20.61" fill="#404142"/><path d="M142.482 18.187L142.481 13.345C142.306 13.342 142.136 13.387 141.983 13.475L138.651 15.399C138.495 15.489 138.373 15.617 138.287 15.767L142.482 18.187" fill="#53ba63"/></g><path d="M142.481 18.191L142.485 18.19L142.483 18.186L142.481 18.191" fill="#ffffff"/><g clip-path="url(#c50)"><path d="M142.482 18.187L138.287 15.767C138.2 15.917 138.152 16.087 138.151 16.265L138.15 20.111C138.15 20.291 138.2 20.463 138.286 20.613L142.481 18.192L142.482 18.187" fill="#404142"/><path d="M142.482 23.033L142.481 18.192L138.287 20.613C138.373 20.763 138.496 20.889 138.652 20.98L141.981 22.899C142.137 22.989 142.31 23.036 142.482 23.033" fill="#53ba63"/><path d="M151.479 7.454L147.285 9.876L151.48 12.296C151.565 12.15 151.612 11.977 151.611 11.796L151.614 7.954C151.613 7.773 151.564 7.602 151.479 7.454" fill="#4cc9f5"/><path d="M147.284 9.876L151.478 7.454C151.392 7.304 151.269 7.179 151.113 7.088L147.781 5.163C147.624 5.072 147.453 5.029 147.283 5.027L147.281 5.031L147.282 9.873L147.284 9.876" fill="#4cc9f5"/><path d="M151.479 12.296L147.284 9.876L147.282 9.878L147.282 14.719C147.455 14.719 147.625 14.675 147.782 14.585L151.114 12.661C151.269 12.571 151.392 12.446 151.479 12.296" fill="#4cc9f5"/><path d="M147.282 5.032L147.283 5.028C147.11 5.027 146.94 5.072 146.784 5.162L143.451 7.085C143.295 7.175 143.174 7.304 143.088 7.454L147.283 9.874L147.282 5.032" fill="#4cc9f5"/></g><path d="M147.281 9.878L147.284 9.876L147.282 9.873L147.281 9.878" fill="#ffffff"/><g clip-path="url(#c51)"><path d="M147.282 9.873L143.087 7.453C143 7.603 142.952 7.773 142.951 7.951L142.952 11.8C142.952 11.98 143 12.149 143.086 12.299L147.281 9.878L147.282 9.873" fill="#404142"/><path d="M147.282 14.719L147.281 9.877L143.087 12.299C143.172 12.446 143.296 12.575 143.452 12.666L146.781 14.585C146.937 14.676 147.11 14.722 147.282 14.719" fill="#4cc9f5"/><path d="M141.879 7.454L137.684 9.876L141.88 12.296C141.965 12.15 142.012 11.977 142.011 11.796L142.014 7.954C142.013 7.773 141.964 7.602 141.879 7.454" fill="#404142"/><path d="M137.684 9.876L141.879 7.454C141.792 7.304 141.669 7.179 141.513 7.088L138.181 5.163C138.026 5.075 137.853 5.029 137.68 5.029L137.682 9.873L137.684 9.876" fill="#53ba63"/><path d="M141.879 12.296L137.684 9.876L137.681 9.878L137.682 14.719C137.855 14.719 138.025 14.675 138.181 14.585L141.513 12.661C141.668 12.571 141.792 12.446 141.879 12.296" fill="#53ba63"/><path d="M137.682 9.873L137.679 5.029C137.506 5.029 137.336 5.073 137.183 5.161L133.851 7.085C133.696 7.175 133.573 7.303 133.487 7.453L137.682 9.873" fill="#404142"/></g><path d="M137.681 9.878L137.684 9.876L137.682 9.873L137.681 9.878" fill="#5b9ad3"/><g clip-path="url(#c52)"><path d="M137.682 9.873L133.487 7.453C133.4 7.603 133.352 7.773 133.351 7.951L133.352 11.8C133.352 11.98 133.4 12.149 133.486 12.299L137.681 9.878L137.682 9.873" fill="#53ba63"/><path d="M137.682 14.719L137.681 9.877L133.487 12.299C133.572 12.446 133.696 12.575 133.852 12.666L137.181 14.585C137.337 14.676 137.51 14.722 137.682 14.719" fill="#404142"/><path d="M132.278 40.71L128.084 43.132L132.279 45.552C132.364 45.406 132.411 45.233 132.41 45.052L132.413 41.21C132.412 41.029 132.363 40.857 132.278 40.71" fill="#f0502c"/><path d="M128.084 43.132L132.278 40.71C132.192 40.559 132.069 40.434 131.913 40.344L128.581 38.419C128.426 38.331 128.253 38.285 128.081 38.288L128.082 43.128L128.084 43.132" fill="#f0502c"/><path d="M132.279 45.551L128.084 43.131L128.081 43.133L128.082 47.974C128.255 47.974 128.425 47.93 128.581 47.84L131.913 45.917C132.068 45.827 132.192 45.701 132.279 45.551" fill="#404142"/><path d="M128.082 43.129L128.081 38.288C127.906 38.285 127.736 38.329 127.583 38.418L124.251 40.341C124.095 40.431 123.973 40.559 123.887 40.709L128.082 43.129" fill="#f0502c"/></g><path d="M128.081 43.133L128.084 43.131L128.083 43.128L128.081 43.133" fill="#ffffff"/><g clip-path="url(#c53)"><path d="M128.082 43.129L123.887 40.709C123.8 40.859 123.752 41.029 123.751 41.207L123.752 45.056C123.752 45.236 123.8 45.405 123.886 45.555L128.081 43.134L128.082 43.129" fill="#404142"/><path d="M128.082 47.975L128.081 43.133L123.887 45.555C123.972 45.702 124.096 45.831 124.252 45.921L127.581 47.841C127.737 47.931 127.91 47.978 128.082 47.975" fill="#f0502c"/></g><path d="M128.081 36.225L128.081 37.91M128.08 50.037L128.08 48.352M126.294 36.46L126.73 38.088M129.867 49.801L129.431 48.174M124.628 37.15L125.471 38.609M131.533 49.112L130.69 47.652M123.198 38.247L124.389 39.439M132.963 48.014L131.772 46.823M122.1 39.678L123.56 40.52M134.061 46.584L132.602 45.742M121.41 41.343L123.038 41.779M134.751 44.919L133.123 44.482M121.175 43.13L122.86 43.13M134.986 43.131L133.301 43.131M121.41 44.918L123.038 44.482M134.751 41.344L133.123 41.78M122.1 46.583L123.559 45.741M134.061 39.678L132.602 40.521M123.197 48.014L124.389 46.822M132.964 38.248L131.773 39.44M124.627 49.111L125.47 47.652M131.534 37.15L130.691 38.61M126.293 49.801L126.729 48.174M129.868 36.46L129.432 38.088" fill="none" stroke="#f0502c" stroke-width="0.667"/><g clip-path="url(#c54)"></g><g clip-path="url(#c55)"></g><g clip-path="url(#c56)"></g><g clip-path="url(#c57)"></g><g clip-path="url(#c58)"></g><g clip-path="url(#c59)"></g><g clip-path="url(#c60)"></g><g clip-path="url(#c61)"></g><g clip-path="url(#c62)"></g><g clip-path="url(#c63)"></g><g clip-path="url(#c64)"></g><g clip-path="url(#c65)"></g><g clip-path="url(#c66)"></g></svg>