<svg xmlns="http://www.w3.org/2000/svg" width="268.0" height="97.4" viewBox="0 0 192.495 69.979" preserveAspectRatio="xMidYMid meet" role="img"><defs><clipPath id="c1"><path d="M-231.91 -29H236.09V259H-231.91Z"/></clipPath><clipPath id="c2"><path d="M-231.91 -29H236.09V259H-231.91Z"/></clipPath><clipPath id="c3"><path d="M-231.91 -29H236.09V259H-231.91Z"/></clipPath><clipPath id="c4"><path d="M-231.91 -29H236.09V259H-231.91Z"/></clipPath><clipPath id="c5"><path d="M-231.91 -29H236.09V259H-231.91Z"/></clipPath><clipPath id="c6"><path d="M-231.91 -29H236.09V259H-231.91Z"/></clipPath><clipPath id="c7"><path d="M-231.91 -29H236.09V259H-231.91Z"/></clipPath><clipPath id="c8"><path d="M-231.91 -29H236.09V259H-231.91Z"/></clipPath><clipPath id="c9"><path d="M-231.91 -29H236.09V259H-231.91Z"/></clipPath><clipPath id="c10"><path d="M-231.91 -29H236.09V259H-231.91Z"/></clipPath><clipPath id="c11"><path d="M-231.91 -29H236.09V259H-231.91Z"/></clipPath><clipPath id="c12"><path d="M-231.91 -29H236.09V259H-231.91Z"/></clipPath><clipPath id="c13"><path d="M-231.91 -29H236.09V259H-231.91Z"/></clipPath><clipPath id="c14"><path d="M-231.91 -29H236.09V259H-231.91Z"/></clipPath><clipPath id="c15"><path d="M-231.91 -29H236.09V259H-231.91Z"/></clipPath><clipPath id="c16"><path d="M-231.91 -29H236.09V259H-231.91Z"/></clipPath><clipPath id="c17"><path d="M-231.91 -29H236.09V259H-231.91Z"/></clipPath><clipPath id="c18"><path d="M-231.91 -29H236.09V259H-231.91Z"/></clipPath><clipPath id="c19"><path d="M-231.91 -29H236.09V259H-231.91Z"/></clipPath><clipPath id="c20"><path d="M-231.91 -29H236.09V259H-231.91Z"/></clipPath><clipPath id="c21"><path d="M-231.91 -29H236.09V259H-231.91Z"/></clipPath><clipPath id="c22"><path d="M-231.91 -29H236.09V259H-231.91Z"/></clipPath><clipPath id="c23"><path d="M-231.91 -29H236.09V259H-231.91Z"/></clipPath><clipPath id="c24"><path d="M-231.91 -29H236.09V259H-231.91Z"/></clipPath><clipPath id="c25"><path d="M-231.91 -29H236.09V259H-231.91Z"/></clipPath><clipPath id="c26"><path d="M-231.91 -29H236.09V259H-231.91Z"/></clipPath><clipPath id="c27"><path d="M-231.91 -29H236.09V259H-231.91Z"/></clipPath><clipPath id="c28"><path d="M-231.91 -29H236.09V259H-231.91Z"/></clipPath><clipPath id="c29"><path d="M-231.91 -29H236.09V259H-231.91Z"/></clipPath><clipPath id="c30"><path d="M-231.91 -29H236.09V259H-231.91Z"/></clipPath><clipPath id="c31"><path d="M-231.91 -29H236.09V259H-231.91Z"/></clipPath><clipPath id="c32"><path d="M-231.91 -29H236.09V259H-231.91Z"/></clipPath><clipPath id="c33"><path d="M-231.91 -29H236.09V259H-231.91Z"/></clipPath><clipPath id="c34"><path d="M-231.91 -29H236.09V259H-231.91Z"/></clipPath><clipPath id="c35"><path d="M-3.158 244.6H7.338V254.896H-3.158Z"/></clipPath></defs><g clip-path="url(#c1)"><path d="M33.252 2.269L28.408 10.658L23.569 2.267C23.865 2.099 24.206 2.004 24.567 2.004L32.253 2C32.614 2 32.958 2.098 33.252 2.269" fill="#14bff1"/><path d="M28.408 10.658L33.252 2.269C33.552 2.442 33.809 2.691 33.984 3L37.835 9.665C38.011 9.974 38.103 10.32 38.106 10.661L38.097 10.663L28.414 10.661L28.408 10.658" fill="#14bff1"/><path d="M23.57 2.267L28.409 10.658L28.406 10.664L18.722 10.662C18.722 10.315 18.812 9.974 18.992 9.663L22.838 3C23.018 2.688 23.269 2.44 23.57 2.267" fill="#14bff1"/><path d="M38.098 10.663L38.107 10.661C38.107 11.007 38.018 11.348 37.838 11.66L33.992 18.322C33.811 18.634 33.56 18.882 33.26 19.055L33.254 19.052L28.414 10.661L38.098 10.663" fill="#14bff1"/></g><path d="M28.405 10.663L28.414 10.66L28.409 10.657L28.405 10.663" fill="#5b9ad3"/><g clip-path="url(#c2)"><path d="M28.414 10.661L33.254 19.051L33.26 19.055C32.96 19.228 32.613 19.321 32.258 19.324L24.562 19.321C24.206 19.324 23.862 19.226 23.562 19.053L28.405 10.664L28.414 10.661" fill="#14bff1"/><path d="M18.722 10.661L28.405 10.663L23.562 19.052C23.268 18.882 23.011 18.633 22.829 18.321L18.99 11.663C18.81 11.35 18.723 11.008 18.722 10.661" fill="#14bff1"/><path d="M23.174 18.761L23.175 18.762L23.174 18.761M23.895 18.475L23.561 19.053C23.424 18.973 23.295 18.877 23.178 18.764C23.382 18.96 23.625 19.111 23.89 19.206C23.776 19.164 23.666 19.113 23.561 19.053L23.895 18.475M33.949 2.94C33.961 2.96 33.973 2.98 33.984 3L35.125 4.975L33.985 3.001C33.973 2.98 33.961 2.96 33.949 2.94M32.985 2.14C33.078 2.176 33.167 2.22 33.252 2.269C33.335 2.317 33.416 2.371 33.492 2.431C33.338 2.31 33.167 2.212 32.985 2.14M30.157 2.001L24.563 2.001C23.848 2.002 23.188 2.383 22.831 3.002L18.985 9.661C18.628 10.281 18.628 11.043 18.985 11.662L21.427 15.89L18.99 11.663C18.809 11.351 18.722 11.008 18.721 10.662C18.721 10.315 18.811 9.974 18.991 9.663L22.838 3C23.018 2.688 23.268 2.441 23.569 2.267C23.865 2.099 24.206 2.004 24.567 2.004L30.157 2.001" fill="#767071"/><path d="M32.253 2.001L30.157 2.001L24.568 2.004C24.206 2.004 23.866 2.099 23.57 2.267L23.903 2.844C24.101 2.731 24.328 2.668 24.564 2.667L32.253 2.667C32.49 2.667 32.719 2.731 32.919 2.846L33.252 2.269C33.167 2.22 33.078 2.176 32.985 2.14C32.756 2.049 32.508 2.001 32.253 2.001" fill="#3e6470"/><path d="M33.252 2.269L33.252 2.269L32.919 2.846C33.118 2.962 33.289 3.128 33.408 3.334L37.254 9.994C37.373 10.2 37.432 10.432 37.432 10.663L38.097 10.663L38.099 10.662C38.099 10.317 38.01 9.971 37.831 9.661L35.125 4.975L33.984 3C33.973 2.979 33.961 2.96 33.949 2.94C33.825 2.742 33.67 2.571 33.492 2.431C33.416 2.371 33.335 2.317 33.252 2.269" fill="#3e6470"/><path d="M23.57 2.267C23.269 2.44 23.018 2.688 22.838 3L18.992 9.663C18.812 9.974 18.722 10.315 18.722 10.662L19.385 10.662C19.385 10.431 19.445 10.2 19.563 9.994L23.409 3.335C23.528 3.128 23.701 2.96 23.903 2.844L23.57 2.267" fill="#3e6470"/><path d="M38.099 10.662L38.097 10.662L37.432 10.662C37.432 10.893 37.372 11.123 37.254 11.328L33.408 17.988C33.29 18.193 33.12 18.359 32.921 18.475L33.254 19.051L33.255 19.052C33.553 18.88 33.807 18.63 33.985 18.321L37.831 11.662C38.01 11.352 38.099 11.007 38.099 10.662" fill="#3e6470"/><path d="M23.895 18.475L23.561 19.053C23.666 19.113 23.776 19.165 23.89 19.206C24.103 19.281 24.33 19.322 24.562 19.322L24.563 19.322L32.253 19.322L32.255 19.322C32.613 19.322 32.957 19.226 33.256 19.053L33.254 19.052L32.921 18.475C32.721 18.591 32.491 18.655 32.253 18.655L24.562 18.655C24.324 18.655 24.095 18.591 23.895 18.475" fill="#3e6470"/><path d="M18.722 10.661L18.722 10.661C18.723 11.008 18.81 11.35 18.99 11.663L21.427 15.889L22.831 18.321C22.926 18.485 23.042 18.632 23.175 18.76C23.175 18.761 23.175 18.761 23.176 18.762L23.178 18.764C23.295 18.876 23.425 18.973 23.562 19.052L23.895 18.474C23.697 18.359 23.527 18.192 23.409 17.988L19.563 11.328C19.444 11.122 19.385 10.892 19.385 10.661L18.722 10.661" fill="#3e6470"/><path d="M49.88 11.868L45.036 20.257L40.196 11.866C40.493 11.699 40.834 11.603 41.195 11.604L48.88 11.599C49.241 11.6 49.585 11.698 49.88 11.868" fill="#14bff1"/><path d="M45.036 20.258L49.88 11.869C50.18 12.042 50.437 12.291 50.612 12.6L54.463 19.265C54.638 19.574 54.73 19.92 54.734 20.261L54.725 20.263L45.042 20.261L45.036 20.258" fill="#14bff1"/><path d="M40.196 11.867L45.036 20.258L45.033 20.264L35.349 20.262C35.349 19.915 35.438 19.574 35.619 19.262L39.466 12.6C39.645 12.288 39.896 12.04 40.196 11.867" fill="#14bff1"/><path d="M54.726 20.263L54.735 20.26C54.735 20.607 54.646 20.948 54.466 21.26L50.619 27.923C50.439 28.234 50.188 28.482 49.888 28.655L49.882 28.652L45.042 20.261L54.726 20.263" fill="#14bff1"/></g><path d="M45.033 20.264L45.042 20.261L45.036 20.258L45.033 20.264" fill="#5b9ad3"/><g clip-path="url(#c3)"><path d="M45.042 20.261L49.882 28.652L49.888 28.655C49.588 28.828 49.241 28.921 48.886 28.924L41.189 28.921C40.833 28.924 40.49 28.826 40.189 28.652L45.033 20.264L45.042 20.261" fill="#14bff1"/><path d="M35.35 20.261L45.034 20.263L40.19 28.652C39.896 28.482 39.639 28.233 39.457 27.921L35.619 21.263C35.437 20.95 35.35 20.608 35.35 20.261" fill="#14bff1"/><path d="M41.137 28.921C41.155 28.921 41.173 28.922 41.19 28.922L42.288 28.922L41.189 28.921C41.183 28.921 41.178 28.921 41.173 28.921C41.161 28.921 41.149 28.921 41.137 28.921M40.522 28.075L40.189 28.652C39.956 28.517 39.746 28.333 39.578 28.106C39.827 28.444 40.174 28.693 40.567 28.822C40.436 28.779 40.309 28.722 40.189 28.652L40.522 28.075M46.574 11.601L41.19 11.601C40.476 11.601 39.815 11.982 39.458 12.602L35.612 19.262C35.255 19.881 35.255 20.643 35.612 21.261L38.739 26.677L35.618 21.264C35.436 20.951 35.349 20.609 35.349 20.262C35.349 19.915 35.439 19.574 35.619 19.262L39.466 12.599C39.646 12.288 39.896 12.04 40.196 11.867C40.492 11.701 40.831 11.604 41.191 11.604L41.195 11.604L46.574 11.601" fill="#767071"/><path d="M48.882 11.601L46.575 11.601L41.195 11.604L41.191 11.604C40.831 11.604 40.492 11.701 40.196 11.867L40.529 12.444C40.728 12.331 40.955 12.268 41.19 12.268L48.882 12.268C49.118 12.268 49.347 12.332 49.546 12.447L49.88 11.869C49.581 11.696 49.238 11.601 48.882 11.601" fill="#3e6470"/><path d="M49.88 11.868L49.546 12.446C49.746 12.561 49.916 12.728 50.035 12.934L53.881 19.594C54 19.8 54.059 20.031 54.059 20.262L54.725 20.262L54.726 20.262C54.726 19.916 54.637 19.571 54.458 19.261L50.612 12.601C50.433 12.291 50.179 12.041 49.88 11.868" fill="#3e6470"/><path d="M40.196 11.867C39.896 12.04 39.645 12.288 39.466 12.6L35.619 19.262C35.438 19.574 35.349 19.915 35.349 20.262L36.011 20.262C36.011 20.031 36.07 19.801 36.189 19.595L40.035 12.935C40.155 12.728 40.327 12.56 40.529 12.444L40.196 11.867" fill="#3e6470"/><path d="M54.726 20.262L54.725 20.262L54.059 20.262C54.059 20.492 53.999 20.722 53.881 20.927L50.035 27.588C49.917 27.793 49.747 27.959 49.549 28.074L49.882 28.651L49.883 28.652C50.18 28.479 50.434 28.23 50.612 27.921L54.458 21.261C54.637 20.952 54.726 20.607 54.726 20.262" fill="#3e6470"/><path d="M49.549 28.075C49.349 28.191 49.12 28.255 48.882 28.255L41.19 28.256C40.953 28.256 40.723 28.191 40.523 28.075L40.189 28.652C40.309 28.722 40.436 28.779 40.567 28.822C40.749 28.882 40.941 28.916 41.137 28.921C41.149 28.921 41.161 28.921 41.173 28.921C41.178 28.921 41.184 28.921 41.189 28.921L42.289 28.922L48.882 28.921L48.883 28.921C49.24 28.921 49.584 28.826 49.883 28.653L49.882 28.652L49.549 28.075" fill="#3e6470"/><path d="M35.35 20.261L35.35 20.261C35.35 20.608 35.437 20.95 35.619 21.263L38.74 26.676L39.459 27.921C39.496 27.985 39.536 28.046 39.579 28.105C39.746 28.332 39.956 28.517 40.19 28.652L40.523 28.075C40.324 27.959 40.155 27.793 40.036 27.588L36.19 20.927C36.071 20.722 36.012 20.491 36.012 20.261L35.35 20.261" fill="#3e6470"/><path d="M16.624 11.868L11.782 20.257L6.942 11.866C7.239 11.699 7.578 11.603 7.94 11.604L15.625 11.599C15.987 11.6 16.33 11.698 16.624 11.868" fill="#14bff1"/><path d="M11.782 20.258L16.624 11.869C16.925 12.042 17.182 12.291 17.358 12.6L21.208 19.265C21.383 19.574 21.476 19.92 21.479 20.261L21.47 20.263L11.787 20.261L11.782 20.258" fill="#14bff1"/><path d="M6.942 11.867L11.782 20.258L11.778 20.264L2.095 20.262C2.095 19.915 2.184 19.574 2.364 19.262L6.21 12.6C6.391 12.288 6.641 12.04 6.942 11.867" fill="#14bff1"/><path d="M21.47 20.263L21.479 20.26C21.48 20.607 21.39 20.948 21.21 21.26L17.364 27.923C17.184 28.234 16.933 28.482 16.632 28.655L16.627 28.652L11.787 20.261L21.47 20.263" fill="#14bff1"/></g><path d="M11.778 20.264L11.788 20.261L11.782 20.258L11.778 20.264" fill="#5b9ad3"/><g clip-path="url(#c4)"><path d="M11.787 20.261L16.627 28.652L16.632 28.655C16.332 28.828 15.986 28.921 15.631 28.924L7.934 28.921C7.578 28.924 7.235 28.826 6.935 28.652L11.777 20.264L11.787 20.261" fill="#14bff1"/><path d="M2.095 20.261L11.778 20.263L6.935 28.652C6.64 28.482 6.383 28.233 6.201 27.921L2.364 21.263C2.182 20.95 2.095 20.608 2.095 20.261" fill="#14bff1"/><path d="M7.879 28.921C7.898 28.922 7.916 28.922 7.935 28.922L9.034 28.922L7.934 28.921C7.929 28.921 7.924 28.921 7.918 28.921C7.905 28.921 7.892 28.921 7.879 28.921M7.268 28.076L6.935 28.652C6.711 28.523 6.509 28.349 6.345 28.135C6.6 28.47 6.953 28.714 7.351 28.835C7.206 28.79 7.066 28.728 6.935 28.652L7.268 28.076M16.434 11.772C16.5 11.801 16.563 11.833 16.624 11.869C16.684 11.903 16.742 11.94 16.797 11.981C16.684 11.899 16.562 11.829 16.434 11.772M13.32 11.601L7.935 11.601C7.221 11.601 6.56 11.982 6.203 12.602L2.358 19.262C2 19.881 2.001 20.643 2.358 21.261L5.484 26.677L2.364 21.264C2.182 20.951 2.095 20.609 2.095 20.262C2.095 19.915 2.184 19.574 2.364 19.262L6.21 12.6C6.391 12.288 6.641 12.04 6.942 11.867C7.237 11.701 7.576 11.604 7.935 11.604L7.94 11.604L13.32 11.601" fill="#767071"/><path d="M15.626 11.601L13.32 11.601L7.94 11.604L7.935 11.604C7.576 11.604 7.237 11.701 6.942 11.867L7.275 12.444C7.473 12.331 7.7 12.268 7.935 12.268L15.626 12.268C15.863 12.268 16.092 12.331 16.291 12.446L16.624 11.869C16.563 11.833 16.5 11.801 16.434 11.772C16.184 11.661 15.909 11.601 15.626 11.601" fill="#3e6470"/><path d="M16.624 11.868L16.624 11.868L16.291 12.446C16.491 12.561 16.661 12.728 16.781 12.934L20.625 19.594C20.744 19.8 20.803 20.031 20.803 20.262L21.47 20.262C21.471 19.916 21.381 19.571 21.203 19.261L17.358 12.601C17.214 12.352 17.022 12.142 16.797 11.98C16.742 11.94 16.684 11.902 16.624 11.868" fill="#3e6470"/><path d="M6.942 11.867C6.641 12.04 6.391 12.288 6.21 12.6L2.364 19.262C2.184 19.574 2.095 19.915 2.095 20.262L2.757 20.262C2.757 20.031 2.816 19.8 2.935 19.595L6.78 12.935C6.9 12.727 7.072 12.559 7.275 12.444L6.942 11.867" fill="#3e6470"/><path d="M21.47 20.262L21.469 20.262L20.803 20.262C20.803 20.492 20.743 20.722 20.625 20.927L16.78 27.588C16.662 27.793 16.493 27.959 16.294 28.074L16.627 28.651L16.627 28.652C16.925 28.479 17.179 28.23 17.357 27.921L21.202 21.261C21.381 20.952 21.47 20.607 21.47 20.262" fill="#3e6470"/><path d="M16.294 28.075C16.094 28.191 15.864 28.255 15.626 28.255L7.935 28.256C7.697 28.256 7.467 28.191 7.267 28.076L6.935 28.652C7.066 28.728 7.206 28.79 7.351 28.835C7.52 28.886 7.698 28.916 7.879 28.921C7.892 28.921 7.905 28.921 7.918 28.921C7.923 28.921 7.929 28.921 7.934 28.921L9.033 28.922L15.626 28.921L15.627 28.921C15.985 28.921 16.329 28.826 16.628 28.653L16.627 28.652L16.294 28.075" fill="#3e6470"/><path d="M2.095 20.261L2.095 20.261C2.095 20.608 2.182 20.95 2.364 21.263L5.484 26.676L6.203 27.921C6.246 27.996 6.293 28.067 6.345 28.135C6.509 28.348 6.711 28.522 6.935 28.652L7.268 28.075C7.069 27.96 6.899 27.793 6.78 27.588L2.936 20.928C2.817 20.722 2.757 20.491 2.757 20.261L2.095 20.261" fill="#3e6470"/><path d="M33.252 21.468L28.408 29.857L23.569 21.467C23.865 21.299 24.206 21.203 24.567 21.204L32.253 21.199C32.614 21.2 32.958 21.298 33.252 21.468" fill="#14bff1"/><path d="M28.408 29.858L33.252 21.469C33.552 21.642 33.809 21.891 33.984 22.2L37.835 28.864C38.011 29.174 38.103 29.519 38.106 29.86L38.097 29.863L28.414 29.861L28.408 29.858" fill="#14bff1"/><path d="M23.57 21.467L28.409 29.858L28.406 29.863L18.722 29.862C18.722 29.515 18.812 29.174 18.992 28.862L22.838 22.199C23.018 21.888 23.269 21.64 23.57 21.467" fill="#14bff1"/><path d="M38.098 29.863L38.107 29.86C38.107 30.207 38.018 30.548 37.838 30.86L33.992 37.522C33.811 37.834 33.56 38.082 33.26 38.255L33.254 38.252L28.414 29.862L38.098 29.863" fill="#14bff1"/></g><path d="M28.405 29.863L28.414 29.861L28.409 29.858L28.405 29.863" fill="#5b9ad3"/><g clip-path="url(#c5)"><path d="M28.414 29.861L33.254 38.251L33.26 38.255C32.96 38.428 32.613 38.52 32.258 38.523L24.562 38.521C24.206 38.523 23.862 38.425 23.562 38.252L28.405 29.863L28.414 29.861" fill="#14bff1"/><path d="M18.722 29.862L28.405 29.864L23.562 38.252C23.268 38.083 23.011 37.834 22.829 37.522L18.99 30.864C18.81 30.551 18.723 30.209 18.722 29.862" fill="#14bff1"/><path d="M23.929 38.418C23.93 38.418 23.932 38.419 23.933 38.419C23.932 38.419 23.93 38.418 23.929 38.418M23.256 38.035C23.258 38.036 23.259 38.037 23.26 38.039C23.259 38.037 23.258 38.036 23.256 38.035M23.895 37.674L23.561 38.252C23.456 38.191 23.355 38.12 23.261 38.039C23.456 38.207 23.683 38.335 23.927 38.417C23.8 38.374 23.677 38.319 23.561 38.252L23.895 37.674M33.959 22.157C33.968 22.171 33.976 22.185 33.984 22.199L34.768 23.556L33.985 22.2C33.977 22.186 33.968 22.171 33.959 22.157M29.691 21.201L24.563 21.201C23.848 21.201 23.188 21.582 22.831 22.201L18.985 28.861C18.628 29.48 18.628 30.242 18.985 30.861L21.298 34.865L18.99 30.863C18.809 30.55 18.722 30.208 18.721 29.861C18.721 29.515 18.811 29.174 18.991 28.862L22.838 22.199C23.018 21.888 23.268 21.639 23.569 21.467C23.863 21.3 24.202 21.204 24.56 21.204L24.567 21.204L29.691 21.201" fill="#767071"/><path d="M32.253 21.201L29.691 21.201L24.568 21.204L24.561 21.204C24.202 21.204 23.864 21.3 23.57 21.467L23.902 22.044C24.101 21.93 24.328 21.867 24.564 21.867L32.253 21.867C32.49 21.867 32.719 21.931 32.919 22.046L33.252 21.468C32.953 21.296 32.61 21.201 32.253 21.201" fill="#3e6470"/><path d="M33.252 21.468L32.918 22.046C33.119 22.161 33.289 22.328 33.408 22.534L37.254 29.194C37.373 29.4 37.432 29.631 37.432 29.862L38.097 29.862L38.099 29.862C38.099 29.516 38.01 29.17 37.831 28.861L34.768 23.556L33.984 22.199C33.976 22.185 33.968 22.171 33.959 22.157C33.782 21.867 33.537 21.632 33.252 21.468" fill="#3e6470"/><path d="M23.57 21.467C23.269 21.64 23.018 21.888 22.838 22.199L18.992 28.862C18.812 29.174 18.722 29.515 18.722 29.862L19.385 29.862C19.385 29.631 19.444 29.4 19.563 29.195L23.409 22.535C23.528 22.327 23.7 22.159 23.903 22.044L23.57 21.467" fill="#3e6470"/><path d="M38.099 29.862L38.097 29.863L37.432 29.862C37.432 30.093 37.372 30.323 37.254 30.528L33.408 37.188C33.29 37.393 33.12 37.559 32.921 37.675L33.254 38.252L33.255 38.252C33.553 38.08 33.807 37.83 33.985 37.521L37.831 30.861C38.01 30.552 38.099 30.207 38.099 29.862" fill="#3e6470"/><path d="M23.895 37.674L23.562 38.252C23.677 38.319 23.8 38.374 23.927 38.417C23.928 38.417 23.928 38.418 23.929 38.418C23.931 38.418 23.932 38.419 23.933 38.419C24.133 38.486 24.345 38.521 24.562 38.521L24.563 38.521L32.253 38.521L32.255 38.521C32.613 38.521 32.956 38.425 33.255 38.252L33.254 38.251L32.921 37.674C32.721 37.79 32.491 37.854 32.253 37.854L24.562 37.854C24.325 37.854 24.095 37.79 23.895 37.674" fill="#3e6470"/><path d="M18.722 29.862L18.722 29.862C18.723 30.209 18.81 30.551 18.99 30.864L21.298 34.866L22.831 37.522C22.945 37.719 23.09 37.892 23.257 38.036C23.258 38.037 23.259 38.038 23.261 38.039C23.261 38.04 23.261 38.04 23.262 38.04C23.356 38.121 23.456 38.191 23.562 38.252L23.895 37.675C23.696 37.56 23.527 37.393 23.409 37.188L19.563 30.528C19.444 30.323 19.385 30.092 19.385 29.862L18.722 29.862" fill="#3e6470"/><path d="M49.88 31.069L45.036 39.458L40.196 31.067C40.493 30.9 40.834 30.804 41.195 30.804L48.88 30.8C49.241 30.801 49.585 30.899 49.88 31.069" fill="#14bff1"/><path d="M45.036 39.458L49.88 31.069C50.18 31.242 50.437 31.491 50.612 31.8L54.463 38.464C54.638 38.773 54.73 39.119 54.734 39.461L54.725 39.463L45.042 39.461L45.036 39.458" fill="#14bff1"/><path d="M40.196 31.067L45.036 39.458L45.033 39.464L35.349 39.462C35.349 39.115 35.438 38.775 35.619 38.463L39.466 31.8C39.645 31.488 39.896 31.241 40.196 31.067" fill="#14bff1"/><path d="M54.726 39.463L54.735 39.46C54.735 39.807 54.646 40.148 54.466 40.46L50.619 47.123C50.439 47.434 50.188 47.682 49.888 47.855L49.882 47.852L45.042 39.461L54.726 39.463" fill="#14bff1"/></g><path d="M45.033 39.463L45.042 39.46L45.036 39.458L45.033 39.463" fill="#5b9ad3"/><g clip-path="url(#c6)"><path d="M45.042 39.461L49.882 47.852L49.888 47.855C49.588 48.028 49.241 48.121 48.886 48.124L41.189 48.122C40.833 48.124 40.49 48.026 40.189 47.853L45.033 39.463L45.042 39.461" fill="#14bff1"/><path d="M35.35 39.462L45.034 39.464L40.19 47.853C39.896 47.683 39.639 47.435 39.457 47.122L35.619 40.463C35.437 40.151 35.35 39.808 35.35 39.462" fill="#14bff1"/><path d="M41.129 48.121C41.15 48.122 41.17 48.122 41.191 48.122L42.289 48.122L41.189 48.122L41.176 48.122C41.16 48.122 41.145 48.121 41.129 48.121M39.555 47.273C39.82 47.651 40.206 47.921 40.643 48.046C40.485 48 40.333 47.935 40.19 47.853L40.523 47.275L40.19 47.853C39.945 47.711 39.726 47.515 39.555 47.273M49.28 30.841C49.494 30.885 49.697 30.963 49.881 31.069C49.916 31.089 49.951 31.111 49.985 31.134C49.772 30.992 49.533 30.893 49.28 30.841M49.273 30.84C49.274 30.84 49.276 30.84 49.277 30.841C49.276 30.84 49.274 30.84 49.273 30.84M47.173 30.801L41.191 30.801C40.476 30.801 39.816 31.182 39.459 31.801L35.613 38.461C35.255 39.081 35.255 39.844 35.613 40.461L38.911 46.173L35.619 40.463C35.437 40.151 35.35 39.808 35.35 39.462C35.35 39.115 35.439 38.775 35.62 38.463L39.466 31.8C39.646 31.488 39.897 31.24 40.197 31.067C40.494 30.9 40.835 30.804 41.196 30.804L47.173 30.801" fill="#767071"/><path d="M48.882 30.801L47.172 30.801L41.195 30.804C40.834 30.804 40.493 30.9 40.196 31.067L40.529 31.644C40.728 31.531 40.955 31.468 41.19 31.468L48.882 31.468C49.118 31.468 49.347 31.532 49.546 31.647L49.88 31.069C49.696 30.963 49.493 30.885 49.279 30.841C49.278 30.841 49.278 30.841 49.277 30.841C49.275 30.84 49.274 30.84 49.273 30.84C49.145 30.814 49.014 30.801 48.882 30.801" fill="#3e6470"/><path d="M49.88 31.069L49.88 31.069L49.546 31.647C49.746 31.762 49.916 31.929 50.035 32.134L53.881 38.794C54 39.001 54.059 39.232 54.059 39.463L54.725 39.463L54.726 39.463C54.726 39.117 54.637 38.772 54.458 38.461L50.612 31.801C50.455 31.528 50.238 31.302 49.984 31.134C49.95 31.111 49.915 31.09 49.88 31.069" fill="#3e6470"/><path d="M40.196 31.067C39.896 31.241 39.645 31.488 39.466 31.8L35.619 38.463C35.438 38.775 35.349 39.115 35.349 39.462L36.011 39.462C36.011 39.232 36.07 39.001 36.189 38.795L40.035 32.135C40.155 31.928 40.327 31.76 40.529 31.644L40.196 31.067" fill="#3e6470"/><path d="M54.726 39.463L54.725 39.463L54.059 39.463C54.059 39.693 53.999 39.923 53.881 40.128L50.035 46.789C49.917 46.994 49.747 47.16 49.549 47.275L49.882 47.852L49.883 47.853C50.181 47.68 50.434 47.431 50.612 47.122L54.458 40.462C54.636 40.152 54.726 39.808 54.726 39.463" fill="#3e6470"/><path d="M49.549 47.275C49.35 47.391 49.12 47.455 48.882 47.455L41.191 47.456C40.953 47.456 40.723 47.392 40.523 47.276L40.19 47.853C40.332 47.935 40.485 48 40.643 48.046C40.799 48.09 40.962 48.116 41.129 48.121C41.144 48.122 41.16 48.122 41.175 48.122L41.189 48.122L42.289 48.122L48.882 48.121L48.885 48.121C49.241 48.121 49.585 48.026 49.883 47.853L49.882 47.852L49.549 47.275" fill="#3e6470"/><path d="M35.35 39.462L35.35 39.462C35.35 39.808 35.437 40.151 35.619 40.463L38.911 46.173L39.459 47.122C39.489 47.174 39.521 47.225 39.555 47.273C39.726 47.515 39.945 47.711 40.19 47.853L40.523 47.276C40.324 47.16 40.155 46.994 40.036 46.789L36.19 40.127C36.071 39.922 36.012 39.692 36.012 39.462L35.35 39.462" fill="#3e6470"/><path d="M16.624 31.069L11.782 39.458L6.942 31.067C7.239 30.9 7.578 30.804 7.94 30.804L15.625 30.8C15.987 30.801 16.33 30.899 16.624 31.069" fill="#14bff1"/><path d="M11.782 39.458L16.624 31.069C16.925 31.242 17.182 31.491 17.358 31.8L21.208 38.464C21.383 38.773 21.476 39.119 21.479 39.461L21.47 39.463L11.787 39.461L11.782 39.458" fill="#14bff1"/><path d="M6.942 31.067L11.782 39.458L11.778 39.464L2.095 39.462C2.095 39.115 2.184 38.775 2.364 38.463L6.21 31.8C6.391 31.488 6.641 31.241 6.942 31.067" fill="#14bff1"/><path d="M21.47 39.463L21.479 39.46C21.48 39.807 21.39 40.148 21.21 40.46L17.364 47.123C17.184 47.434 16.933 47.682 16.632 47.855L16.627 47.852L11.787 39.461L21.47 39.463" fill="#14bff1"/></g><path d="M11.778 39.463L11.788 39.46L11.782 39.458L11.778 39.463" fill="#5b9ad3"/><g clip-path="url(#c7)"><path d="M11.787 39.461L16.627 47.852L16.632 47.855C16.332 48.028 15.986 48.121 15.631 48.124L7.934 48.122C7.578 48.124 7.235 48.026 6.935 47.853L11.777 39.463L11.787 39.461" fill="#14bff1"/><path d="M2.095 39.462L11.778 39.464L6.935 47.853C6.64 47.683 6.383 47.435 6.201 47.122L2.364 40.463C2.182 40.151 2.095 39.808 2.095 39.462" fill="#14bff1"/><path d="M7.866 48.121C7.889 48.122 7.912 48.122 7.934 48.122L9.033 48.122L7.934 48.122L7.92 48.122C7.902 48.122 7.884 48.121 7.866 48.121M7.424 48.056C7.426 48.057 7.428 48.057 7.429 48.057C7.428 48.057 7.426 48.057 7.424 48.056M7.267 47.276L6.934 47.853C6.7 47.717 6.489 47.533 6.321 47.305C6.593 47.676 6.983 47.939 7.422 48.056C7.251 48.01 7.087 47.941 6.934 47.853L7.267 47.276M16.108 30.86C16.291 30.906 16.465 30.977 16.624 31.069C16.701 31.113 16.775 31.163 16.845 31.217C16.627 31.049 16.376 30.927 16.108 30.86M16.1 30.858L16.1 30.858M13.917 30.801L7.934 30.801C7.22 30.801 6.559 31.182 6.202 31.802L2.357 38.461C2 39.081 2.001 39.844 2.357 40.461L5.654 46.173L2.363 40.463C2.181 40.151 2.094 39.808 2.094 39.462C2.094 39.115 2.183 38.775 2.363 38.463L6.21 31.8C6.39 31.488 6.64 31.241 6.941 31.067C7.238 30.9 7.578 30.804 7.939 30.804L13.917 30.801" fill="#767071"/><path d="M15.626 30.801L13.917 30.801L7.94 30.804C7.579 30.804 7.239 30.9 6.942 31.067L7.274 31.644C7.473 31.531 7.7 31.468 7.935 31.468L15.626 31.468C15.863 31.468 16.092 31.531 16.291 31.646L16.624 31.069C16.465 30.977 16.291 30.906 16.108 30.86C16.105 30.86 16.103 30.859 16.1 30.858C15.947 30.821 15.788 30.801 15.626 30.801" fill="#3e6470"/><path d="M16.624 31.069L16.624 31.069L16.291 31.646C16.491 31.762 16.662 31.928 16.781 32.134L20.625 38.794C20.744 39.001 20.804 39.232 20.803 39.463L21.47 39.463C21.471 39.117 21.381 38.772 21.203 38.461L17.358 31.801C17.225 31.571 17.05 31.374 16.846 31.216C16.775 31.163 16.701 31.113 16.624 31.069" fill="#3e6470"/><path d="M6.942 31.067C6.641 31.241 6.391 31.488 6.21 31.8L2.364 38.463C2.184 38.775 2.095 39.115 2.095 39.462L2.757 39.462C2.757 39.231 2.816 39.001 2.935 38.795L6.78 32.135C6.9 31.927 7.072 31.759 7.275 31.644L6.942 31.067" fill="#3e6470"/><path d="M21.47 39.463L21.469 39.463L20.803 39.463C20.803 39.693 20.743 39.923 20.625 40.128L16.78 46.789C16.662 46.994 16.492 47.16 16.293 47.275L16.627 47.852L16.627 47.853C16.925 47.68 17.179 47.431 17.357 47.122L21.202 40.462C21.38 40.152 21.47 39.808 21.47 39.463" fill="#3e6470"/><path d="M16.294 47.274C16.094 47.39 15.865 47.454 15.626 47.454L7.935 47.455C7.697 47.455 7.468 47.391 7.268 47.275L6.935 47.852C7.087 47.94 7.251 48.009 7.422 48.055C7.423 48.055 7.424 48.055 7.425 48.055C7.427 48.056 7.428 48.056 7.43 48.057C7.571 48.093 7.717 48.115 7.867 48.12C7.885 48.121 7.903 48.121 7.921 48.121L7.934 48.121L9.034 48.121L15.626 48.12L15.629 48.12C15.986 48.12 16.329 48.025 16.628 47.852L16.627 47.851L16.294 47.274" fill="#3e6470"/><path d="M2.095 39.462L2.095 39.462C2.095 39.808 2.182 40.151 2.364 40.463L5.655 46.173L6.203 47.122C6.239 47.186 6.279 47.247 6.322 47.305C6.49 47.533 6.7 47.717 6.935 47.853L7.268 47.276C7.069 47.161 6.899 46.994 6.78 46.789L2.935 40.128C2.817 39.922 2.757 39.692 2.757 39.462L2.095 39.462" fill="#3e6470"/><path d="M101.133 2.269L96.289 10.658L91.449 2.267C91.746 2.099 92.087 2.004 92.448 2.004L100.133 2C100.494 2 100.838 2.098 101.133 2.269" fill="#96ca4f"/><path d="M96.289 10.658L101.133 2.269C101.433 2.442 101.69 2.691 101.866 3L105.716 9.665C105.891 9.974 105.984 10.32 105.987 10.661L105.979 10.663L96.295 10.661L96.289 10.658" fill="#96ca4f"/><path d="M91.449 2.267L96.289 10.658L96.286 10.664L86.602 10.662C86.602 10.315 86.692 9.974 86.872 9.663L90.719 3C90.898 2.688 91.149 2.44 91.449 2.267" fill="#96ca4f"/><path d="M105.979 10.663L105.987 10.661C105.987 11.007 105.899 11.348 105.718 11.66L101.871 18.322C101.692 18.634 101.441 18.882 101.141 19.055L101.135 19.052L96.295 10.661L105.979 10.663" fill="#96ca4f"/></g><path d="M96.287 10.663L96.295 10.66L96.29 10.657L96.287 10.663" fill="#5b9ad3"/><g clip-path="url(#c8)"><path d="M96.295 10.661L101.135 19.051L101.141 19.055C100.841 19.228 100.494 19.321 100.139 19.324L92.442 19.321C92.086 19.324 91.743 19.226 91.442 19.053L96.287 10.664L96.295 10.661" fill="#96ca4f"/><path d="M86.603 10.661L96.287 10.663L91.443 19.052C91.149 18.882 90.892 18.633 90.71 18.321L86.872 11.663C86.69 11.35 86.603 11.008 86.603 10.661" fill="#96ca4f"/><path d="M90.869 18.555L90.869 18.556L90.869 18.555M91.776 18.476L91.443 19.053C91.227 18.928 91.032 18.761 90.871 18.558C91.117 18.871 91.449 19.101 91.822 19.223C91.69 19.179 91.563 19.122 91.443 19.053L91.776 18.476M101.844 2.963C101.852 2.975 101.859 2.987 101.866 3L102.316 3.78L101.867 3.001C101.859 2.988 101.852 2.975 101.844 2.963M100.69 2.08C100.846 2.125 100.995 2.189 101.133 2.269C101.232 2.326 101.325 2.391 101.413 2.463C101.201 2.287 100.955 2.157 100.69 2.08M100.684 2.078C100.686 2.079 100.688 2.079 100.689 2.08C100.687 2.079 100.686 2.079 100.684 2.078M98.037 2.001L92.444 2.001C91.73 2.002 91.069 2.383 90.712 3.002L86.867 9.661C86.509 10.281 86.509 11.043 86.867 11.662L89.725 16.613L86.871 11.663C86.69 11.351 86.603 11.008 86.603 10.662C86.603 10.315 86.692 9.974 86.873 9.663L90.719 3C90.899 2.688 91.15 2.441 91.449 2.267C91.747 2.099 92.087 2.004 92.449 2.004L98.037 2.001" fill="#767071"/><path d="M100.134 2.001L98.037 2.001L92.449 2.004C92.087 2.004 91.747 2.099 91.449 2.267L91.782 2.845C91.981 2.731 92.208 2.668 92.444 2.667L100.134 2.667C100.371 2.667 100.6 2.731 100.8 2.846L101.133 2.269C100.995 2.189 100.846 2.125 100.69 2.08L100.689 2.08C100.687 2.079 100.686 2.078 100.684 2.078C100.507 2.028 100.323 2.001 100.134 2.001" fill="#566531"/><path d="M101.133 2.269L101.133 2.269L100.8 2.846C101 2.962 101.17 3.128 101.289 3.334L105.134 9.994C105.253 10.2 105.312 10.432 105.312 10.663L105.979 10.663C105.979 10.317 105.89 9.971 105.711 9.661L102.316 3.779L101.866 3C101.858 2.987 101.851 2.975 101.844 2.962C101.727 2.771 101.581 2.603 101.413 2.463C101.325 2.39 101.231 2.326 101.133 2.269" fill="#566531"/><path d="M91.449 2.267C91.149 2.44 90.898 2.688 90.719 3L86.872 9.663C86.692 9.974 86.602 10.315 86.602 10.662L87.266 10.662C87.265 10.431 87.325 10.2 87.443 9.994L91.288 3.335C91.408 3.128 91.58 2.96 91.782 2.845L91.449 2.267" fill="#566531"/><path d="M105.312 10.663C105.312 10.893 105.253 11.124 105.134 11.329L101.289 17.988C101.171 18.194 101.001 18.36 100.802 18.475L101.135 19.052L101.137 19.053C101.435 18.88 101.688 18.631 101.866 18.322L105.711 11.662C105.89 11.353 105.979 11.008 105.979 10.663L105.312 10.663" fill="#566531"/><path d="M100.802 18.475C100.602 18.591 100.372 18.655 100.134 18.655L92.442 18.655C92.205 18.655 91.975 18.591 91.776 18.475L91.442 19.053C91.562 19.122 91.689 19.179 91.821 19.223C92.019 19.287 92.228 19.322 92.442 19.322L92.443 19.322L100.134 19.322L100.135 19.322C100.493 19.322 100.837 19.226 101.136 19.053L101.135 19.051L100.802 18.475" fill="#566531"/><path d="M86.603 10.661L86.603 10.661C86.603 11.008 86.69 11.35 86.872 11.663L89.725 16.612L90.712 18.321C90.759 18.403 90.812 18.481 90.869 18.554C90.869 18.554 90.869 18.555 90.87 18.555C90.87 18.556 90.871 18.557 90.871 18.557C91.032 18.76 91.228 18.927 91.443 19.052L91.776 18.475C91.577 18.359 91.407 18.193 91.289 17.988L87.444 11.328C87.325 11.122 87.266 10.892 87.266 10.661L86.603 10.661" fill="#566531"/><path d="M117.76 11.868L112.917 20.257L108.078 11.866C108.375 11.699 108.714 11.603 109.076 11.604L116.761 11.599C117.122 11.6 117.466 11.698 117.76 11.868" fill="#96ca4f"/><path d="M112.917 20.258L117.76 11.869C118.061 12.042 118.318 12.291 118.494 12.6L122.343 19.265C122.519 19.574 122.612 19.92 122.615 20.261L122.606 20.263L112.923 20.261L112.917 20.258" fill="#96ca4f"/><path d="M108.078 11.867L112.917 20.258L112.914 20.264L103.231 20.262C103.231 19.915 103.32 19.574 103.499 19.262L107.346 12.6C107.527 12.288 107.778 12.04 108.078 11.867" fill="#96ca4f"/><path d="M122.605 20.263L122.616 20.26C122.616 20.607 122.526 20.948 122.345 21.26L118.499 27.923C118.319 28.234 118.069 28.482 117.768 28.655L117.763 28.652L112.922 20.261L122.605 20.263" fill="#96ca4f"/></g><path d="M112.913 20.264L112.923 20.261L112.917 20.258L112.913 20.264" fill="#5b9ad3"/><g clip-path="url(#c9)"><path d="M112.923 20.261L117.763 28.652L117.769 28.655C117.468 28.828 117.122 28.921 116.767 28.924L109.07 28.921C108.714 28.924 108.37 28.826 108.07 28.652L112.913 20.264L112.923 20.261" fill="#96ca4f"/><path d="M103.23 20.261L112.914 20.263L108.07 28.652C107.776 28.482 107.518 28.233 107.337 27.921L103.499 21.263C103.318 20.95 103.23 20.608 103.23 20.261" fill="#96ca4f"/><path d="M109.018 28.921C109.036 28.921 109.054 28.922 109.071 28.922L110.169 28.922L109.07 28.921C109.064 28.921 109.059 28.921 109.054 28.921C109.042 28.921 109.03 28.921 109.018 28.921M108.403 28.076L108.07 28.652C107.889 28.548 107.723 28.414 107.579 28.254C107.804 28.506 108.087 28.695 108.403 28.807C108.287 28.765 108.176 28.714 108.07 28.652L108.403 28.076M117.57 11.772C117.635 11.801 117.699 11.833 117.76 11.869C117.819 11.903 117.877 11.94 117.933 11.98C117.82 11.899 117.698 11.829 117.57 11.772M114.455 11.601L109.071 11.601C108.357 11.601 107.696 11.982 107.339 12.602L103.493 19.262C103.136 19.881 103.136 20.643 103.493 21.261L106.56 26.573L103.499 21.264C103.317 20.951 103.23 20.609 103.23 20.262C103.23 19.915 103.32 19.574 103.499 19.262L107.346 12.599C107.526 12.288 107.777 12.04 108.077 11.867C108.373 11.701 108.711 11.604 109.071 11.604L109.075 11.604L114.455 11.601" fill="#767071"/><path d="M116.762 11.601L114.456 11.601L109.076 11.604L109.071 11.604C108.711 11.604 108.373 11.701 108.078 11.867L108.41 12.444C108.609 12.331 108.836 12.268 109.072 12.268L116.762 12.268C116.999 12.268 117.227 12.331 117.427 12.446L117.76 11.869C117.699 11.833 117.636 11.801 117.57 11.772C117.32 11.661 117.045 11.601 116.762 11.601" fill="#566531"/><path d="M117.76 11.868L117.76 11.868L117.427 12.446C117.627 12.561 117.797 12.728 117.917 12.934L121.762 19.594C121.881 19.8 121.94 20.031 121.94 20.262L122.606 20.262L122.607 20.262C122.607 19.916 122.518 19.571 122.339 19.261L118.494 12.601C118.35 12.352 118.158 12.142 117.933 11.98C117.878 11.94 117.82 11.902 117.76 11.868" fill="#566531"/><path d="M108.078 11.867C107.778 12.04 107.527 12.288 107.346 12.6L103.499 19.262C103.32 19.574 103.231 19.915 103.231 20.262L103.893 20.262C103.893 20.031 103.952 19.801 104.071 19.595L107.917 12.935C108.036 12.727 108.208 12.559 108.411 12.444L108.078 11.867" fill="#566531"/><path d="M122.607 20.262L122.606 20.262L121.94 20.262C121.94 20.492 121.88 20.723 121.762 20.928L117.916 27.588C117.798 27.793 117.629 27.959 117.43 28.074L117.763 28.651L117.764 28.652C118.062 28.48 118.315 28.23 118.493 27.922L122.339 21.261C122.518 20.952 122.607 20.607 122.607 20.262" fill="#566531"/><path d="M117.43 28.075C117.23 28.191 117 28.255 116.762 28.255L109.071 28.256C108.833 28.256 108.603 28.191 108.403 28.076L108.071 28.652C108.176 28.714 108.287 28.765 108.403 28.807C108.598 28.876 108.805 28.915 109.018 28.921C109.03 28.921 109.042 28.921 109.054 28.921C109.059 28.921 109.065 28.921 109.07 28.921L110.17 28.922L116.762 28.921L116.764 28.921C117.121 28.921 117.465 28.826 117.764 28.653L117.763 28.652L117.43 28.075" fill="#566531"/><path d="M103.23 20.261L103.23 20.261C103.23 20.608 103.318 20.95 103.499 21.263L106.56 26.572L107.34 27.921C107.409 28.041 107.49 28.153 107.579 28.254C107.723 28.414 107.889 28.547 108.07 28.652L108.404 28.075C108.204 27.96 108.034 27.793 107.917 27.588L104.07 20.927C103.952 20.722 103.892 20.491 103.892 20.261L103.23 20.261" fill="#566531"/><path d="M84.505 11.868L79.661 20.257L74.822 11.866C75.118 11.699 75.459 11.603 75.82 11.604L83.506 11.599C83.867 11.6 84.211 11.698 84.505 11.868" fill="#96ca4f"/><path d="M79.661 20.258L84.505 11.869C84.805 12.042 85.062 12.291 85.238 12.6L89.088 19.265C89.264 19.574 89.356 19.92 89.359 20.261L89.351 20.263L79.667 20.261L79.661 20.258" fill="#96ca4f"/><path d="M74.823 11.867L79.662 20.258L79.659 20.264L69.976 20.262C69.975 19.915 70.065 19.574 70.245 19.262L74.091 12.6C74.271 12.288 74.522 12.04 74.823 11.867" fill="#96ca4f"/><path d="M89.351 20.263L89.359 20.26C89.359 20.607 89.271 20.948 89.091 21.26L85.244 27.923C85.064 28.234 84.813 28.482 84.513 28.655L84.507 28.652L79.667 20.261L89.351 20.263" fill="#96ca4f"/></g><path d="M79.658 20.264L79.667 20.261L79.661 20.258L79.658 20.264" fill="#5b9ad3"/><g clip-path="url(#c10)"><path d="M79.667 20.261L84.507 28.652L84.513 28.655C84.213 28.828 83.866 28.921 83.511 28.924L75.815 28.921C75.459 28.924 75.115 28.826 74.814 28.652L79.658 20.264L79.667 20.261" fill="#96ca4f"/><path d="M69.976 20.261L79.658 20.263L74.815 28.652C74.521 28.482 74.264 28.233 74.082 27.921L70.243 21.263C70.063 20.95 69.976 20.608 69.976 20.261" fill="#96ca4f"/><path d="M75.76 28.921C75.779 28.922 75.797 28.922 75.816 28.922L76.914 28.922L75.815 28.921C75.81 28.921 75.804 28.921 75.799 28.921C75.786 28.921 75.773 28.921 75.76 28.921M75.148 28.075L74.815 28.652C74.581 28.517 74.371 28.333 74.203 28.106C74.458 28.452 74.815 28.705 75.219 28.831C75.078 28.786 74.943 28.726 74.815 28.652L75.148 28.075M84.292 11.762C84.365 11.793 84.437 11.829 84.505 11.869C84.583 11.914 84.658 11.964 84.729 12.018C84.595 11.915 84.448 11.828 84.292 11.762M84.286 11.759C84.287 11.76 84.289 11.761 84.291 11.761C84.289 11.761 84.287 11.76 84.286 11.759M81.201 11.601L75.816 11.601C75.102 11.601 74.441 11.982 74.083 12.602L70.239 19.262C69.881 19.881 69.882 20.643 70.239 21.261L73.148 26.302L70.243 21.264C70.063 20.951 69.976 20.609 69.976 20.262C69.975 19.915 70.065 19.574 70.245 19.262L74.091 12.6C74.271 12.288 74.522 12.04 74.823 11.867C75.117 11.701 75.456 11.604 75.816 11.604L75.821 11.604L81.201 11.601" fill="#767071"/><path d="M83.507 11.601L81.2 11.601L75.82 11.604L75.816 11.604C75.456 11.604 75.117 11.701 74.822 11.867L75.155 12.444C75.353 12.331 75.58 12.268 75.815 12.268L83.507 12.268C83.744 12.268 83.972 12.331 84.172 12.446L84.505 11.869C84.436 11.829 84.365 11.793 84.292 11.762C84.291 11.762 84.291 11.761 84.29 11.761C84.289 11.761 84.287 11.76 84.285 11.759C84.043 11.657 83.779 11.601 83.507 11.601" fill="#566531"/><path d="M84.505 11.868L84.505 11.868L84.172 12.446C84.372 12.561 84.542 12.728 84.661 12.934L88.506 19.594C88.625 19.8 88.684 20.031 88.684 20.262L89.351 20.262C89.351 19.916 89.262 19.571 89.083 19.261L85.238 12.601C85.106 12.371 84.932 12.174 84.729 12.018C84.657 11.963 84.583 11.913 84.505 11.868" fill="#566531"/><path d="M74.823 11.867C74.522 12.04 74.271 12.288 74.091 12.6L70.245 19.262C70.065 19.574 69.975 19.915 69.976 20.262L70.638 20.262C70.638 20.031 70.697 19.8 70.816 19.595L74.661 12.935C74.781 12.727 74.953 12.559 75.156 12.444L74.823 11.867" fill="#566531"/><path d="M88.684 20.262C88.684 20.492 88.624 20.722 88.506 20.927L84.661 27.588C84.543 27.793 84.373 27.959 84.174 28.075L84.507 28.651L84.508 28.652C84.806 28.48 85.06 28.23 85.238 27.921L89.083 21.261C89.262 20.952 89.351 20.607 89.351 20.262L88.684 20.262" fill="#566531"/><path d="M84.174 28.075C83.974 28.19 83.745 28.254 83.507 28.254L75.815 28.255C75.577 28.255 75.347 28.191 75.147 28.075L74.814 28.652C74.942 28.726 75.078 28.786 75.219 28.83C75.392 28.885 75.574 28.915 75.759 28.921C75.773 28.921 75.786 28.921 75.799 28.921C75.804 28.921 75.809 28.921 75.814 28.921L76.914 28.921L83.507 28.921L83.508 28.921C83.865 28.921 84.209 28.825 84.508 28.652L84.507 28.652L84.174 28.075" fill="#566531"/><path d="M69.976 20.261L69.976 20.261C69.976 20.608 70.063 20.95 70.243 21.263L73.148 26.301L74.083 27.921C74.12 27.985 74.16 28.046 74.203 28.105C74.371 28.332 74.581 28.517 74.815 28.652L75.148 28.075C74.949 27.959 74.779 27.793 74.661 27.588L70.817 20.928C70.698 20.722 70.638 20.491 70.638 20.261L69.976 20.261" fill="#566531"/><path d="M101.133 21.468L96.289 29.857L91.449 21.467C91.746 21.299 92.087 21.203 92.448 21.204L100.133 21.199C100.494 21.2 100.838 21.298 101.133 21.468" fill="#f79548"/><path d="M96.289 29.858L101.133 21.469C101.433 21.642 101.69 21.891 101.866 22.2L105.716 28.864C105.891 29.174 105.984 29.519 105.987 29.86L105.979 29.863L96.295 29.861L96.289 29.858" fill="#f79548"/><path d="M91.449 21.467L96.289 29.858L96.286 29.863L86.602 29.862C86.602 29.515 86.692 29.174 86.872 28.862L90.719 22.199C90.898 21.888 91.149 21.64 91.449 21.467" fill="#f79548"/><path d="M105.979 29.863L105.987 29.86C105.987 30.207 105.899 30.548 105.718 30.86L101.871 37.522C101.692 37.834 101.441 38.082 101.141 38.255L101.135 38.252L96.295 29.862L105.979 29.863" fill="#f79548"/></g><path d="M96.287 29.863L96.295 29.861L96.29 29.858L96.287 29.863" fill="#5b9ad3"/><g clip-path="url(#c11)"><path d="M96.295 29.861L101.135 38.251L101.141 38.255C100.841 38.428 100.494 38.52 100.139 38.523L92.442 38.521C92.086 38.523 91.743 38.425 91.442 38.252L96.287 29.863L96.295 29.861" fill="#f79548"/><path d="M86.603 29.862L96.287 29.864L91.443 38.252C91.149 38.083 90.892 37.834 90.71 37.522L86.872 30.864C86.69 30.551 86.603 30.209 86.603 29.862" fill="#f79548"/><path d="M91.776 37.675L91.443 38.252C91.238 38.134 91.052 37.978 90.896 37.789C91.148 38.096 91.484 38.32 91.861 38.435C91.715 38.39 91.575 38.328 91.443 38.252L91.776 37.675M101.859 22.187C101.861 22.191 101.864 22.195 101.866 22.2L102.009 22.447L101.867 22.201C101.864 22.196 101.861 22.192 101.859 22.187M101.154 21.48C101.21 21.514 101.265 21.55 101.318 21.589C101.265 21.55 101.21 21.514 101.154 21.48M100.867 21.34C100.942 21.37 101.016 21.404 101.086 21.442C101.015 21.404 100.942 21.37 100.867 21.34M97.572 21.201L92.444 21.201C91.73 21.202 91.069 21.582 90.712 22.201L86.867 28.861C86.509 29.48 86.509 30.243 86.867 30.861L89.617 35.626L86.871 30.864C86.69 30.551 86.603 30.208 86.603 29.862C86.603 29.515 86.692 29.174 86.873 28.862L90.719 22.2C90.899 21.888 91.15 21.64 91.449 21.467C91.745 21.301 92.083 21.205 92.442 21.205L92.449 21.205L97.572 21.201" fill="#767071"/><path d="M100.134 21.201L97.572 21.201L92.449 21.204L92.442 21.204C92.083 21.204 91.745 21.3 91.449 21.467L91.782 22.044C91.981 21.93 92.208 21.867 92.444 21.867L100.134 21.867C100.371 21.867 100.6 21.931 100.8 22.046L101.133 21.468C101.118 21.459 101.102 21.451 101.086 21.442C101.015 21.404 100.942 21.369 100.866 21.34C100.637 21.249 100.389 21.201 100.134 21.201" fill="#785233"/><path d="M101.133 21.468L100.8 22.046C101 22.161 101.17 22.328 101.289 22.534L105.134 29.194C105.253 29.4 105.312 29.631 105.312 29.862L105.979 29.862C105.979 29.516 105.89 29.171 105.711 28.861L102.008 22.446L101.866 22.199C101.863 22.195 101.861 22.191 101.858 22.187C101.718 21.949 101.534 21.747 101.318 21.589C101.265 21.55 101.21 21.514 101.153 21.48C101.147 21.476 101.14 21.472 101.133 21.468" fill="#785233"/><path d="M91.449 21.467C91.149 21.64 90.898 21.888 90.719 22.199L86.872 28.862C86.692 29.174 86.602 29.515 86.602 29.862L87.266 29.862C87.265 29.631 87.325 29.4 87.443 29.194L91.288 22.535C91.408 22.328 91.58 22.16 91.782 22.044L91.449 21.467" fill="#785233"/><path d="M105.312 29.862C105.312 30.092 105.253 30.323 105.134 30.528L101.289 37.187C101.171 37.393 101.001 37.559 100.802 37.674L101.135 38.251L101.136 38.252C101.434 38.079 101.688 37.83 101.866 37.521L105.711 30.861C105.89 30.552 105.979 30.207 105.979 29.862L105.312 29.862" fill="#785233"/><path d="M100.802 37.675C100.602 37.791 100.372 37.855 100.134 37.855L92.443 37.855C92.205 37.855 91.975 37.791 91.776 37.675L91.442 38.252C91.574 38.328 91.715 38.39 91.86 38.435C92.047 38.492 92.242 38.521 92.443 38.521L100.134 38.521L100.135 38.521C100.493 38.521 100.837 38.426 101.136 38.253L101.135 38.252L100.802 37.675" fill="#785233"/><path d="M86.603 29.862L86.603 29.862C86.603 30.209 86.69 30.551 86.872 30.864L89.617 35.626L90.712 37.522C90.766 37.616 90.828 37.706 90.896 37.789C91.052 37.978 91.238 38.134 91.443 38.252L91.776 37.675C91.577 37.56 91.407 37.393 91.289 37.188L87.444 30.528C87.325 30.323 87.266 30.092 87.266 29.862L86.603 29.862" fill="#785233"/><path d="M117.76 31.069L112.917 39.458L108.078 31.067C108.375 30.9 108.714 30.804 109.076 30.804L116.761 30.8C117.122 30.801 117.466 30.899 117.76 31.069" fill="#96ca4f"/><path d="M112.917 39.458L117.76 31.069C118.061 31.242 118.318 31.491 118.494 31.8L122.343 38.464C122.519 38.773 122.612 39.119 122.615 39.461L122.606 39.463L112.923 39.461L112.917 39.458" fill="#96ca4f"/><path d="M108.078 31.067L112.917 39.458L112.914 39.464L103.231 39.462C103.231 39.115 103.32 38.775 103.499 38.463L107.346 31.8C107.527 31.488 107.778 31.241 108.078 31.067" fill="#96ca4f"/><path d="M122.605 39.463L122.616 39.46C122.616 39.807 122.526 40.148 122.345 40.46L118.499 47.123C118.319 47.434 118.069 47.682 117.768 47.855L117.763 47.852L112.922 39.461L122.605 39.463" fill="#96ca4f"/></g><path d="M112.913 39.463L112.923 39.46L112.917 39.458L112.913 39.463" fill="#5b9ad3"/><g clip-path="url(#c12)"><path d="M112.923 39.461L117.763 47.852L117.769 47.855C117.468 48.028 117.122 48.121 116.767 48.124L109.07 48.122C108.714 48.124 108.37 48.026 108.07 47.853L112.913 39.463L112.923 39.461" fill="#96ca4f"/><path d="M103.23 39.462L112.914 39.464L108.07 47.853C107.776 47.683 107.518 47.435 107.337 47.122L103.499 40.463C103.318 40.151 103.23 39.808 103.23 39.462" fill="#96ca4f"/><path d="M109.01 48.121C109.031 48.122 109.051 48.122 109.072 48.122L110.17 48.122L109.07 48.122L109.057 48.122C109.041 48.122 109.026 48.121 109.01 48.121M108.484 48.034C108.486 48.034 108.487 48.035 108.488 48.035C108.487 48.035 108.486 48.034 108.484 48.034M107.559 47.431C107.56 47.432 107.56 47.432 107.56 47.433C107.56 47.432 107.56 47.432 107.559 47.431M108.404 47.276L108.071 47.853C107.882 47.744 107.709 47.603 107.562 47.434C107.807 47.716 108.126 47.923 108.481 48.033C108.338 47.988 108.2 47.927 108.071 47.853L108.404 47.276M117.244 30.86C117.427 30.906 117.601 30.977 117.76 31.069C117.837 31.113 117.911 31.163 117.982 31.216C117.764 31.049 117.513 30.927 117.244 30.86M117.236 30.858L117.236 30.858M115.053 30.801L109.072 30.801C108.357 30.801 107.697 31.182 107.34 31.801L103.494 38.461C103.136 39.081 103.136 39.844 103.494 40.461L106.746 46.094L103.499 40.463C103.318 40.151 103.231 39.808 103.231 39.462C103.231 39.115 103.32 38.775 103.499 38.463L107.346 31.8C107.527 31.488 107.778 31.24 108.078 31.067C108.375 30.9 108.715 30.804 109.076 30.804L115.053 30.801" fill="#767071"/><path d="M116.762 30.801L115.053 30.801L109.076 30.804C108.714 30.804 108.375 30.9 108.078 31.067L108.41 31.644C108.609 31.531 108.836 31.468 109.072 31.468L116.762 31.468C116.999 31.468 117.228 31.532 117.427 31.646L117.76 31.069C117.601 30.977 117.427 30.906 117.244 30.86C117.241 30.86 117.239 30.859 117.236 30.858C117.083 30.821 116.924 30.801 116.762 30.801" fill="#566531"/><path d="M117.76 31.069L117.76 31.069L117.427 31.646C117.627 31.762 117.797 31.928 117.917 32.134L121.762 38.794C121.881 39.001 121.94 39.232 121.94 39.463L122.606 39.463L122.607 39.463C122.607 39.117 122.518 38.771 122.339 38.461L118.494 31.801C118.361 31.571 118.186 31.374 117.982 31.216C117.911 31.163 117.837 31.113 117.76 31.069" fill="#566531"/><path d="M108.078 31.067C107.778 31.241 107.527 31.488 107.346 31.8L103.499 38.463C103.32 38.775 103.231 39.115 103.231 39.462L103.893 39.462C103.893 39.232 103.952 39.001 104.071 38.795L107.917 32.134C108.036 31.927 108.208 31.759 108.411 31.644L108.078 31.067" fill="#566531"/><path d="M122.607 39.462L122.606 39.462L121.94 39.462C121.94 39.692 121.88 39.922 121.762 40.127L117.916 46.788C117.798 46.993 117.629 47.159 117.43 47.274L117.763 47.851L117.764 47.852C118.062 47.68 118.315 47.43 118.493 47.122L122.339 40.461C122.518 40.152 122.607 39.807 122.607 39.462" fill="#566531"/><path d="M117.43 47.275C117.23 47.391 117.001 47.455 116.762 47.455L109.072 47.456C108.833 47.456 108.604 47.392 108.404 47.276L108.071 47.853C108.2 47.927 108.337 47.988 108.48 48.033C108.482 48.033 108.483 48.034 108.484 48.034C108.485 48.034 108.487 48.035 108.488 48.035C108.655 48.086 108.831 48.116 109.01 48.121C109.025 48.122 109.041 48.122 109.056 48.122L109.07 48.122L110.17 48.122L116.762 48.121L116.765 48.121C117.122 48.121 117.465 48.026 117.764 47.853L117.763 47.852L117.43 47.275" fill="#566531"/><path d="M103.23 39.462L103.23 39.462C103.23 39.808 103.318 40.151 103.499 40.463L106.746 46.094L107.34 47.122C107.404 47.233 107.477 47.336 107.559 47.431C107.56 47.432 107.56 47.432 107.56 47.433C107.56 47.433 107.56 47.434 107.561 47.434C107.708 47.603 107.882 47.744 108.07 47.853L108.404 47.276C108.204 47.161 108.034 46.994 107.917 46.789L104.07 40.127C103.952 39.922 103.892 39.692 103.892 39.462L103.23 39.462" fill="#566531"/><path d="M84.505 31.069L79.661 39.458L74.822 31.067C75.118 30.9 75.459 30.804 75.82 30.804L83.506 30.8C83.867 30.801 84.211 30.899 84.505 31.069" fill="#96ca4f"/><path d="M79.661 39.458L84.505 31.069C84.805 31.242 85.062 31.491 85.238 31.8L89.088 38.464C89.264 38.773 89.356 39.119 89.359 39.461L89.351 39.463L79.667 39.461L79.661 39.458" fill="#96ca4f"/><path d="M74.823 31.067L79.662 39.458L79.659 39.464L69.976 39.462C69.975 39.115 70.065 38.775 70.245 38.463L74.091 31.8C74.271 31.488 74.522 31.241 74.823 31.067" fill="#96ca4f"/><path d="M89.351 39.463L89.359 39.46C89.359 39.807 89.271 40.148 89.091 40.46L85.244 47.123C85.064 47.434 84.813 47.682 84.513 47.855L84.507 47.852L79.667 39.461L89.351 39.463" fill="#96ca4f"/></g><path d="M79.658 39.463L79.667 39.46L79.661 39.458L79.658 39.463" fill="#5b9ad3"/><g clip-path="url(#c13)"><path d="M79.667 39.461L84.507 47.852L84.513 47.855C84.213 48.028 83.866 48.121 83.511 48.124L75.815 48.122C75.459 48.124 75.115 48.026 74.814 47.853L79.658 39.463L79.667 39.461" fill="#96ca4f"/><path d="M69.976 39.462L79.658 39.464L74.815 47.853C74.521 47.683 74.264 47.435 74.082 47.122L70.243 40.463C70.063 40.151 69.976 39.808 69.976 39.462" fill="#96ca4f"/><path d="M75.747 48.121C75.77 48.122 75.792 48.122 75.815 48.122L76.914 48.122L75.814 48.122L75.801 48.122C75.783 48.122 75.765 48.121 75.747 48.121M74.179 47.273C74.451 47.66 74.849 47.934 75.299 48.054C75.129 48.008 74.966 47.94 74.814 47.853L75.148 47.276L74.814 47.853C74.57 47.711 74.351 47.515 74.179 47.273M85.232 31.79C85.234 31.793 85.236 31.797 85.237 31.8L85.38 32.047L85.238 31.801C85.236 31.797 85.234 31.794 85.232 31.79M83.937 30.848C84.139 30.893 84.331 30.968 84.505 31.069C84.6 31.124 84.69 31.186 84.775 31.256C84.533 31.056 84.246 30.916 83.937 30.848M83.93 30.847C83.932 30.847 83.933 30.847 83.934 30.848C83.933 30.847 83.932 30.847 83.93 30.847M81.798 30.801L75.815 30.801C75.101 30.801 74.44 31.182 74.083 31.802L70.238 38.461C69.881 39.081 69.882 39.844 70.238 40.461L73.37 45.888L70.243 40.463C70.062 40.151 69.976 39.808 69.976 39.462C69.974 39.115 70.064 38.775 70.244 38.463L74.091 31.8C74.271 31.488 74.521 31.241 74.822 31.067C75.118 30.9 75.459 30.804 75.82 30.804L81.798 30.801" fill="#767071"/><path d="M83.507 30.801L81.798 30.801L75.82 30.804C75.459 30.804 75.118 30.9 74.822 31.067L75.155 31.644C75.353 31.531 75.58 31.468 75.815 31.468L83.507 31.468C83.744 31.468 83.972 31.532 84.172 31.646L84.505 31.069C84.331 30.968 84.139 30.893 83.937 30.848C83.936 30.848 83.935 30.848 83.934 30.848C83.933 30.847 83.932 30.847 83.931 30.847C83.793 30.817 83.651 30.801 83.507 30.801" fill="#566531"/><path d="M84.505 31.069L84.505 31.069L84.172 31.646C84.372 31.762 84.542 31.928 84.661 32.134L88.506 38.794C88.625 39.001 88.684 39.232 88.684 39.463L89.351 39.463C89.351 39.117 89.262 38.772 89.083 38.461L85.38 32.047L85.238 31.8C85.236 31.797 85.234 31.793 85.232 31.79C85.11 31.583 84.955 31.403 84.776 31.255C84.69 31.186 84.6 31.124 84.505 31.069" fill="#566531"/><path d="M74.823 31.067C74.522 31.241 74.271 31.488 74.091 31.8L70.245 38.463C70.065 38.775 69.975 39.115 69.976 39.462L70.638 39.462C70.638 39.231 70.697 39.001 70.816 38.795L74.661 32.135C74.781 31.927 74.953 31.759 75.156 31.644L74.823 31.067" fill="#566531"/><path d="M88.684 39.463C88.684 39.693 88.624 39.923 88.506 40.128L84.661 46.789C84.543 46.994 84.373 47.16 84.174 47.275L84.507 47.852L84.508 47.853C84.807 47.681 85.06 47.431 85.238 47.122L89.083 40.462C89.262 40.152 89.351 39.808 89.351 39.463L88.684 39.463" fill="#566531"/><path d="M84.174 47.275C83.974 47.39 83.745 47.454 83.507 47.454L75.815 47.456C75.578 47.456 75.348 47.391 75.148 47.275L74.814 47.852C74.966 47.94 75.129 48.008 75.299 48.054C75.444 48.093 75.594 48.115 75.747 48.121C75.765 48.121 75.783 48.121 75.801 48.121L75.815 48.121L76.914 48.122L83.507 48.121L83.51 48.121C83.867 48.121 84.21 48.026 84.508 47.853L84.507 47.852L84.174 47.275" fill="#566531"/><path d="M69.976 39.462L69.976 39.462C69.976 39.808 70.063 40.151 70.243 40.463L73.371 45.888L74.083 47.122C74.113 47.174 74.146 47.225 74.18 47.273C74.351 47.515 74.57 47.711 74.815 47.853L75.148 47.276C74.949 47.16 74.779 46.994 74.661 46.789L70.816 40.128C70.697 39.922 70.638 39.692 70.638 39.462L69.976 39.462" fill="#566531"/><path d="M169.013 2.269L164.17 10.658L159.33 2.267C159.627 2.099 159.967 2.004 160.328 2.004L168.014 2C168.375 2 168.719 2.098 169.013 2.269" fill="#96ca4f"/><path d="M164.17 10.658L169.013 2.269C169.313 2.442 169.57 2.691 169.746 3L173.596 9.665C173.772 9.974 173.864 10.32 173.868 10.661L173.858 10.663L164.176 10.661L164.17 10.658" fill="#96ca4f"/><path d="M159.33 2.267L164.17 10.658L164.166 10.664L154.483 10.662C154.483 10.315 154.572 9.974 154.752 9.663L158.598 3C158.779 2.688 159.03 2.44 159.33 2.267" fill="#96ca4f"/><path d="M173.858 10.663L173.868 10.661C173.868 11.007 173.779 11.348 173.598 11.66L169.753 18.322C169.572 18.634 169.322 18.882 169.021 19.055L169.016 19.052L164.176 10.661L173.858 10.663" fill="#96ca4f"/></g><path d="M164.166 10.663L164.176 10.66L164.17 10.657L164.166 10.663" fill="#5b9ad3"/><g clip-path="url(#c14)"><path d="M164.176 10.661L169.015 19.051L169.021 19.055C168.721 19.228 168.375 19.321 168.02 19.324L160.322 19.321C159.967 19.324 159.623 19.226 159.323 19.053L164.166 10.664L164.176 10.661" fill="#96ca4f"/><path d="M154.483 10.661L164.166 10.663L159.323 19.052C159.028 18.882 158.772 18.633 158.591 18.321L154.752 11.663C154.57 11.35 154.483 11.008 154.483 10.661" fill="#96ca4f"/><path d="M158.591 18.321C158.848 18.767 159.263 19.09 159.742 19.235C159.596 19.19 159.455 19.128 159.323 19.052L159.656 18.475L159.323 19.052C159.028 18.882 158.772 18.633 158.591 18.321M169.725 2.962C169.732 2.974 169.739 2.987 169.746 2.999L170.369 4.077L169.747 3C169.74 2.987 169.732 2.975 169.725 2.962M168.526 2.067C168.699 2.113 168.862 2.181 169.013 2.269C169.125 2.333 169.232 2.408 169.33 2.494C169.099 2.292 168.824 2.146 168.526 2.067M165.918 2L160.323 2C159.611 2.001 158.948 2.382 158.591 3.001L154.747 9.66C154.39 10.28 154.39 11.042 154.747 11.661L158.591 18.321L154.752 11.663C154.57 11.35 154.483 11.008 154.483 10.661C154.483 10.315 154.572 9.973 154.752 9.662L158.599 2.999C158.779 2.687 159.031 2.44 159.33 2.266C159.627 2.099 159.967 2.003 160.328 2.004L165.918 2" fill="#767071"/><path d="M168.015 2.001L165.918 2.001L160.328 2.004C159.967 2.004 159.627 2.099 159.33 2.267L159.663 2.844C159.861 2.731 160.089 2.668 160.323 2.667L168.015 2.667C168.252 2.667 168.481 2.731 168.68 2.846L169.013 2.269C168.862 2.182 168.699 2.113 168.526 2.067C168.362 2.024 168.19 2.001 168.015 2.001" fill="#566531"/><path d="M169.013 2.269L169.013 2.269L168.68 2.846C168.88 2.961 169.051 3.128 169.17 3.334L173.015 9.994C173.134 10.2 173.193 10.432 173.193 10.663L173.858 10.663L173.86 10.662C173.86 10.317 173.771 9.971 173.592 9.661L170.369 4.078L169.746 3C169.739 2.987 169.732 2.975 169.725 2.962C169.616 2.785 169.483 2.627 169.33 2.494C169.232 2.409 169.125 2.334 169.013 2.269" fill="#566531"/><path d="M159.33 2.267C159.03 2.44 158.779 2.688 158.598 3L154.752 9.663C154.572 9.974 154.483 10.315 154.483 10.662L155.146 10.662C155.146 10.431 155.205 10.2 155.324 9.994L159.168 3.335C159.288 3.128 159.46 2.96 159.663 2.844L159.33 2.267" fill="#566531"/><path d="M173.86 10.662L173.858 10.662L173.193 10.662C173.193 10.893 173.133 11.123 173.015 11.328L169.17 17.988C169.052 18.193 168.882 18.359 168.683 18.475L169.015 19.051L169.017 19.052C169.315 18.879 169.569 18.63 169.747 18.321L173.592 11.662C173.771 11.352 173.86 11.007 173.86 10.662" fill="#566531"/><path d="M168.683 18.475C168.483 18.591 168.253 18.655 168.015 18.655L160.322 18.655C160.085 18.655 159.856 18.591 159.656 18.475L159.323 19.053C159.455 19.129 159.596 19.19 159.742 19.235C159.927 19.292 160.123 19.322 160.322 19.322L160.323 19.322L168.015 19.322L168.016 19.322C168.374 19.322 168.718 19.226 169.017 19.052L169.015 19.051L168.683 18.475" fill="#566531"/><path d="M154.483 10.661L154.483 10.661C154.483 11.008 154.57 11.35 154.752 11.663L158.591 18.321C158.772 18.633 159.028 18.882 159.323 19.052L159.656 18.475C159.457 18.36 159.287 18.193 159.168 17.988L155.324 11.328C155.205 11.122 155.146 10.892 155.146 10.661L154.483 10.661" fill="#566531"/><path d="M185.641 11.868L180.798 20.257L175.958 11.866C176.255 11.699 176.595 11.603 176.956 11.604L184.642 11.599C185.003 11.6 185.347 11.698 185.641 11.868" fill="#96ca4f"/><path d="M180.798 20.258L185.641 11.869C185.941 12.042 186.198 12.291 186.373 12.6L190.224 19.265C190.4 19.574 190.492 19.92 190.495 20.261L190.486 20.263L180.804 20.261L180.798 20.258" fill="#96ca4f"/><path d="M175.958 11.867L180.798 20.258L180.794 20.264L171.111 20.262C171.111 19.915 171.2 19.574 171.38 19.262L175.226 12.6C175.407 12.288 175.657 12.04 175.958 11.867" fill="#96ca4f"/><path d="M190.486 20.263L190.495 20.26C190.495 20.607 190.406 20.948 190.226 21.26L186.38 27.923C186.2 28.234 185.949 28.482 185.648 28.655L185.642 28.652L180.804 20.261L190.486 20.263" fill="#96ca4f"/></g><path d="M180.794 20.264L180.804 20.261L180.798 20.258L180.794 20.264" fill="#5b9ad3"/><g clip-path="url(#c15)"><path d="M180.804 20.261L185.643 28.652L185.648 28.655C185.349 28.828 185.003 28.921 184.648 28.924L176.95 28.921C176.595 28.924 176.251 28.826 175.951 28.652L180.794 20.264L180.804 20.261" fill="#96ca4f"/><path d="M171.112 20.261L180.794 20.263L175.951 28.652C175.657 28.482 175.4 28.233 175.218 27.921L171.38 21.263C171.199 20.95 171.112 20.608 171.112 20.261" fill="#96ca4f"/><path d="M176.899 28.921C176.917 28.921 176.935 28.922 176.952 28.922L178.05 28.922L176.951 28.921C176.945 28.921 176.94 28.921 176.935 28.921C176.923 28.921 176.911 28.921 176.899 28.921M176.284 28.075L175.951 28.652C175.784 28.556 175.628 28.434 175.492 28.289C175.714 28.526 175.99 28.705 176.295 28.811C176.176 28.769 176.061 28.716 175.951 28.652L176.284 28.075M186.36 12.577C186.365 12.584 186.369 12.592 186.373 12.599L186.844 13.414L186.374 12.601C186.37 12.593 186.365 12.585 186.36 12.577M185.508 11.798C185.554 11.82 185.598 11.844 185.641 11.869C185.687 11.895 185.732 11.924 185.776 11.954C185.691 11.895 185.602 11.843 185.508 11.798M182.336 11.601L176.952 11.601C176.238 11.601 175.578 11.982 175.22 12.602L171.374 19.262C171.017 19.881 171.017 20.643 171.374 21.261L174.083 25.953L171.38 21.264C171.198 20.951 171.112 20.609 171.112 20.262C171.112 19.915 171.201 19.574 171.38 19.262L175.227 12.599C175.408 12.288 175.657 12.04 175.958 11.867C176.254 11.701 176.592 11.604 176.952 11.604L176.956 11.604L182.336 11.601" fill="#767071"/><path d="M184.643 11.601L182.336 11.601L176.956 11.604L176.952 11.604C176.592 11.604 176.254 11.701 175.958 11.867L176.291 12.444C176.49 12.331 176.717 12.268 176.952 12.268L184.643 12.268C184.88 12.268 185.108 12.331 185.308 12.446L185.641 11.869C185.598 11.844 185.553 11.82 185.508 11.798C185.242 11.671 184.947 11.601 184.643 11.601" fill="#566531"/><path d="M185.641 11.868L185.641 11.868L185.308 12.446C185.508 12.561 185.678 12.728 185.797 12.934L189.643 19.594C189.762 19.8 189.821 20.031 189.821 20.262L190.486 20.262L190.488 20.262C190.488 19.916 190.399 19.571 190.22 19.261L186.844 13.414L186.373 12.599C186.369 12.591 186.365 12.584 186.36 12.576C186.21 12.325 186.01 12.114 185.776 11.953C185.732 11.923 185.687 11.895 185.641 11.868" fill="#566531"/><path d="M175.958 11.867C175.657 12.04 175.407 12.288 175.226 12.6L171.38 19.262C171.2 19.574 171.111 19.915 171.111 20.262L171.773 20.262C171.773 20.031 171.833 19.801 171.951 19.595L175.797 12.935C175.916 12.727 176.089 12.56 176.291 12.444L175.958 11.867" fill="#566531"/><path d="M190.488 20.262L190.486 20.263L189.821 20.262C189.82 20.493 189.761 20.723 189.643 20.928L185.797 27.588C185.679 27.794 185.509 27.96 185.31 28.075L185.643 28.652L185.644 28.653C185.942 28.48 186.196 28.231 186.374 27.922L190.22 21.261C190.399 20.952 190.488 20.607 190.488 20.262" fill="#566531"/><path d="M185.31 28.075C185.11 28.191 184.881 28.254 184.643 28.254L176.952 28.255C176.714 28.255 176.484 28.191 176.284 28.075L175.951 28.652C176.06 28.715 176.176 28.769 176.295 28.811C176.487 28.877 176.69 28.915 176.899 28.921C176.911 28.921 176.923 28.921 176.935 28.921C176.94 28.921 176.945 28.921 176.95 28.921L178.05 28.921L184.643 28.921L184.644 28.921C185.002 28.921 185.345 28.825 185.644 28.652L185.643 28.652L185.31 28.075" fill="#566531"/><path d="M171.112 20.261L171.112 20.261C171.112 20.608 171.199 20.95 171.38 21.263L174.083 25.953L175.22 27.921C175.298 28.055 175.389 28.178 175.492 28.288C175.629 28.433 175.784 28.555 175.951 28.652L176.284 28.075C176.085 27.959 175.916 27.793 175.797 27.588L171.952 20.927C171.833 20.722 171.774 20.491 171.774 20.261L171.112 20.261" fill="#566531"/><path d="M152.386 11.868L147.542 20.257L142.702 11.866C142.999 11.699 143.34 11.603 143.701 11.604L151.386 11.599C151.747 11.6 152.091 11.698 152.386 11.868" fill="#96ca4f"/><path d="M147.542 20.258L152.386 11.869C152.685 12.042 152.942 12.291 153.118 12.6L156.968 19.265C157.143 19.574 157.236 19.92 157.24 20.261L157.231 20.263L147.547 20.261L147.542 20.258" fill="#96ca4f"/><path d="M142.702 11.867L147.542 20.258L147.539 20.264L137.855 20.262C137.855 19.915 137.944 19.574 138.125 19.262L141.971 12.6C142.151 12.288 142.402 12.04 142.702 11.867" fill="#96ca4f"/><path d="M157.232 20.263L157.24 20.26C157.24 20.607 157.152 20.948 156.971 21.26L153.125 27.923C152.945 28.234 152.694 28.482 152.394 28.655L152.388 28.652L147.548 20.261L157.232 20.263" fill="#96ca4f"/></g><path d="M147.539 20.264L147.548 20.261L147.543 20.258L147.539 20.264" fill="#5b9ad3"/><g clip-path="url(#c16)"><path d="M147.548 20.261L152.388 28.652L152.394 28.655C152.094 28.828 151.747 28.921 151.392 28.924L143.696 28.921C143.339 28.924 142.996 28.826 142.696 28.652L147.54 20.264L147.548 20.261" fill="#96ca4f"/><path d="M137.855 20.261L147.539 20.263L142.695 28.652C142.401 28.482 142.144 28.233 141.963 27.921L138.124 21.263C137.942 20.95 137.855 20.608 137.855 20.261" fill="#96ca4f"/><path d="M143.641 28.921C143.659 28.921 143.678 28.922 143.696 28.922L144.795 28.922L143.696 28.921C143.69 28.921 143.685 28.921 143.68 28.921C143.667 28.921 143.654 28.921 143.641 28.921M142.05 28.057C142.302 28.423 142.667 28.691 143.082 28.825C142.947 28.781 142.818 28.723 142.695 28.652L143.028 28.076L142.695 28.652C142.445 28.508 142.222 28.306 142.05 28.057M149.081 11.601L143.696 11.601C142.982 11.601 142.321 11.982 141.964 12.602L138.119 19.262C137.761 19.881 137.763 20.643 138.119 21.261L141.507 27.13L138.125 21.264C137.943 20.951 137.855 20.609 137.855 20.262C137.855 19.915 137.945 19.574 138.125 19.262L141.972 12.599C142.152 12.288 142.402 12.04 142.703 11.867C142.998 11.701 143.337 11.604 143.697 11.604L143.701 11.604L149.081 11.601" fill="#767071"/><path d="M151.388 11.601L149.081 11.601L143.701 11.604L143.697 11.604C143.337 11.604 142.998 11.701 142.702 11.867L143.035 12.444C143.234 12.331 143.461 12.268 143.696 12.268L151.387 12.268C151.624 12.268 151.853 12.332 152.052 12.447L152.386 11.869C152.087 11.696 151.744 11.601 151.388 11.601" fill="#566531"/><path d="M152.386 11.868L152.052 12.446C152.252 12.561 152.422 12.728 152.541 12.934L156.387 19.594C156.506 19.8 156.565 20.031 156.565 20.262L157.232 20.262C157.232 19.916 157.143 19.571 156.964 19.261L153.118 12.601C152.94 12.291 152.685 12.041 152.386 11.868" fill="#566531"/><path d="M142.702 11.867C142.402 12.04 142.151 12.288 141.971 12.6L138.125 19.262C137.944 19.574 137.855 19.915 137.855 20.262L138.518 20.262C138.518 20.031 138.577 19.801 138.695 19.595L142.541 12.935C142.66 12.727 142.833 12.559 143.035 12.444L142.702 11.867" fill="#566531"/><path d="M156.565 20.262C156.565 20.492 156.506 20.722 156.387 20.927L152.541 27.588C152.423 27.793 152.254 27.959 152.055 28.074L152.388 28.651L152.389 28.652C152.687 28.479 152.94 28.23 153.119 27.921L156.964 21.261C157.143 20.952 157.232 20.607 157.232 20.262L156.565 20.262" fill="#566531"/><path d="M152.055 28.075C151.855 28.191 151.626 28.255 151.388 28.255L143.696 28.256C143.458 28.256 143.228 28.191 143.029 28.076L142.696 28.652C142.818 28.723 142.947 28.781 143.082 28.825C143.26 28.883 143.449 28.916 143.641 28.921C143.654 28.921 143.667 28.921 143.68 28.921C143.685 28.921 143.69 28.921 143.696 28.921L144.795 28.922L151.388 28.921L151.389 28.921C151.746 28.921 152.09 28.826 152.389 28.653L152.388 28.652L152.055 28.075" fill="#566531"/><path d="M137.855 20.261L137.855 20.261C137.855 20.608 137.942 20.95 138.124 21.263L141.506 27.129L141.964 27.921C141.99 27.968 142.019 28.013 142.049 28.057C142.222 28.306 142.445 28.507 142.695 28.652L143.028 28.075C142.829 27.96 142.659 27.793 142.541 27.588L138.696 20.928C138.578 20.722 138.518 20.491 138.518 20.261L137.855 20.261" fill="#566531"/><path d="M169.013 21.468L164.17 29.857L159.33 21.467C159.627 21.299 159.967 21.203 160.328 21.204L168.014 21.199C168.375 21.2 168.719 21.298 169.013 21.468" fill="#404142"/><path d="M164.17 29.858L169.013 21.469C169.313 21.642 169.57 21.891 169.746 22.2L173.596 28.864C173.772 29.174 173.864 29.519 173.868 29.86L173.858 29.863L164.176 29.861L164.17 29.858" fill="#f79548"/><path d="M159.33 21.467L164.17 29.858L164.166 29.863L154.483 29.862C154.483 29.515 154.572 29.174 154.752 28.862L158.598 22.199C158.779 21.888 159.03 21.64 159.33 21.467" fill="#404142"/><path d="M173.858 29.863L173.868 29.86C173.868 30.207 173.779 30.548 173.598 30.86L169.753 37.522C169.572 37.834 169.322 38.082 169.021 38.255L169.016 38.252L164.176 29.862L173.858 29.863" fill="#404142"/></g><path d="M164.166 29.863L164.176 29.861L164.17 29.858L164.166 29.863" fill="#5b9ad3"/><g clip-path="url(#c17)"><path d="M164.176 29.861L169.015 38.251L169.021 38.255C168.721 38.428 168.375 38.52 168.02 38.523L160.322 38.521C159.967 38.523 159.623 38.425 159.323 38.252L164.166 29.863L164.176 29.861" fill="#404142"/><path d="M154.483 29.862L164.166 29.864L159.323 38.252C159.028 38.083 158.772 37.834 158.591 37.522L154.752 30.864C154.57 30.551 154.483 30.209 154.483 29.862" fill="#404142"/><path d="M158.591 37.521C158.855 37.978 159.283 38.305 159.777 38.445C159.618 38.4 159.466 38.334 159.323 38.252L159.656 37.675L159.323 38.252C159.028 38.082 158.772 37.833 158.591 37.521M169.739 22.187C169.742 22.191 169.744 22.195 169.746 22.199L169.944 22.541L169.747 22.201C169.744 22.196 169.742 22.191 169.739 22.187M168.651 21.305C168.778 21.348 168.899 21.403 169.013 21.468C169.108 21.523 169.199 21.585 169.284 21.655C169.096 21.501 168.882 21.382 168.651 21.305M165.452 21.201L160.323 21.201C159.611 21.201 158.948 21.582 158.591 22.201L154.747 28.861C154.39 29.48 154.39 30.242 154.747 30.861L158.591 37.521L154.752 30.863C154.57 30.55 154.483 30.208 154.483 29.861C154.483 29.515 154.572 29.174 154.752 28.862L158.599 22.199C158.779 21.888 159.031 21.639 159.33 21.467C159.625 21.3 159.963 21.204 160.321 21.204L160.328 21.204L165.452 21.201" fill="#767071"/><path d="M168.015 21.201L165.452 21.201L160.328 21.204L160.321 21.204C159.963 21.204 159.625 21.3 159.33 21.467L159.663 22.043C159.861 21.93 160.088 21.867 160.323 21.867L168.015 21.867C168.252 21.867 168.48 21.931 168.68 22.046L169.013 21.468C168.899 21.403 168.778 21.348 168.651 21.305C168.449 21.237 168.235 21.201 168.015 21.201" fill="#323132"/><path d="M169.013 21.468L169.013 21.468L168.68 22.045C168.88 22.161 169.051 22.328 169.17 22.534L173.015 29.194C173.134 29.4 173.193 29.631 173.193 29.862L173.858 29.862L173.86 29.862C173.86 29.516 173.771 29.17 173.592 28.861L169.944 22.541L169.746 22.199C169.744 22.195 169.742 22.191 169.739 22.187C169.618 21.981 169.463 21.802 169.284 21.655C169.199 21.585 169.108 21.523 169.013 21.468" fill="#785233"/><path d="M159.33 21.467C159.03 21.64 158.779 21.888 158.598 22.199L154.752 28.862C154.572 29.174 154.483 29.515 154.483 29.862L155.146 29.862C155.146 29.631 155.205 29.4 155.324 29.194L159.168 22.535C159.288 22.327 159.46 22.159 159.663 22.044L159.33 21.467" fill="#323132"/><path d="M173.86 29.862L173.858 29.863L173.193 29.862C173.193 30.093 173.133 30.323 173.015 30.528L169.17 37.188C169.052 37.393 168.882 37.559 168.683 37.675L169.015 38.252L169.017 38.252C169.315 38.08 169.569 37.83 169.747 37.521L173.592 30.861C173.771 30.552 173.86 30.207 173.86 29.862" fill="#323132"/><path d="M168.683 37.675C168.483 37.791 168.253 37.855 168.015 37.855L160.323 37.855C160.085 37.855 159.856 37.791 159.656 37.675L159.323 38.252C159.466 38.335 159.618 38.4 159.777 38.446C159.952 38.495 160.135 38.521 160.323 38.521L160.324 38.521L168.015 38.521L168.016 38.521C168.374 38.521 168.718 38.426 169.017 38.253L169.016 38.252L168.683 37.675" fill="#323132"/><path d="M154.483 29.862L154.483 29.862C154.483 30.209 154.57 30.551 154.752 30.864L158.591 37.522C158.772 37.834 159.028 38.083 159.323 38.252L159.656 37.676C159.457 37.56 159.287 37.393 159.168 37.188L155.324 30.528C155.206 30.323 155.146 30.092 155.146 29.862L154.483 29.862" fill="#323132"/><path d="M185.641 31.069L180.798 39.458L175.958 31.067C176.255 30.9 176.595 30.804 176.956 30.804L184.642 30.8C185.003 30.801 185.347 30.899 185.641 31.069" fill="#96ca4f"/><path d="M180.798 39.458L185.641 31.069C185.941 31.242 186.198 31.491 186.373 31.8L190.224 38.464C190.4 38.773 190.492 39.119 190.495 39.461L190.486 39.463L180.804 39.461L180.798 39.458" fill="#96ca4f"/><path d="M175.958 31.067L180.798 39.458L180.794 39.464L171.111 39.462C171.111 39.115 171.2 38.775 171.38 38.463L175.226 31.8C175.407 31.488 175.657 31.241 175.958 31.067" fill="#96ca4f"/><path d="M190.486 39.463L190.495 39.46C190.495 39.807 190.406 40.148 190.226 40.46L186.38 47.123C186.2 47.434 185.949 47.682 185.648 47.855L185.642 47.852L180.804 39.461L190.486 39.463" fill="#96ca4f"/></g><path d="M180.794 39.463L180.804 39.46L180.798 39.458L180.794 39.463" fill="#5b9ad3"/><g clip-path="url(#c18)"><path d="M180.804 39.461L185.643 47.852L185.648 47.855C185.349 48.028 185.003 48.121 184.648 48.124L176.95 48.122C176.595 48.124 176.251 48.026 175.951 47.853L180.794 39.463L180.804 39.461" fill="#96ca4f"/><path d="M171.112 39.462L180.794 39.464L175.951 47.853C175.657 47.683 175.4 47.435 175.218 47.122L171.38 40.463C171.199 40.151 171.112 39.808 171.112 39.462" fill="#96ca4f"/><path d="M176.89 48.121C176.911 48.122 176.931 48.122 176.952 48.122L178.05 48.122L176.95 48.122L176.937 48.122C176.921 48.122 176.906 48.121 176.89 48.121M176.284 47.276L175.951 47.853C175.778 47.753 175.617 47.626 175.478 47.474C175.721 47.739 176.03 47.933 176.373 48.036C176.225 47.991 176.084 47.929 175.951 47.853L176.284 47.276M186.348 31.757C186.356 31.771 186.364 31.785 186.373 31.8L187.157 33.157L186.374 31.801C186.365 31.786 186.357 31.771 186.348 31.757M185.095 30.853C185.289 30.898 185.473 30.972 185.641 31.069C185.71 31.109 185.777 31.153 185.842 31.201C185.621 31.035 185.366 30.916 185.095 30.853M182.933 30.801L176.952 30.801C176.237 30.801 175.577 31.182 175.22 31.801L171.374 38.461C171.016 39.081 171.016 39.844 171.374 40.461L174.231 45.41L171.38 40.463C171.198 40.151 171.111 39.808 171.111 39.462C171.111 39.115 171.2 38.775 171.38 38.463L175.226 31.8C175.407 31.488 175.657 31.24 175.958 31.067C176.255 30.9 176.595 30.804 176.956 30.804L182.933 30.801" fill="#767071"/><path d="M184.643 30.801L182.934 30.801L176.956 30.804C176.595 30.804 176.255 30.9 175.958 31.067L176.291 31.644C176.49 31.531 176.717 31.468 176.952 31.468L184.643 31.468C184.88 31.468 185.108 31.532 185.308 31.646L185.641 31.069C185.473 30.972 185.289 30.899 185.095 30.853C184.948 30.819 184.797 30.801 184.643 30.801" fill="#566531"/><path d="M185.641 31.069L185.641 31.069L185.308 31.646C185.508 31.762 185.678 31.928 185.797 32.134L189.643 38.794C189.762 39.001 189.821 39.232 189.821 39.463L190.486 39.463L190.488 39.463C190.488 39.117 190.399 38.771 190.22 38.461L187.157 33.157L186.373 31.8C186.365 31.785 186.357 31.771 186.348 31.757C186.214 31.538 186.042 31.351 185.842 31.201C185.778 31.153 185.711 31.109 185.641 31.069" fill="#566531"/><path d="M175.958 31.067C175.657 31.241 175.407 31.488 175.226 31.8L171.38 38.463C171.2 38.775 171.111 39.115 171.111 39.462L171.773 39.462C171.773 39.232 171.832 39.001 171.951 38.795L175.797 32.135C175.916 31.927 176.089 31.76 176.291 31.644L175.958 31.067" fill="#566531"/><path d="M190.488 39.462L190.486 39.462L189.821 39.462C189.82 39.692 189.761 39.922 189.643 40.127L185.797 46.788C185.679 46.993 185.509 47.159 185.31 47.275L185.643 47.852L185.644 47.852C185.942 47.68 186.196 47.43 186.374 47.122L190.22 40.461C190.398 40.152 190.488 39.807 190.488 39.462" fill="#566531"/><path d="M185.31 47.275C185.11 47.39 184.881 47.454 184.643 47.454L176.952 47.456C176.714 47.456 176.484 47.391 176.284 47.275L175.951 47.852C176.084 47.929 176.226 47.991 176.373 48.036C176.539 48.086 176.713 48.115 176.89 48.121C176.906 48.121 176.921 48.121 176.937 48.121L176.951 48.121L178.05 48.122L184.643 48.121L184.645 48.121C185.002 48.121 185.346 48.026 185.644 47.853L185.643 47.852L185.31 47.275" fill="#566531"/><path d="M171.112 39.462L171.112 39.462C171.112 39.808 171.199 40.151 171.38 40.463L174.232 45.41L175.22 47.122C175.294 47.25 175.381 47.368 175.478 47.474C175.618 47.626 175.778 47.753 175.951 47.853L176.284 47.276C176.085 47.16 175.916 46.994 175.797 46.789L171.952 40.127C171.833 39.922 171.774 39.692 171.774 39.462L171.112 39.462" fill="#566531"/><path d="M152.386 31.069L147.542 39.458L142.702 31.067C142.999 30.9 143.34 30.804 143.701 30.804L151.386 30.8C151.747 30.801 152.091 30.899 152.386 31.069" fill="#96ca4f"/><path d="M147.542 39.458L152.386 31.069C152.685 31.242 152.942 31.491 153.118 31.8L156.968 38.464C157.143 38.773 157.236 39.119 157.24 39.461L157.231 39.463L147.547 39.461L147.542 39.458" fill="#96ca4f"/><path d="M142.702 31.067L147.542 39.458L147.539 39.464L137.855 39.462C137.855 39.115 137.944 38.775 138.125 38.463L141.971 31.8C142.151 31.488 142.402 31.241 142.702 31.067" fill="#96ca4f"/><path d="M157.232 39.463L157.24 39.46C157.24 39.807 157.152 40.148 156.971 40.46L153.125 47.123C152.945 47.434 152.694 47.682 152.394 47.855L152.388 47.852L147.548 39.461L157.232 39.463" fill="#96ca4f"/></g><path d="M147.539 39.463L147.548 39.46L147.543 39.458L147.539 39.463" fill="#5b9ad3"/><g clip-path="url(#c19)"><path d="M147.548 39.461L152.388 47.852L152.394 47.855C152.094 48.028 151.747 48.121 151.392 48.124L143.696 48.122C143.339 48.124 142.996 48.026 142.696 47.853L147.54 39.463L147.548 39.461" fill="#96ca4f"/><path d="M137.855 39.462L147.539 39.464L142.695 47.853C142.401 47.683 142.144 47.435 141.963 47.122L138.124 40.463C137.942 40.151 137.855 39.808 137.855 39.462" fill="#96ca4f"/><path d="M143.629 48.121C143.652 48.122 143.674 48.122 143.697 48.122L144.795 48.122L143.696 48.122L143.682 48.122C143.665 48.122 143.647 48.121 143.629 48.121M143.155 48.047C143.156 48.048 143.158 48.048 143.16 48.049C143.158 48.048 143.156 48.048 143.155 48.047M142.02 47.213C142.286 47.623 142.691 47.917 143.153 48.047C142.993 48.001 142.84 47.936 142.696 47.853L143.029 47.276L142.696 47.853C142.431 47.699 142.196 47.483 142.02 47.213M151.785 30.841C151.999 30.885 152.202 30.963 152.386 31.069C152.429 31.094 152.47 31.12 152.511 31.147C152.293 30.999 152.046 30.894 151.785 30.841M151.779 30.84C151.78 30.84 151.782 30.84 151.783 30.841C151.782 30.84 151.78 30.84 151.779 30.84M149.679 30.801L143.697 30.801C142.982 30.801 142.322 31.182 141.964 31.802L138.119 38.461C137.761 39.081 137.763 39.844 138.119 40.461L141.692 46.651L138.125 40.463C137.943 40.151 137.856 39.808 137.856 39.462C137.856 39.115 137.945 38.775 138.126 38.463L141.972 31.8C142.152 31.488 142.403 31.241 142.703 31.067C143 30.9 143.34 30.804 143.702 30.804L149.679 30.801" fill="#767071"/><path d="M151.388 30.801L149.678 30.801L143.701 30.804C143.34 30.804 142.999 30.9 142.702 31.067L143.035 31.644C143.234 31.531 143.461 31.468 143.696 31.468L151.387 31.468C151.624 31.468 151.853 31.532 152.053 31.647L152.386 31.069C152.202 30.963 151.999 30.885 151.785 30.841C151.784 30.841 151.784 30.841 151.783 30.841C151.781 30.84 151.78 30.84 151.778 30.84C151.651 30.814 151.52 30.801 151.388 30.801" fill="#566531"/><path d="M152.386 31.069L152.386 31.069L152.053 31.647C152.252 31.762 152.422 31.929 152.541 32.134L156.387 38.794C156.506 39.001 156.565 39.232 156.565 39.463L157.232 39.463C157.232 39.117 157.143 38.772 156.964 38.461L153.118 31.801C152.965 31.535 152.756 31.313 152.51 31.147C152.47 31.119 152.428 31.093 152.386 31.069" fill="#566531"/><path d="M142.702 31.067C142.402 31.241 142.151 31.488 141.971 31.8L138.125 38.463C137.944 38.775 137.855 39.115 137.855 39.462L138.518 39.462C138.518 39.231 138.577 39 138.695 38.795L142.541 32.134C142.66 31.927 142.833 31.759 143.035 31.644L142.702 31.067" fill="#566531"/><path d="M156.565 39.463C156.565 39.693 156.505 39.923 156.387 40.128L152.541 46.789C152.423 46.994 152.254 47.16 152.055 47.275L152.388 47.852L152.389 47.853C152.687 47.68 152.94 47.431 153.119 47.122L156.964 40.462C157.143 40.152 157.232 39.808 157.232 39.463L156.565 39.463" fill="#566531"/><path d="M152.055 47.275C151.856 47.39 151.626 47.455 151.388 47.455L143.697 47.456C143.458 47.456 143.229 47.392 143.029 47.276L142.696 47.853C142.839 47.935 142.993 48.001 143.153 48.047L143.154 48.047C143.156 48.048 143.158 48.048 143.16 48.049C143.311 48.091 143.469 48.115 143.629 48.121C143.647 48.121 143.664 48.122 143.682 48.122L143.696 48.122L144.795 48.122L151.388 48.121L151.391 48.121C151.748 48.121 152.091 48.026 152.389 47.853L152.388 47.852L152.055 47.275" fill="#566531"/><path d="M137.855 39.462L137.855 39.462C137.855 39.808 137.942 40.151 138.124 40.463L141.692 46.651L141.964 47.122C141.981 47.153 142 47.183 142.019 47.213C142.196 47.483 142.43 47.699 142.695 47.853L143.028 47.276C142.829 47.161 142.659 46.994 142.541 46.789L138.696 40.129C138.578 39.923 138.518 39.692 138.518 39.462L137.855 39.462" fill="#566531"/><path d="M168.876 32.52C168.721 32.794 168.541 33.053 168.342 33.295L168.856 33.72C169.08 33.449 169.281 33.157 169.456 32.849L168.876 32.52" fill="#f79548"/><path d="M159.661 26.86C160.026 26.312 160.488 25.833 161.024 25.449L160.636 24.907C160.034 25.338 159.515 25.875 159.106 26.491L159.661 26.86M158.786 29.311C158.852 28.641 159.041 28.006 159.331 27.428L158.735 27.129C158.41 27.778 158.197 28.493 158.123 29.246L158.786 29.311M159.157 31.889C158.919 31.303 158.781 30.666 158.762 29.997L158.762 29.996L158.762 29.968L158.095 29.983L158.096 30.015C158.116 30.765 158.272 31.482 158.54 32.14L159.157 31.889M160.69 33.993C160.188 33.571 159.763 33.059 159.441 32.481L158.859 32.805C159.221 33.455 159.698 34.029 160.261 34.503L160.69 33.993M163.027 35.14C162.373 34.999 161.762 34.74 161.218 34.385L160.854 34.943C161.465 35.342 162.152 35.633 162.887 35.792L163.027 35.14M165.63 35.061C165.211 35.178 164.77 35.247 164.315 35.259L164.167 35.261C164.001 35.261 163.838 35.253 163.676 35.239L163.616 35.903C163.798 35.919 163.981 35.927 164.167 35.927L164.333 35.925C164.843 35.911 165.338 35.835 165.81 35.703L165.63 35.061M167.894 33.776C167.42 34.226 166.864 34.591 166.251 34.846L166.507 35.462C167.197 35.174 167.821 34.764 168.353 34.26L167.894 33.776" fill="#f79548"/><path d="M161.604 25.087C161.878 24.939 162.167 24.814 162.469 24.714L162.259 24.081C161.921 24.193 161.596 24.334 161.287 24.501L161.604 25.087" fill="#f79548"/></g><path d="M162.284 25.663L164.016 24.11L161.805 23.386L162.284 25.663" fill="#f79548"/><path d="M99.186 27.436L99.893 26.729L99.422 26.258L98.715 26.965" fill="#404142"/><path d="M100.522 26.1L101.229 25.393L100.758 24.922L100.051 25.629" fill="#404142"/><path d="M91.823 34.801L92.53 34.094L92.059 33.623L91.352 34.33" fill="#404142"/><path d="M93.158 33.465L93.865 32.758L93.394 32.287L92.687 32.994" fill="#404142"/><path d="M96.943 26.141L97.587 26.313L97.846 25.347L97.202 25.175L96.943 26.141" fill="#404142"/><path d="M97.431 24.316L98.074 24.489L98.334 23.523L97.689 23.35L97.431 24.316" fill="#404142"/><path d="M94.246 36.199L94.89 36.372L95.149 35.406L94.505 35.233L94.246 36.199" fill="#404142"/><path d="M94.735 34.376L95.379 34.549L95.638 33.583L94.993 33.41L94.735 34.376" fill="#404142"/><path d="M94.735 25.347L94.993 26.313L95.638 26.141L95.379 25.175L94.735 25.347" fill="#404142"/><path d="M94.246 23.524L94.505 24.49L95.149 24.317L94.89 23.351L94.246 23.524" fill="#404142"/><path d="M97.431 35.407L97.689 36.373L98.334 36.2L98.074 35.234L97.431 35.407" fill="#404142"/><path d="M96.942 33.583L97.201 34.549L97.845 34.376L97.585 33.41L96.942 33.583" fill="#404142"/><path d="M93.865 26.965L93.158 26.257L92.686 26.729L93.393 27.436" fill="#404142"/><path d="M92.53 25.629L91.823 24.922L91.351 25.393L92.058 26.1" fill="#404142"/><path d="M101.229 34.329L100.522 33.622L100.051 34.093L100.758 34.8" fill="#404142"/><path d="M99.894 32.994L99.187 32.287L98.716 32.758L99.423 33.465" fill="#404142"/><path d="M91.603 28.951L92.569 29.21L92.741 28.567L91.776 28.307L91.603 28.951" fill="#404142"/><path d="M89.78 28.461L90.747 28.721L90.918 28.077L89.953 27.818L89.78 28.461" fill="#404142"/><path d="M101.663 31.646L102.629 31.905L102.801 31.262L101.835 31.002L101.663 31.646" fill="#404142"/><path d="M99.839 31.156L100.805 31.415L100.977 30.772L100.012 30.512L99.839 31.156" fill="#404142"/><path d="M91.603 30.772L91.776 31.416L92.741 31.156L92.569 30.513L91.603 30.772" fill="#404142"/><path d="M89.78 31.262L89.953 31.905L90.918 31.646L90.747 31.002L89.78 31.262" fill="#404142"/><path d="M101.664 28.078L101.836 28.721L102.802 28.463L102.63 27.82L101.664 28.078" fill="#404142"/><path d="M99.84 28.565L100.012 29.209L100.978 28.95L100.806 28.307L99.84 28.565" fill="#404142"/><g clip-path="url(#c20)"><path d="M73.262 58.117C77.283 51.53 81.173 44.897 85.544 38.502C87.861 35.115 92.38 28.637 96.746 27.793C98.703 33.666 90.99 38.874 91.569 44.671C93.317 43.497 95.961 40.163 97.64 42.392C99.136 44.375 96.554 47.879 95.442 49.52C96.246 49.071 99.157 47.584 99.872 48.796C100.353 49.61 97.88 51.941 97.164 52.523C100.861 52.586 99.517 55.81 97.978 58.214C95.419 62.213 92.089 64.61 88.298 67.445" fill="#ffffff"/><path d="M73.831 58.464C77.856 51.87 81.741 45.248 86.095 38.878C87.249 37.189 88.943 34.747 90.868 32.643C92.786 30.533 94.958 28.801 96.873 28.447L96.746 27.792L96.114 28.003C96.312 28.598 96.398 29.179 96.398 29.761C96.399 30.853 96.087 31.961 95.591 33.096C94.848 34.799 93.693 36.539 92.702 38.337C91.716 40.135 90.874 42.011 90.87 44.041C90.87 44.271 90.882 44.504 90.905 44.738L91.018 45.843L91.94 45.224C92.682 44.722 93.467 43.966 94.258 43.346C94.65 43.036 95.039 42.764 95.392 42.581C95.746 42.395 96.056 42.306 96.287 42.308C96.435 42.309 96.554 42.337 96.682 42.404C96.81 42.472 96.952 42.588 97.107 42.793L97.108 42.794C97.329 43.089 97.425 43.422 97.428 43.847C97.435 44.618 97.044 45.645 96.51 46.611C95.98 47.581 95.333 48.492 94.89 49.146L93.313 51.473L95.767 50.102C96.039 49.95 96.585 49.663 97.183 49.422C97.778 49.178 98.441 48.992 98.859 48.997C99.018 48.996 99.134 49.022 99.195 49.049L99.299 49.135L99.298 49.134L99.455 49.042L99.267 49.042L99.298 49.134L99.455 49.042L99.267 49.042C99.268 49.042 99.262 49.102 99.223 49.198C99.091 49.548 98.598 50.193 98.076 50.741C97.555 51.296 96.998 51.8 96.744 52.005L95.326 53.158L97.153 53.189C97.945 53.201 98.376 53.381 98.578 53.557C98.776 53.733 98.865 53.936 98.873 54.327C98.876 54.749 98.72 55.338 98.449 55.96C98.18 56.584 97.807 57.244 97.416 57.854C94.939 61.728 91.702 64.068 87.899 66.911L88.697 67.979C92.476 65.151 95.899 62.698 98.539 58.573L98.629 58.432L98.539 58.573C98.956 57.921 99.363 57.207 99.674 56.488C99.982 55.767 100.203 55.043 100.206 54.327C100.213 53.687 99.993 53.004 99.443 52.542C98.897 52.081 98.141 51.873 97.176 51.856L97.164 52.522L97.585 53.04C97.947 52.744 98.647 52.107 99.291 51.388C99.612 51.028 99.917 50.651 100.156 50.273C100.389 49.889 100.588 49.524 100.6 49.042C100.601 48.858 100.56 48.647 100.447 48.457L100.446 48.456C100.275 48.162 100.004 47.943 99.721 47.824C99.436 47.703 99.145 47.664 98.859 47.664C98.118 47.669 97.364 47.915 96.685 48.185C96.009 48.458 95.425 48.766 95.116 48.938L95.442 49.52L95.994 49.894C96.423 49.259 97.102 48.308 97.68 47.25C98.255 46.188 98.754 45.023 98.761 43.847C98.763 43.206 98.594 42.546 98.172 41.991C97.924 41.66 97.634 41.4 97.309 41.227C96.984 41.053 96.628 40.974 96.287 40.975C95.744 40.977 95.244 41.155 94.776 41.398C94.074 41.766 93.419 42.297 92.807 42.811C92.2 43.324 91.634 43.825 91.197 44.117L91.569 44.67L92.232 44.603C92.213 44.415 92.204 44.228 92.204 44.041C92.191 41.853 93.484 39.581 94.876 37.234C95.566 36.059 96.271 34.866 96.812 33.63C97.352 32.395 97.731 31.109 97.732 29.761C97.732 29.045 97.623 28.315 97.379 27.582L97.194 27.027L96.62 27.138C94.168 27.628 91.897 29.557 89.885 31.743C87.879 33.936 86.156 36.427 84.994 38.126C80.606 44.546 76.711 51.189 72.693 57.769L73.831 58.464" fill="#221f20"/></g><g clip-path="url(#c21)"></g><g clip-path="url(#c22)"></g><g clip-path="url(#c23)"></g><g clip-path="url(#c24)"></g><g clip-path="url(#c25)"></g><g clip-path="url(#c26)"></g><g clip-path="url(#c27)"></g><g clip-path="url(#c28)"></g><g clip-path="url(#c29)"></g><g clip-path="url(#c30)"></g><g clip-path="url(#c31)"></g><g clip-path="url(#c32)"></g><g clip-path="url(#c33)"></g><g clip-path="url(#c34)"></g><g clip-path="url(#c35)"></g></svg>